<mxfile host="app.diagrams.net" agent="Mozilla/5.0 (Windows NT 10.0; Win64; x64) AppleWebKit/537.36 (KHTML, like Gecko) Chrome/131.0.0.0 Safari/537.36" version="25.0.3" pages="6">
  <diagram name="Flow_XHTD" id="0LrU8st6pBxI2aXn26et">
    <mxGraphModel dx="2238" dy="986" grid="0" gridSize="10" guides="1" tooltips="1" connect="1" arrows="1" fold="1" page="0" pageScale="1" pageWidth="827" pageHeight="1169" math="0" shadow="0">
      <root>
        <mxCell id="0" />
        <mxCell id="1" parent="0" />
        <mxCell id="OSNXFccXmbC_XitdNzZT-4" style="edgeStyle=orthogonalEdgeStyle;rounded=0;orthogonalLoop=1;jettySize=auto;html=1;entryX=0;entryY=0.5;entryDx=0;entryDy=0;exitX=0.5;exitY=0;exitDx=0;exitDy=0;" parent="1" source="OSNXFccXmbC_XitdNzZT-1" target="OSNXFccXmbC_XitdNzZT-3" edge="1">
          <mxGeometry relative="1" as="geometry" />
        </mxCell>
        <mxCell id="OSNXFccXmbC_XitdNzZT-8" value="Luồng thường" style="edgeLabel;html=1;align=center;verticalAlign=middle;resizable=0;points=[];" parent="OSNXFccXmbC_XitdNzZT-4" vertex="1" connectable="0">
          <mxGeometry x="0.1474" y="1" relative="1" as="geometry">
            <mxPoint x="1" y="-8" as="offset" />
          </mxGeometry>
        </mxCell>
        <mxCell id="OSNXFccXmbC_XitdNzZT-6" style="edgeStyle=orthogonalEdgeStyle;rounded=0;orthogonalLoop=1;jettySize=auto;html=1;exitX=1;exitY=0.5;exitDx=0;exitDy=0;entryX=0;entryY=0.25;entryDx=0;entryDy=0;strokeColor=#004C99;" parent="1" source="OSNXFccXmbC_XitdNzZT-1" target="OSNXFccXmbC_XitdNzZT-9" edge="1">
          <mxGeometry relative="1" as="geometry">
            <mxPoint x="504" y="141" as="targetPoint" />
          </mxGeometry>
        </mxCell>
        <mxCell id="OSNXFccXmbC_XitdNzZT-7" value="Luồng Tự Động" style="edgeLabel;html=1;align=center;verticalAlign=middle;resizable=0;points=[];" parent="OSNXFccXmbC_XitdNzZT-6" vertex="1" connectable="0">
          <mxGeometry x="0.1381" y="1" relative="1" as="geometry">
            <mxPoint x="-21" y="11" as="offset" />
          </mxGeometry>
        </mxCell>
        <mxCell id="OSNXFccXmbC_XitdNzZT-1" value="DIGILENDING" style="rounded=1;whiteSpace=wrap;html=1;fillColor=#dae8fc;strokeColor=#6c8ebf;fontStyle=1" parent="1" vertex="1">
          <mxGeometry x="132" y="118" width="120" height="60" as="geometry" />
        </mxCell>
        <mxCell id="OSNXFccXmbC_XitdNzZT-5" style="edgeStyle=orthogonalEdgeStyle;rounded=0;orthogonalLoop=1;jettySize=auto;html=1;exitX=1;exitY=0.5;exitDx=0;exitDy=0;entryX=0.25;entryY=0;entryDx=0;entryDy=0;" parent="1" source="OSNXFccXmbC_XitdNzZT-3" target="OSNXFccXmbC_XitdNzZT-9" edge="1">
          <mxGeometry relative="1" as="geometry">
            <mxPoint x="577.5" y="101" as="targetPoint" />
          </mxGeometry>
        </mxCell>
        <mxCell id="OSNXFccXmbC_XitdNzZT-3" value="Model App" style="rounded=0;whiteSpace=wrap;html=1;fontStyle=1;fillColor=#e1d5e7;strokeColor=#9673a6;" parent="1" vertex="1">
          <mxGeometry x="331" y="47" width="99" height="38" as="geometry" />
        </mxCell>
        <mxCell id="OSNXFccXmbC_XitdNzZT-9" value="DECISION ENGINE (BUY)" style="swimlane;whiteSpace=wrap;html=1;fillColor=#ffe6cc;strokeColor=#d79b00;" parent="1" vertex="1">
          <mxGeometry x="517" y="91" width="322" height="229" as="geometry" />
        </mxCell>
        <mxCell id="OSNXFccXmbC_XitdNzZT-12" style="edgeStyle=orthogonalEdgeStyle;rounded=0;orthogonalLoop=1;jettySize=auto;html=1;exitX=0.5;exitY=1;exitDx=0;exitDy=0;entryX=0.5;entryY=0;entryDx=0;entryDy=0;" parent="OSNXFccXmbC_XitdNzZT-9" source="OSNXFccXmbC_XitdNzZT-10" target="OSNXFccXmbC_XitdNzZT-11" edge="1">
          <mxGeometry relative="1" as="geometry" />
        </mxCell>
        <mxCell id="OSNXFccXmbC_XitdNzZT-10" value="Process flow 1 - 6" style="rounded=1;whiteSpace=wrap;html=1;fontStyle=1;fillColor=#d5e8d4;strokeColor=#82b366;" parent="OSNXFccXmbC_XitdNzZT-9" vertex="1">
          <mxGeometry x="101" y="55" width="120" height="60" as="geometry" />
        </mxCell>
        <mxCell id="OSNXFccXmbC_XitdNzZT-11" value="Process XHTD (7)" style="rounded=1;whiteSpace=wrap;html=1;fontStyle=1;fillColor=#f8cecc;strokeColor=#b85450;" parent="OSNXFccXmbC_XitdNzZT-9" vertex="1">
          <mxGeometry x="101" y="147" width="120" height="60" as="geometry" />
        </mxCell>
        <mxCell id="OSNXFccXmbC_XitdNzZT-13" value="Thiết kế DB để hứng kết quả của Step 7 này ???" style="text;html=1;align=center;verticalAlign=middle;whiteSpace=wrap;rounded=0;fontStyle=3;fontSize=15;fontColor=#FF0A0A;textShadow=0;fontFamily=Courier New;" parent="1" vertex="1">
          <mxGeometry x="884" y="238" width="215" height="62" as="geometry" />
        </mxCell>
        <mxCell id="OSNXFccXmbC_XitdNzZT-14" value="" style="endArrow=classic;html=1;rounded=0;exitX=0;exitY=0.5;exitDx=0;exitDy=0;dashed=1;strokeColor=#FF0A0A;" parent="1" source="OSNXFccXmbC_XitdNzZT-13" edge="1">
          <mxGeometry width="50" height="50" relative="1" as="geometry">
            <mxPoint x="709" y="345" as="sourcePoint" />
            <mxPoint x="746" y="270" as="targetPoint" />
          </mxGeometry>
        </mxCell>
        <mxCell id="vkOroHgNw1NVGphf10k4-1" value="Details of Process XHTD (7)" style="swimlane;whiteSpace=wrap;html=1;fillColor=#f8cecc;strokeColor=#b85450;" parent="1" vertex="1">
          <mxGeometry x="-72" y="412" width="1500" height="521" as="geometry" />
        </mxCell>
        <mxCell id="vkOroHgNw1NVGphf10k4-2" style="edgeStyle=orthogonalEdgeStyle;rounded=0;orthogonalLoop=1;jettySize=auto;html=1;exitX=0.5;exitY=1;exitDx=0;exitDy=0;" parent="vkOroHgNw1NVGphf10k4-1" source="vkOroHgNw1NVGphf10k4-3" target="vkOroHgNw1NVGphf10k4-5" edge="1">
          <mxGeometry relative="1" as="geometry" />
        </mxCell>
        <mxCell id="vkOroHgNw1NVGphf10k4-3" value="&lt;b&gt;Bước 1&lt;/b&gt;: Tiếp nhận các thông tin cơ bản đủ để nhận diện mô hình" style="rounded=1;whiteSpace=wrap;html=1;fillColor=#ffe6cc;strokeColor=#d79b00;" parent="vkOroHgNw1NVGphf10k4-1" vertex="1">
          <mxGeometry x="67" y="69" width="210" height="70" as="geometry" />
        </mxCell>
        <mxCell id="vkOroHgNw1NVGphf10k4-4" style="edgeStyle=orthogonalEdgeStyle;rounded=0;orthogonalLoop=1;jettySize=auto;html=1;exitX=1;exitY=0.5;exitDx=0;exitDy=0;entryX=0;entryY=0.5;entryDx=0;entryDy=0;" parent="vkOroHgNw1NVGphf10k4-1" source="vkOroHgNw1NVGphf10k4-5" target="vkOroHgNw1NVGphf10k4-7" edge="1">
          <mxGeometry relative="1" as="geometry">
            <mxPoint x="387" y="211" as="targetPoint" />
          </mxGeometry>
        </mxCell>
        <mxCell id="vkOroHgNw1NVGphf10k4-5" value="&lt;b&gt;Bước 2&lt;/b&gt;: Xác định loại mô hình dựa trên thông tin ở bước 1" style="rounded=1;whiteSpace=wrap;html=1;fillColor=#ffe6cc;strokeColor=#d79b00;" parent="vkOroHgNw1NVGphf10k4-1" vertex="1">
          <mxGeometry x="67" y="212" width="210" height="70" as="geometry" />
        </mxCell>
        <mxCell id="vkOroHgNw1NVGphf10k4-6" style="edgeStyle=orthogonalEdgeStyle;rounded=0;orthogonalLoop=1;jettySize=auto;html=1;exitX=1;exitY=0.25;exitDx=0;exitDy=0;entryX=0;entryY=0.25;entryDx=0;entryDy=0;" parent="vkOroHgNw1NVGphf10k4-1" source="vkOroHgNw1NVGphf10k4-7" target="vkOroHgNw1NVGphf10k4-16" edge="1">
          <mxGeometry relative="1" as="geometry" />
        </mxCell>
        <mxCell id="vkOroHgNw1NVGphf10k4-7" value="Bước 3" style="swimlane;whiteSpace=wrap;html=1;fillColor=#ffe6cc;strokeColor=#d79b00;" parent="vkOroHgNw1NVGphf10k4-1" vertex="1">
          <mxGeometry x="384" y="69" width="372" height="356" as="geometry" />
        </mxCell>
        <mxCell id="vkOroHgNw1NVGphf10k4-8" style="edgeStyle=orthogonalEdgeStyle;rounded=0;orthogonalLoop=1;jettySize=auto;html=1;exitX=0.5;exitY=1;exitDx=0;exitDy=0;entryX=0.5;entryY=0;entryDx=0;entryDy=0;" parent="vkOroHgNw1NVGphf10k4-7" source="vkOroHgNw1NVGphf10k4-9" target="vkOroHgNw1NVGphf10k4-11" edge="1">
          <mxGeometry relative="1" as="geometry" />
        </mxCell>
        <mxCell id="vkOroHgNw1NVGphf10k4-9" value="&lt;b&gt;Bước 3.1&lt;/b&gt;: Xác định bộ câu hỏi tương ứng với loại mô hình (thông tin cần để xếp hạng cho loại mô hình đó)" style="rounded=1;whiteSpace=wrap;html=1;fillColor=#fff2cc;strokeColor=#d6b656;" parent="vkOroHgNw1NVGphf10k4-7" vertex="1">
          <mxGeometry x="58" y="43" width="210" height="70" as="geometry" />
        </mxCell>
        <mxCell id="vkOroHgNw1NVGphf10k4-10" style="edgeStyle=orthogonalEdgeStyle;rounded=0;orthogonalLoop=1;jettySize=auto;html=1;exitX=0.5;exitY=1;exitDx=0;exitDy=0;entryX=0.5;entryY=0;entryDx=0;entryDy=0;" parent="vkOroHgNw1NVGphf10k4-7" source="vkOroHgNw1NVGphf10k4-11" target="vkOroHgNw1NVGphf10k4-12" edge="1">
          <mxGeometry relative="1" as="geometry" />
        </mxCell>
        <mxCell id="vkOroHgNw1NVGphf10k4-11" value="&lt;b&gt;Bước 3.2&lt;/b&gt;: Tìm thông tin cho các câu hỏi ở bước 3.1 (tự lấy hoặc lấy ở các hệ thống khác)" style="rounded=1;whiteSpace=wrap;html=1;fillColor=#fff2cc;strokeColor=#d6b656;" parent="vkOroHgNw1NVGphf10k4-7" vertex="1">
          <mxGeometry x="58" y="151" width="210" height="70" as="geometry" />
        </mxCell>
        <mxCell id="vkOroHgNw1NVGphf10k4-12" value="&lt;b&gt;Bước 3.3&lt;/b&gt;: Tính ra ĐIỂM các thông tin ở bước 3.2 và ĐIỂM các thông tin bậc cao (các thông tin được suy ra từ thông tin lấy được ở bước 3.2)" style="rounded=1;whiteSpace=wrap;html=1;fillColor=#fff2cc;strokeColor=#d6b656;" parent="vkOroHgNw1NVGphf10k4-7" vertex="1">
          <mxGeometry x="58" y="256" width="210" height="70" as="geometry" />
        </mxCell>
        <mxCell id="zRtDAFi21jf2ocaFfOss-4" value="luồng thường: Model App thực hiện" style="shape=callout;whiteSpace=wrap;html=1;perimeter=calloutPerimeter;fillColor=#fff2cc;strokeColor=#d6b656;position2=0.14;fontColor=#FF0A0A;fontStyle=2" parent="vkOroHgNw1NVGphf10k4-7" vertex="1">
          <mxGeometry x="252" y="-9" width="120" height="64" as="geometry" />
        </mxCell>
        <mxCell id="zRtDAFi21jf2ocaFfOss-5" value="luồng thường: Model App thực hiện" style="shape=callout;whiteSpace=wrap;html=1;perimeter=calloutPerimeter;fillColor=#fff2cc;strokeColor=#d6b656;position2=0.14;fontColor=#FF0A0A;fontStyle=2" parent="vkOroHgNw1NVGphf10k4-7" vertex="1">
          <mxGeometry x="252" y="111" width="120" height="64" as="geometry" />
        </mxCell>
        <mxCell id="zRtDAFi21jf2ocaFfOss-6" value="" style="shape=image;html=1;verticalLabelPosition=bottom;verticalAlign=top;imageAspect=0;image=img/clipart/Gear_128x128.png" parent="vkOroHgNw1NVGphf10k4-7" vertex="1">
          <mxGeometry x="46" y="234" width="26.67" height="32" as="geometry" />
        </mxCell>
        <mxCell id="vkOroHgNw1NVGphf10k4-14" style="edgeStyle=orthogonalEdgeStyle;rounded=0;orthogonalLoop=1;jettySize=auto;html=1;exitX=1;exitY=0.25;exitDx=0;exitDy=0;entryX=0;entryY=0.5;entryDx=0;entryDy=0;" parent="vkOroHgNw1NVGphf10k4-1" source="vkOroHgNw1NVGphf10k4-16" target="vkOroHgNw1NVGphf10k4-20" edge="1">
          <mxGeometry relative="1" as="geometry" />
        </mxCell>
        <mxCell id="vkOroHgNw1NVGphf10k4-15" value="mapping" style="edgeLabel;html=1;align=center;verticalAlign=middle;resizable=0;points=[];" parent="vkOroHgNw1NVGphf10k4-14" vertex="1" connectable="0">
          <mxGeometry x="-0.2751" y="3" relative="1" as="geometry">
            <mxPoint x="8" y="-8" as="offset" />
          </mxGeometry>
        </mxCell>
        <mxCell id="vkOroHgNw1NVGphf10k4-16" value="Bước 4" style="swimlane;whiteSpace=wrap;html=1;fillColor=#dae8fc;strokeColor=#6c8ebf;" parent="vkOroHgNw1NVGphf10k4-1" vertex="1">
          <mxGeometry x="804" y="69" width="326" height="356" as="geometry" />
        </mxCell>
        <mxCell id="vkOroHgNw1NVGphf10k4-17" style="edgeStyle=orthogonalEdgeStyle;rounded=0;orthogonalLoop=1;jettySize=auto;html=1;exitX=0.5;exitY=1;exitDx=0;exitDy=0;entryX=0.5;entryY=0;entryDx=0;entryDy=0;" parent="vkOroHgNw1NVGphf10k4-16" source="vkOroHgNw1NVGphf10k4-18" target="vkOroHgNw1NVGphf10k4-19" edge="1">
          <mxGeometry relative="1" as="geometry" />
        </mxCell>
        <mxCell id="vkOroHgNw1NVGphf10k4-18" value="&lt;b&gt;Bước 4.1:&lt;/b&gt; Nhóm các điểm tính ở Bước 3 thành các nhóm đã định nghĩa theo model. Ví dụ CIC, Cá nhân, Casa v..v" style="rounded=1;whiteSpace=wrap;html=1;fillColor=#dae8fc;strokeColor=#6c8ebf;" parent="vkOroHgNw1NVGphf10k4-16" vertex="1">
          <mxGeometry x="58" y="43" width="210" height="70" as="geometry" />
        </mxCell>
        <mxCell id="vkOroHgNw1NVGphf10k4-19" value="&lt;b&gt;Bước 4.2&lt;/b&gt;: Tính Final Score dựa vào điểm ở bước &lt;b&gt;4.1&lt;/b&gt;" style="rounded=1;whiteSpace=wrap;html=1;fillColor=#dae8fc;strokeColor=#6c8ebf;" parent="vkOroHgNw1NVGphf10k4-16" vertex="1">
          <mxGeometry x="58" y="151" width="210" height="70" as="geometry" />
        </mxCell>
        <mxCell id="vkOroHgNw1NVGphf10k4-20" value="&lt;b&gt;Bước 5&lt;/b&gt;: Căn cứ vào final Score ở Bước 4 để trả ra thông tin xếp hạng" style="rounded=1;whiteSpace=wrap;html=1;fillColor=#d5e8d4;strokeColor=#82b366;" parent="vkOroHgNw1NVGphf10k4-1" vertex="1">
          <mxGeometry x="1223" y="123" width="210" height="70" as="geometry" />
        </mxCell>
        <mxCell id="zRtDAFi21jf2ocaFfOss-2" value="&lt;span style=&quot;&quot;&gt;Hiện tại việc tính ra thông tin bậc cao&lt;br&gt;đang có 3 mức (level).&lt;/span&gt;&lt;div style=&quot;&quot;&gt;Nếu thông tin ở bước 3.2 coi là level1&amp;nbsp;&lt;div&gt;- level 2 = cal(level1)&lt;/div&gt;&lt;div&gt;- level 3 = cal(x.level1 + y.level2)&lt;/div&gt;&lt;/div&gt;" style="shape=note;whiteSpace=wrap;html=1;backgroundOutline=1;darkOpacity=0.05;fillColor=#fff2cc;strokeColor=#d6b656;align=left;fontColor=#FF0A0A;" parent="vkOroHgNw1NVGphf10k4-1" vertex="1">
          <mxGeometry x="138" y="380" width="242" height="105" as="geometry" />
        </mxCell>
        <mxCell id="vkOroHgNw1NVGphf10k4-21" value="" style="endArrow=classic;html=1;rounded=0;entryX=0;entryY=0.5;entryDx=0;entryDy=0;dashed=1;strokeColor=#FF0A0A;exitX=0;exitY=0;exitDx=224;exitDy=67.5;exitPerimeter=0;" parent="vkOroHgNw1NVGphf10k4-1" source="zRtDAFi21jf2ocaFfOss-2" target="vkOroHgNw1NVGphf10k4-12" edge="1">
          <mxGeometry width="50" height="50" relative="1" as="geometry">
            <mxPoint x="361" y="389" as="sourcePoint" />
            <mxPoint x="682" y="413" as="targetPoint" />
          </mxGeometry>
        </mxCell>
        <mxCell id="zRtDAFi21jf2ocaFfOss-3" value="luồng thường: Model App thực hiện" style="shape=callout;whiteSpace=wrap;html=1;perimeter=calloutPerimeter;fillColor=#fff2cc;strokeColor=#d6b656;position2=0.14;fontColor=#FF0A0A;fontStyle=2" parent="vkOroHgNw1NVGphf10k4-1" vertex="1">
          <mxGeometry x="249" y="155" width="120" height="64" as="geometry" />
        </mxCell>
        <mxCell id="vkOroHgNw1NVGphf10k4-23" value="" style="endArrow=none;dashed=1;html=1;rounded=0;entryX=0.5;entryY=1;entryDx=0;entryDy=0;exitX=0.5;exitY=0;exitDx=0;exitDy=0;strokeColor=#e81111;" parent="1" source="vkOroHgNw1NVGphf10k4-1" target="OSNXFccXmbC_XitdNzZT-11" edge="1">
          <mxGeometry width="50" height="50" relative="1" as="geometry">
            <mxPoint x="405" y="351" as="sourcePoint" />
            <mxPoint x="455" y="301" as="targetPoint" />
          </mxGeometry>
        </mxCell>
        <mxCell id="vkOroHgNw1NVGphf10k4-24" value="details" style="edgeLabel;html=1;align=center;verticalAlign=middle;resizable=0;points=[];" parent="vkOroHgNw1NVGphf10k4-23" vertex="1" connectable="0">
          <mxGeometry x="0.0722" relative="1" as="geometry">
            <mxPoint x="21" y="14" as="offset" />
          </mxGeometry>
        </mxCell>
        <mxCell id="zRtDAFi21jf2ocaFfOss-7" value="" style="shape=image;html=1;verticalLabelPosition=bottom;verticalAlign=top;imageAspect=0;image=img/clipart/Gear_128x128.png" parent="1" vertex="1">
          <mxGeometry x="356" y="612" width="26.67" height="32" as="geometry" />
        </mxCell>
        <mxCell id="zRtDAFi21jf2ocaFfOss-8" value="" style="shape=image;html=1;verticalLabelPosition=bottom;verticalAlign=top;imageAspect=0;image=img/clipart/Gear_128x128.png" parent="1" vertex="1">
          <mxGeometry x="777" y="506" width="26.67" height="32" as="geometry" />
        </mxCell>
        <mxCell id="zRtDAFi21jf2ocaFfOss-9" value="" style="shape=image;html=1;verticalLabelPosition=bottom;verticalAlign=top;imageAspect=0;image=img/clipart/Gear_128x128.png" parent="1" vertex="1">
          <mxGeometry x="779" y="615" width="26.67" height="32" as="geometry" />
        </mxCell>
        <mxCell id="zRtDAFi21jf2ocaFfOss-10" value="" style="shape=image;html=1;verticalLabelPosition=bottom;verticalAlign=top;imageAspect=0;image=img/clipart/Gear_128x128.png" parent="1" vertex="1">
          <mxGeometry x="1141" y="519" width="26.67" height="32" as="geometry" />
        </mxCell>
      </root>
    </mxGraphModel>
  </diagram>
  <diagram name="Design_DB_v1" id="w74wa85S4fxPYld1iUDE">
    <mxGraphModel dx="3341" dy="1549" grid="0" gridSize="10" guides="1" tooltips="1" connect="1" arrows="1" fold="1" page="0" pageScale="1" pageWidth="827" pageHeight="1169" math="0" shadow="0">
      <root>
        <mxCell id="0" />
        <mxCell id="1" parent="0" />
        <mxCell id="QOcwcPCw30z2JYGVoREg-6" value="" style="group" parent="1" vertex="1" connectable="0">
          <mxGeometry x="154" y="-253" width="406" height="160" as="geometry" />
        </mxCell>
        <mxCell id="QOcwcPCw30z2JYGVoREg-3" value="&lt;p style=&quot;margin: 0px; margin-top: 4px; text-align: center; text-decoration: underline;&quot;&gt;&lt;b&gt;CRITERIA_SCORING&lt;/b&gt;&lt;/p&gt;&lt;hr&gt;&lt;p style=&quot;margin: 0px; margin-left: 8px;&quot;&gt;&lt;b&gt;creteria_id&lt;/b&gt;: id của tiêu chí&lt;/p&gt;&lt;p style=&quot;margin: 0px; margin-left: 8px;&quot;&gt;&lt;b&gt;&lt;span style=&quot;background-color: initial;&quot;&gt;creteria_&lt;/span&gt;code&lt;/b&gt;: mã code tiêu chí&lt;b&gt;&lt;/b&gt;&lt;/p&gt;&lt;p style=&quot;margin: 0px; margin-left: 8px;&quot;&gt;&lt;b&gt;type&lt;/b&gt;: simple/complex&lt;/p&gt;&lt;p style=&quot;margin: 0px; margin-left: 8px;&quot;&gt;&lt;b&gt;label&lt;/b&gt;: nhãn của tiêu chí&amp;nbsp;&lt;/p&gt;&lt;p style=&quot;margin: 0px; margin-left: 8px;&quot;&gt;&lt;b&gt;description&lt;/b&gt;: miêu tả chi tiết&lt;/p&gt;&lt;p style=&quot;margin: 0px; margin-left: 8px;&quot;&gt;&lt;b&gt;value&lt;/b&gt;: danh sách giá trị hợp lệ&lt;/p&gt;&lt;p style=&quot;margin: 0px; margin-left: 8px;&quot;&gt;&lt;b&gt;is_active&lt;/b&gt;: còn hiệu lực hay không&lt;/p&gt;" style="verticalAlign=top;align=left;overflow=fill;fontSize=12;fontFamily=Helvetica;html=1;strokeColor=#9673a6;shadow=1;fillColor=#e1d5e7;" parent="QOcwcPCw30z2JYGVoREg-6" vertex="1">
          <mxGeometry width="186" height="160" as="geometry" />
        </mxCell>
        <mxCell id="QOcwcPCw30z2JYGVoREg-5" value="&lt;span style=&quot;text-align: left;&quot;&gt;Bảng lưu tất cả thông tin các tiêu chí đầu vào cho model.&lt;/span&gt;" style="rounded=1;whiteSpace=wrap;html=1;fillColor=#fff2cc;strokeColor=#d6b656;fontFamily=Courier New;fontStyle=2;spacing=5;" parent="QOcwcPCw30z2JYGVoREg-6" vertex="1">
          <mxGeometry x="220" width="186" height="92" as="geometry" />
        </mxCell>
        <mxCell id="QOcwcPCw30z2JYGVoREg-7" value="" style="group;align=left;" parent="1" vertex="1" connectable="0">
          <mxGeometry x="156" y="-37" width="406" height="160" as="geometry" />
        </mxCell>
        <mxCell id="QOcwcPCw30z2JYGVoREg-8" value="&lt;p style=&quot;margin: 0px; margin-top: 4px; text-align: center; text-decoration: underline;&quot;&gt;&lt;b&gt;CRITERIA_RELATE&lt;/b&gt;&lt;/p&gt;&lt;hr&gt;&lt;p style=&quot;margin: 0px; margin-left: 8px;&quot;&gt;&lt;b&gt;creteria_id&lt;/b&gt;: id của tiêu chí&lt;/p&gt;&lt;p style=&quot;margin: 0px; margin-left: 8px;&quot;&gt;&lt;b&gt;sub_creteria_id&lt;/b&gt;: id của tiêu chí&amp;nbsp;&lt;/p&gt;&lt;p style=&quot;margin: 0px; margin-left: 8px;&quot;&gt;bị phụ thuộc&lt;/p&gt;&lt;p style=&quot;margin: 0px; margin-left: 8px;&quot;&gt;&lt;b&gt;is_active&lt;/b&gt;: cho biết sự phụ thuộc&amp;nbsp;&lt;/p&gt;&lt;p style=&quot;margin: 0px; margin-left: 8px;&quot;&gt;còn hiệu lực hay không&lt;/p&gt;" style="verticalAlign=top;align=left;overflow=fill;fontSize=12;fontFamily=Helvetica;html=1;strokeColor=#9673a6;shadow=1;fillColor=#e1d5e7;" parent="QOcwcPCw30z2JYGVoREg-7" vertex="1">
          <mxGeometry width="186" height="160" as="geometry" />
        </mxCell>
        <mxCell id="QOcwcPCw30z2JYGVoREg-9" value="&lt;span style=&quot;&quot;&gt;Bảng lưu quan hệ của các criteria, cho biết tiêu chí ghép (complex) được cấu thành bởi các tiêu chí nào.&lt;/span&gt;&lt;div&gt;Lưu ý: nếu 1 tiêu chí phụ thuộc vào nhiều tiêu chí khác thì sẽ là nhiều bản ghi&lt;br&gt;&lt;div style=&quot;&quot;&gt;&lt;br&gt;&lt;/div&gt;&lt;/div&gt;" style="rounded=1;whiteSpace=wrap;html=1;fillColor=#fff2cc;strokeColor=#d6b656;fontFamily=Courier New;fontStyle=2;align=left;spacing=5;" parent="QOcwcPCw30z2JYGVoREg-7" vertex="1">
          <mxGeometry x="220" width="186" height="160" as="geometry" />
        </mxCell>
        <mxCell id="QOcwcPCw30z2JYGVoREg-11" value="" style="group" parent="1" vertex="1" connectable="0">
          <mxGeometry x="-407" y="-252" width="394" height="160" as="geometry" />
        </mxCell>
        <mxCell id="bxKsVqv6RDsOJirDT3P8-1" value="&lt;p style=&quot;margin: 0px; margin-top: 4px; text-align: center; text-decoration: underline;&quot;&gt;&lt;strong&gt;INPUT_MODEL_PROCESS&lt;/strong&gt;&lt;/p&gt;&lt;hr&gt;&lt;p style=&quot;margin: 0px; margin-left: 8px;&quot;&gt;&lt;b&gt;process_id&lt;/b&gt;:&amp;nbsp; id của hồ sơ&lt;/p&gt;" style="verticalAlign=top;align=left;overflow=fill;fontSize=12;fontFamily=Helvetica;html=1;strokeColor=#003366;shadow=1;fillColor=#D4E1F5;fontColor=#003366" parent="QOcwcPCw30z2JYGVoREg-11" vertex="1">
          <mxGeometry width="172" height="160" as="geometry" />
        </mxCell>
        <mxCell id="QOcwcPCw30z2JYGVoREg-2" value="&lt;span style=&quot;text-align: left;&quot;&gt;Lưu các thông tin của hồ sơ khi bắt đầu được truyền vào Step Model (XHTD)&lt;/span&gt;" style="rounded=1;whiteSpace=wrap;html=1;fillColor=#fff2cc;strokeColor=#d6b656;fontFamily=Courier New;fontStyle=2;spacing=5;" parent="QOcwcPCw30z2JYGVoREg-11" vertex="1">
          <mxGeometry x="208" width="186" height="92" as="geometry" />
        </mxCell>
        <mxCell id="QOcwcPCw30z2JYGVoREg-12" value="" style="group;align=left;" parent="1" vertex="1" connectable="0">
          <mxGeometry x="-408" y="-31" width="406" height="160" as="geometry" />
        </mxCell>
        <mxCell id="QOcwcPCw30z2JYGVoREg-13" value="&lt;p style=&quot;margin: 0px; margin-top: 4px; text-align: center; text-decoration: underline;&quot;&gt;&lt;b&gt;OUTPUT_MODEL_PROCESS&lt;/b&gt;&lt;/p&gt;&lt;hr&gt;&lt;p style=&quot;margin: 0px; margin-left: 8px;&quot;&gt;&lt;b&gt;process_id&lt;/b&gt;: id của hồ sơ&lt;/p&gt;&lt;p style=&quot;margin: 0px; margin-left: 8px;&quot;&gt;&lt;b&gt;flow_type&lt;/b&gt;: auto/manual&lt;/p&gt;&lt;p style=&quot;margin: 0px; margin-left: 8px;&quot;&gt;&lt;b&gt;user_process&lt;/b&gt;: người thực hiện&amp;nbsp;&lt;/p&gt;&lt;p style=&quot;margin: 0px; margin-left: 8px;&quot;&gt;nếu là luồng manual&lt;/p&gt;&lt;p style=&quot;margin: 0px; margin-left: 8px;&quot;&gt;&lt;b&gt;status:&amp;nbsp;&lt;/b&gt;Trạng thái&lt;/p&gt;&lt;p style=&quot;margin: 0px; margin-left: 8px;&quot;&gt;&lt;b&gt;final_score: &lt;/b&gt;Điểm xếp hạng hs&lt;/p&gt;&lt;p style=&quot;margin: 0px; margin-left: 8px;&quot;&gt;&lt;b&gt;final_rank&lt;/b&gt;: Xếp hạng hs&lt;/p&gt;&lt;p style=&quot;margin: 0px; margin-left: 8px;&quot;&gt;&lt;br&gt;&lt;/p&gt;&lt;p style=&quot;margin: 0px; margin-left: 8px;&quot;&gt;&lt;br&gt;&lt;/p&gt;" style="verticalAlign=top;align=left;overflow=fill;fontSize=12;fontFamily=Helvetica;html=1;strokeColor=#003366;shadow=1;fillColor=#D4E1F5;fontColor=#003366" parent="QOcwcPCw30z2JYGVoREg-12" vertex="1">
          <mxGeometry width="186" height="160" as="geometry" />
        </mxCell>
        <mxCell id="QOcwcPCw30z2JYGVoREg-14" value="&lt;span style=&quot;&quot;&gt;Bảng (master) lưu thông tin kết quả của hồ sơ&lt;/span&gt;&lt;div&gt;&lt;div style=&quot;&quot;&gt;&lt;br&gt;&lt;/div&gt;&lt;/div&gt;" style="rounded=1;whiteSpace=wrap;html=1;fillColor=#fff2cc;strokeColor=#d6b656;fontFamily=Courier New;fontStyle=2;align=left;spacing=5;" parent="QOcwcPCw30z2JYGVoREg-12" vertex="1">
          <mxGeometry x="220" width="186" height="160" as="geometry" />
        </mxCell>
        <mxCell id="QOcwcPCw30z2JYGVoREg-15" value="" style="group;align=left;" parent="1" vertex="1" connectable="0">
          <mxGeometry x="-408" y="193" width="406" height="160" as="geometry" />
        </mxCell>
        <mxCell id="QOcwcPCw30z2JYGVoREg-16" value="&lt;p style=&quot;margin: 0px; margin-top: 4px; text-align: center; text-decoration: underline;&quot;&gt;&lt;b&gt;OUTPUT_MODEL_DETAILS&lt;/b&gt;&lt;/p&gt;&lt;hr&gt;&lt;p style=&quot;margin: 0px; margin-left: 8px;&quot;&gt;&lt;b&gt;process_id&lt;/b&gt;: id của hồ sơ&lt;/p&gt;&lt;p style=&quot;margin: 0px; margin-left: 8px;&quot;&gt;&lt;b&gt;type&lt;/b&gt;: loại bước trong luồng xhtd&lt;/p&gt;&lt;p style=&quot;margin: 0px; margin-left: 8px;&quot;&gt;&lt;b&gt;type_detail: &lt;/b&gt;chi tiết bước trong&amp;nbsp;&lt;/p&gt;&lt;p style=&quot;margin: 0px; margin-left: 8px;&quot;&gt;loại bước.&lt;/p&gt;&lt;p style=&quot;margin: 0px; margin-left: 8px;&quot;&gt;&lt;b&gt;reference_id&lt;/b&gt;: id của trường được&amp;nbsp;&lt;/p&gt;&lt;p style=&quot;margin: 0px; margin-left: 8px;&quot;&gt;tham chiếu đến&lt;/p&gt;&lt;p style=&quot;margin: 0px; margin-left: 8px;&quot;&gt;&lt;b&gt;value&lt;/b&gt;: giá trị tính/ lấy được&lt;/p&gt;&lt;p style=&quot;margin: 0px; margin-left: 8px;&quot;&gt;&lt;br&gt;&lt;/p&gt;" style="verticalAlign=top;align=left;overflow=fill;fontSize=12;fontFamily=Helvetica;html=1;strokeColor=#003366;shadow=1;fillColor=#D4E1F5;fontColor=#003366" parent="QOcwcPCw30z2JYGVoREg-15" vertex="1">
          <mxGeometry width="186" height="160" as="geometry" />
        </mxCell>
        <mxCell id="QOcwcPCw30z2JYGVoREg-17" value="&lt;span style=&quot;&quot;&gt;Bảng (details) lưu thông tin chi tiết kết quả từng bước của hồ sơ&lt;/span&gt;&lt;div&gt;&lt;div style=&quot;&quot;&gt;&lt;br&gt;&lt;/div&gt;&lt;/div&gt;" style="rounded=1;whiteSpace=wrap;html=1;fillColor=#fff2cc;strokeColor=#d6b656;fontFamily=Courier New;fontStyle=2;align=left;spacing=5;" parent="QOcwcPCw30z2JYGVoREg-15" vertex="1">
          <mxGeometry x="220" width="186" height="160" as="geometry" />
        </mxCell>
        <mxCell id="QOcwcPCw30z2JYGVoREg-18" value="" style="group;align=left;" parent="1" vertex="1" connectable="0">
          <mxGeometry x="157" y="186" width="406" height="160" as="geometry" />
        </mxCell>
        <mxCell id="QOcwcPCw30z2JYGVoREg-19" value="&lt;p style=&quot;margin: 0px; margin-top: 4px; text-align: center; text-decoration: underline;&quot;&gt;&lt;b&gt;MAPPING_RANK&lt;/b&gt;&lt;/p&gt;&lt;hr&gt;&lt;p style=&quot;margin: 0px; margin-left: 8px;&quot;&gt;&lt;b&gt;mapping_id: &lt;/b&gt;ID auto_increment&lt;/p&gt;&lt;p style=&quot;margin: 0px; margin-left: 8px;&quot;&gt;&lt;b&gt;min_score: &lt;/b&gt;cận dưới của score&lt;/p&gt;&lt;p style=&quot;margin: 0px; margin-left: 8px;&quot;&gt;&lt;b&gt;max_score:&amp;nbsp;&lt;/b&gt;&lt;span style=&quot;background-color: initial;&quot;&gt;cận trên của score&lt;/span&gt;&lt;/p&gt;&lt;p style=&quot;margin: 0px; margin-left: 8px;&quot;&gt;&lt;b&gt;rank: &lt;/b&gt;rank quy đổi&lt;/p&gt;" style="verticalAlign=top;align=left;overflow=fill;fontSize=12;fontFamily=Helvetica;html=1;strokeColor=#9673a6;shadow=1;fillColor=#e1d5e7;" parent="QOcwcPCw30z2JYGVoREg-18" vertex="1">
          <mxGeometry width="186" height="160" as="geometry" />
        </mxCell>
        <mxCell id="QOcwcPCw30z2JYGVoREg-20" value="&lt;span style=&quot;&quot;&gt;Bảng lưu mapping giữa final Score với xếp hạng của hồ sơ&lt;/span&gt;&lt;div&gt;&lt;div style=&quot;&quot;&gt;&lt;br&gt;&lt;/div&gt;&lt;/div&gt;" style="rounded=1;whiteSpace=wrap;html=1;fillColor=#fff2cc;strokeColor=#d6b656;fontFamily=Courier New;fontStyle=2;align=left;spacing=5;" parent="QOcwcPCw30z2JYGVoREg-18" vertex="1">
          <mxGeometry x="220" width="186" height="160" as="geometry" />
        </mxCell>
        <mxCell id="QOcwcPCw30z2JYGVoREg-21" value="" style="rounded=0;whiteSpace=wrap;html=1;fillColor=#dae8fc;strokeColor=#6c8ebf;" parent="1" vertex="1">
          <mxGeometry x="-408" y="-386" width="60" height="25" as="geometry" />
        </mxCell>
        <mxCell id="QOcwcPCw30z2JYGVoREg-22" value="" style="rounded=0;whiteSpace=wrap;html=1;fillColor=#e1d5e7;strokeColor=#9673a6;" parent="1" vertex="1">
          <mxGeometry x="-408" y="-345" width="60" height="25" as="geometry" />
        </mxCell>
        <mxCell id="QOcwcPCw30z2JYGVoREg-23" value="Bảng lưu trữ nghiệp vụ" style="text;html=1;align=left;verticalAlign=middle;whiteSpace=wrap;rounded=0;" parent="1" vertex="1">
          <mxGeometry x="-340" y="-388.5" width="141" height="30" as="geometry" />
        </mxCell>
        <mxCell id="QOcwcPCw30z2JYGVoREg-24" value="Bảng tham số/ danh mục" style="text;html=1;align=left;verticalAlign=middle;whiteSpace=wrap;rounded=0;" parent="1" vertex="1">
          <mxGeometry x="-340" y="-347.5" width="141" height="30" as="geometry" />
        </mxCell>
        <mxCell id="QOcwcPCw30z2JYGVoREg-25" value="2" style="childLayout=tableLayout;recursiveResize=0;strokeColor=#82b366;fillColor=#d5e8d4;shadow=1;gradientDirection=north;" parent="1" vertex="1">
          <mxGeometry x="-914" y="193" width="466" height="253" as="geometry" />
        </mxCell>
        <mxCell id="QOcwcPCw30z2JYGVoREg-26" style="shape=tableRow;horizontal=0;startSize=0;swimlaneHead=0;swimlaneBody=0;top=0;left=0;bottom=0;right=0;dropTarget=0;collapsible=0;recursiveResize=0;expand=0;fontStyle=0;strokeColor=inherit;fillColor=#ffffff;" parent="QOcwcPCw30z2JYGVoREg-25" vertex="1">
          <mxGeometry width="466" height="33" as="geometry" />
        </mxCell>
        <mxCell id="QOcwcPCw30z2JYGVoREg-27" value="process_id" style="connectable=0;recursiveResize=0;strokeColor=inherit;fillColor=#A7C942;align=center;fontStyle=1;fontColor=#FFFFFF;html=1;" parent="QOcwcPCw30z2JYGVoREg-26" vertex="1">
          <mxGeometry width="93" height="33" as="geometry">
            <mxRectangle width="93" height="33" as="alternateBounds" />
          </mxGeometry>
        </mxCell>
        <mxCell id="QOcwcPCw30z2JYGVoREg-28" value="type" style="connectable=0;recursiveResize=0;strokeColor=inherit;fillColor=#A7C942;align=center;fontStyle=1;fontColor=#FFFFFF;html=1;" parent="QOcwcPCw30z2JYGVoREg-26" vertex="1">
          <mxGeometry x="93" width="94" height="33" as="geometry">
            <mxRectangle width="94" height="33" as="alternateBounds" />
          </mxGeometry>
        </mxCell>
        <mxCell id="QOcwcPCw30z2JYGVoREg-29" value="type_detail" style="connectable=0;recursiveResize=0;strokeColor=inherit;fillColor=#A7C942;align=center;fontStyle=1;fontColor=#FFFFFF;html=1;" parent="QOcwcPCw30z2JYGVoREg-26" vertex="1">
          <mxGeometry x="187" width="93" height="33" as="geometry">
            <mxRectangle width="93" height="33" as="alternateBounds" />
          </mxGeometry>
        </mxCell>
        <mxCell id="QOcwcPCw30z2JYGVoREg-105" value="reference_id" style="connectable=0;recursiveResize=0;strokeColor=inherit;fillColor=#A7C942;align=center;fontStyle=1;fontColor=#FFFFFF;html=1;" parent="QOcwcPCw30z2JYGVoREg-26" vertex="1">
          <mxGeometry x="280" width="93" height="33" as="geometry">
            <mxRectangle width="93" height="33" as="alternateBounds" />
          </mxGeometry>
        </mxCell>
        <mxCell id="QOcwcPCw30z2JYGVoREg-110" value="value" style="connectable=0;recursiveResize=0;strokeColor=inherit;fillColor=#A7C942;align=center;fontStyle=1;fontColor=#FFFFFF;html=1;" parent="QOcwcPCw30z2JYGVoREg-26" vertex="1">
          <mxGeometry x="373" width="93" height="33" as="geometry">
            <mxRectangle width="93" height="33" as="alternateBounds" />
          </mxGeometry>
        </mxCell>
        <mxCell id="QOcwcPCw30z2JYGVoREg-30" value="" style="shape=tableRow;horizontal=0;startSize=0;swimlaneHead=0;swimlaneBody=0;top=0;left=0;bottom=0;right=0;dropTarget=0;collapsible=0;recursiveResize=0;expand=0;fontStyle=0;strokeColor=inherit;fillColor=#ffffff;" parent="QOcwcPCw30z2JYGVoREg-25" vertex="1">
          <mxGeometry y="33" width="466" height="32" as="geometry" />
        </mxCell>
        <mxCell id="QOcwcPCw30z2JYGVoREg-31" value="P_0001" style="connectable=0;recursiveResize=0;strokeColor=inherit;fillColor=inherit;align=center;whiteSpace=wrap;html=1;" parent="QOcwcPCw30z2JYGVoREg-30" vertex="1">
          <mxGeometry width="93" height="32" as="geometry">
            <mxRectangle width="93" height="32" as="alternateBounds" />
          </mxGeometry>
        </mxCell>
        <mxCell id="QOcwcPCw30z2JYGVoREg-32" value="RECOGNIZE" style="connectable=0;recursiveResize=0;strokeColor=inherit;fillColor=inherit;align=center;whiteSpace=wrap;html=1;" parent="QOcwcPCw30z2JYGVoREg-30" vertex="1">
          <mxGeometry x="93" width="94" height="32" as="geometry">
            <mxRectangle width="94" height="32" as="alternateBounds" />
          </mxGeometry>
        </mxCell>
        <mxCell id="QOcwcPCw30z2JYGVoREg-33" value="(null)" style="connectable=0;recursiveResize=0;strokeColor=inherit;fillColor=inherit;align=center;whiteSpace=wrap;html=1;" parent="QOcwcPCw30z2JYGVoREg-30" vertex="1">
          <mxGeometry x="187" width="93" height="32" as="geometry">
            <mxRectangle width="93" height="32" as="alternateBounds" />
          </mxGeometry>
        </mxCell>
        <mxCell id="QOcwcPCw30z2JYGVoREg-106" value="(null)" style="connectable=0;recursiveResize=0;strokeColor=inherit;fillColor=inherit;align=center;whiteSpace=wrap;html=1;" parent="QOcwcPCw30z2JYGVoREg-30" vertex="1">
          <mxGeometry x="280" width="93" height="32" as="geometry">
            <mxRectangle width="93" height="32" as="alternateBounds" />
          </mxGeometry>
        </mxCell>
        <mxCell id="QOcwcPCw30z2JYGVoREg-111" value="MH_001A" style="connectable=0;recursiveResize=0;strokeColor=inherit;fillColor=inherit;align=center;whiteSpace=wrap;html=1;" parent="QOcwcPCw30z2JYGVoREg-30" vertex="1">
          <mxGeometry x="373" width="93" height="32" as="geometry">
            <mxRectangle width="93" height="32" as="alternateBounds" />
          </mxGeometry>
        </mxCell>
        <mxCell id="QOcwcPCw30z2JYGVoREg-34" value="" style="shape=tableRow;horizontal=0;startSize=0;swimlaneHead=0;swimlaneBody=0;top=0;left=0;bottom=0;right=0;dropTarget=0;collapsible=0;recursiveResize=0;expand=0;fontStyle=1;strokeColor=inherit;fillColor=#EAF2D3;" parent="QOcwcPCw30z2JYGVoREg-25" vertex="1">
          <mxGeometry y="65" width="466" height="31" as="geometry" />
        </mxCell>
        <mxCell id="QOcwcPCw30z2JYGVoREg-35" value="P_0001" style="connectable=0;recursiveResize=0;strokeColor=inherit;fillColor=inherit;whiteSpace=wrap;html=1;" parent="QOcwcPCw30z2JYGVoREg-34" vertex="1">
          <mxGeometry width="93" height="31" as="geometry">
            <mxRectangle width="93" height="31" as="alternateBounds" />
          </mxGeometry>
        </mxCell>
        <mxCell id="QOcwcPCw30z2JYGVoREg-36" value="COLLECT" style="connectable=0;recursiveResize=0;strokeColor=inherit;fillColor=inherit;whiteSpace=wrap;html=1;" parent="QOcwcPCw30z2JYGVoREg-34" vertex="1">
          <mxGeometry x="93" width="94" height="31" as="geometry">
            <mxRectangle width="94" height="31" as="alternateBounds" />
          </mxGeometry>
        </mxCell>
        <mxCell id="QOcwcPCw30z2JYGVoREg-37" value="GET_INFO" style="connectable=0;recursiveResize=0;strokeColor=inherit;fillColor=inherit;whiteSpace=wrap;html=1;" parent="QOcwcPCw30z2JYGVoREg-34" vertex="1">
          <mxGeometry x="187" width="93" height="31" as="geometry">
            <mxRectangle width="93" height="31" as="alternateBounds" />
          </mxGeometry>
        </mxCell>
        <mxCell id="QOcwcPCw30z2JYGVoREg-107" value="1" style="connectable=0;recursiveResize=0;strokeColor=inherit;fillColor=inherit;whiteSpace=wrap;html=1;" parent="QOcwcPCw30z2JYGVoREg-34" vertex="1">
          <mxGeometry x="280" width="93" height="31" as="geometry">
            <mxRectangle width="93" height="31" as="alternateBounds" />
          </mxGeometry>
        </mxCell>
        <mxCell id="QOcwcPCw30z2JYGVoREg-112" value="20,000,000" style="connectable=0;recursiveResize=0;strokeColor=inherit;fillColor=inherit;whiteSpace=wrap;html=1;" parent="QOcwcPCw30z2JYGVoREg-34" vertex="1">
          <mxGeometry x="373" width="93" height="31" as="geometry">
            <mxRectangle width="93" height="31" as="alternateBounds" />
          </mxGeometry>
        </mxCell>
        <mxCell id="QOcwcPCw30z2JYGVoREg-38" value="" style="shape=tableRow;horizontal=0;startSize=0;swimlaneHead=0;swimlaneBody=0;top=0;left=0;bottom=0;right=0;dropTarget=0;collapsible=0;recursiveResize=0;expand=0;fontStyle=0;strokeColor=inherit;fillColor=#ffffff;" parent="QOcwcPCw30z2JYGVoREg-25" vertex="1">
          <mxGeometry y="96" width="466" height="33" as="geometry" />
        </mxCell>
        <mxCell id="QOcwcPCw30z2JYGVoREg-39" value="P_0001" style="connectable=0;recursiveResize=0;strokeColor=inherit;fillColor=inherit;fontStyle=0;align=center;whiteSpace=wrap;html=1;" parent="QOcwcPCw30z2JYGVoREg-38" vertex="1">
          <mxGeometry width="93" height="33" as="geometry">
            <mxRectangle width="93" height="33" as="alternateBounds" />
          </mxGeometry>
        </mxCell>
        <mxCell id="QOcwcPCw30z2JYGVoREg-40" value="COLLECT" style="connectable=0;recursiveResize=0;strokeColor=inherit;fillColor=inherit;fontStyle=0;align=center;whiteSpace=wrap;html=1;" parent="QOcwcPCw30z2JYGVoREg-38" vertex="1">
          <mxGeometry x="93" width="94" height="33" as="geometry">
            <mxRectangle width="94" height="33" as="alternateBounds" />
          </mxGeometry>
        </mxCell>
        <mxCell id="QOcwcPCw30z2JYGVoREg-41" value="CALCULATE" style="connectable=0;recursiveResize=0;strokeColor=inherit;fillColor=inherit;fontStyle=0;align=center;whiteSpace=wrap;html=1;" parent="QOcwcPCw30z2JYGVoREg-38" vertex="1">
          <mxGeometry x="187" width="93" height="33" as="geometry">
            <mxRectangle width="93" height="33" as="alternateBounds" />
          </mxGeometry>
        </mxCell>
        <mxCell id="QOcwcPCw30z2JYGVoREg-108" value="2" style="connectable=0;recursiveResize=0;strokeColor=inherit;fillColor=inherit;fontStyle=0;align=center;whiteSpace=wrap;html=1;" parent="QOcwcPCw30z2JYGVoREg-38" vertex="1">
          <mxGeometry x="280" width="93" height="33" as="geometry">
            <mxRectangle width="93" height="33" as="alternateBounds" />
          </mxGeometry>
        </mxCell>
        <mxCell id="QOcwcPCw30z2JYGVoREg-113" value="5,000,000,000" style="connectable=0;recursiveResize=0;strokeColor=inherit;fillColor=inherit;fontStyle=0;align=center;whiteSpace=wrap;html=1;" parent="QOcwcPCw30z2JYGVoREg-38" vertex="1">
          <mxGeometry x="373" width="93" height="33" as="geometry">
            <mxRectangle width="93" height="33" as="alternateBounds" />
          </mxGeometry>
        </mxCell>
        <mxCell id="QOcwcPCw30z2JYGVoREg-42" value="" style="shape=tableRow;horizontal=0;startSize=0;swimlaneHead=0;swimlaneBody=0;top=0;left=0;bottom=0;right=0;dropTarget=0;collapsible=0;recursiveResize=0;expand=0;fontStyle=1;strokeColor=inherit;fillColor=#EAF2D3;" parent="QOcwcPCw30z2JYGVoREg-25" vertex="1">
          <mxGeometry y="129" width="466" height="31" as="geometry" />
        </mxCell>
        <mxCell id="QOcwcPCw30z2JYGVoREg-43" value="P_0001" style="connectable=0;recursiveResize=0;strokeColor=inherit;fillColor=inherit;whiteSpace=wrap;html=1;" parent="QOcwcPCw30z2JYGVoREg-42" vertex="1">
          <mxGeometry width="93" height="31" as="geometry">
            <mxRectangle width="93" height="31" as="alternateBounds" />
          </mxGeometry>
        </mxCell>
        <mxCell id="QOcwcPCw30z2JYGVoREg-44" value="GROUP" style="connectable=0;recursiveResize=0;strokeColor=inherit;fillColor=inherit;whiteSpace=wrap;html=1;" parent="QOcwcPCw30z2JYGVoREg-42" vertex="1">
          <mxGeometry x="93" width="94" height="31" as="geometry">
            <mxRectangle width="94" height="31" as="alternateBounds" />
          </mxGeometry>
        </mxCell>
        <mxCell id="QOcwcPCw30z2JYGVoREg-45" value="CA_NHAN" style="connectable=0;recursiveResize=0;strokeColor=inherit;fillColor=inherit;whiteSpace=wrap;html=1;" parent="QOcwcPCw30z2JYGVoREg-42" vertex="1">
          <mxGeometry x="187" width="93" height="31" as="geometry">
            <mxRectangle width="93" height="31" as="alternateBounds" />
          </mxGeometry>
        </mxCell>
        <mxCell id="QOcwcPCw30z2JYGVoREg-109" style="connectable=0;recursiveResize=0;strokeColor=inherit;fillColor=inherit;whiteSpace=wrap;html=1;" parent="QOcwcPCw30z2JYGVoREg-42" vertex="1">
          <mxGeometry x="280" width="93" height="31" as="geometry">
            <mxRectangle width="93" height="31" as="alternateBounds" />
          </mxGeometry>
        </mxCell>
        <mxCell id="QOcwcPCw30z2JYGVoREg-114" value="111" style="connectable=0;recursiveResize=0;strokeColor=inherit;fillColor=inherit;whiteSpace=wrap;html=1;" parent="QOcwcPCw30z2JYGVoREg-42" vertex="1">
          <mxGeometry x="373" width="93" height="31" as="geometry">
            <mxRectangle width="93" height="31" as="alternateBounds" />
          </mxGeometry>
        </mxCell>
        <mxCell id="QOcwcPCw30z2JYGVoREg-144" value="" style="shape=tableRow;horizontal=0;startSize=0;swimlaneHead=0;swimlaneBody=0;top=0;left=0;bottom=0;right=0;dropTarget=0;collapsible=0;recursiveResize=0;expand=0;fontStyle=1;strokeColor=inherit;fillColor=#EAF2D3;" parent="QOcwcPCw30z2JYGVoREg-25" vertex="1">
          <mxGeometry y="160" width="466" height="31" as="geometry" />
        </mxCell>
        <mxCell id="QOcwcPCw30z2JYGVoREg-145" value="P_0001" style="connectable=0;recursiveResize=0;whiteSpace=wrap;html=1;strokeColor=inherit;" parent="QOcwcPCw30z2JYGVoREg-144" vertex="1">
          <mxGeometry width="93" height="31" as="geometry">
            <mxRectangle width="93" height="31" as="alternateBounds" />
          </mxGeometry>
        </mxCell>
        <mxCell id="QOcwcPCw30z2JYGVoREg-146" value="GROUP" style="connectable=0;recursiveResize=0;whiteSpace=wrap;html=1;strokeColor=inherit;" parent="QOcwcPCw30z2JYGVoREg-144" vertex="1">
          <mxGeometry x="93" width="94" height="31" as="geometry">
            <mxRectangle width="94" height="31" as="alternateBounds" />
          </mxGeometry>
        </mxCell>
        <mxCell id="QOcwcPCw30z2JYGVoREg-147" value="CASA" style="connectable=0;recursiveResize=0;whiteSpace=wrap;html=1;strokeColor=inherit;" parent="QOcwcPCw30z2JYGVoREg-144" vertex="1">
          <mxGeometry x="187" width="93" height="31" as="geometry">
            <mxRectangle width="93" height="31" as="alternateBounds" />
          </mxGeometry>
        </mxCell>
        <mxCell id="QOcwcPCw30z2JYGVoREg-148" style="connectable=0;recursiveResize=0;whiteSpace=wrap;html=1;strokeColor=inherit;" parent="QOcwcPCw30z2JYGVoREg-144" vertex="1">
          <mxGeometry x="280" width="93" height="31" as="geometry">
            <mxRectangle width="93" height="31" as="alternateBounds" />
          </mxGeometry>
        </mxCell>
        <mxCell id="QOcwcPCw30z2JYGVoREg-149" value="1234" style="connectable=0;recursiveResize=0;whiteSpace=wrap;html=1;strokeColor=inherit;" parent="QOcwcPCw30z2JYGVoREg-144" vertex="1">
          <mxGeometry x="373" width="93" height="31" as="geometry">
            <mxRectangle width="93" height="31" as="alternateBounds" />
          </mxGeometry>
        </mxCell>
        <mxCell id="QOcwcPCw30z2JYGVoREg-116" style="shape=tableRow;horizontal=0;startSize=0;swimlaneHead=0;swimlaneBody=0;top=0;left=0;bottom=0;right=0;dropTarget=0;collapsible=0;recursiveResize=0;expand=0;fontStyle=1;strokeColor=inherit;fillColor=#EAF2D3;" parent="QOcwcPCw30z2JYGVoREg-25" vertex="1">
          <mxGeometry y="191" width="466" height="31" as="geometry" />
        </mxCell>
        <mxCell id="QOcwcPCw30z2JYGVoREg-117" value="P_0001" style="connectable=0;recursiveResize=0;strokeColor=inherit;fillColor=inherit;whiteSpace=wrap;html=1;" parent="QOcwcPCw30z2JYGVoREg-116" vertex="1">
          <mxGeometry width="93" height="31" as="geometry">
            <mxRectangle width="93" height="31" as="alternateBounds" />
          </mxGeometry>
        </mxCell>
        <mxCell id="QOcwcPCw30z2JYGVoREg-118" value="FINAL" style="connectable=0;recursiveResize=0;strokeColor=inherit;fillColor=inherit;whiteSpace=wrap;html=1;" parent="QOcwcPCw30z2JYGVoREg-116" vertex="1">
          <mxGeometry x="93" width="94" height="31" as="geometry">
            <mxRectangle width="94" height="31" as="alternateBounds" />
          </mxGeometry>
        </mxCell>
        <mxCell id="QOcwcPCw30z2JYGVoREg-119" value="SCORE" style="connectable=0;recursiveResize=0;strokeColor=inherit;fillColor=inherit;whiteSpace=wrap;html=1;" parent="QOcwcPCw30z2JYGVoREg-116" vertex="1">
          <mxGeometry x="187" width="93" height="31" as="geometry">
            <mxRectangle width="93" height="31" as="alternateBounds" />
          </mxGeometry>
        </mxCell>
        <mxCell id="QOcwcPCw30z2JYGVoREg-120" style="connectable=0;recursiveResize=0;strokeColor=inherit;fillColor=inherit;whiteSpace=wrap;html=1;" parent="QOcwcPCw30z2JYGVoREg-116" vertex="1">
          <mxGeometry x="280" width="93" height="31" as="geometry">
            <mxRectangle width="93" height="31" as="alternateBounds" />
          </mxGeometry>
        </mxCell>
        <mxCell id="QOcwcPCw30z2JYGVoREg-121" value="9,4" style="connectable=0;recursiveResize=0;strokeColor=inherit;fillColor=inherit;whiteSpace=wrap;html=1;" parent="QOcwcPCw30z2JYGVoREg-116" vertex="1">
          <mxGeometry x="373" width="93" height="31" as="geometry">
            <mxRectangle width="93" height="31" as="alternateBounds" />
          </mxGeometry>
        </mxCell>
        <mxCell id="QOcwcPCw30z2JYGVoREg-122" style="shape=tableRow;horizontal=0;startSize=0;swimlaneHead=0;swimlaneBody=0;top=0;left=0;bottom=0;right=0;dropTarget=0;collapsible=0;recursiveResize=0;expand=0;fontStyle=1;strokeColor=inherit;fillColor=#EAF2D3;" parent="QOcwcPCw30z2JYGVoREg-25" vertex="1">
          <mxGeometry y="222" width="466" height="31" as="geometry" />
        </mxCell>
        <mxCell id="QOcwcPCw30z2JYGVoREg-123" value="P_0001" style="connectable=0;recursiveResize=0;whiteSpace=wrap;html=1;strokeColor=inherit;" parent="QOcwcPCw30z2JYGVoREg-122" vertex="1">
          <mxGeometry width="93" height="31" as="geometry">
            <mxRectangle width="93" height="31" as="alternateBounds" />
          </mxGeometry>
        </mxCell>
        <mxCell id="QOcwcPCw30z2JYGVoREg-124" value="FINAL" style="connectable=0;recursiveResize=0;whiteSpace=wrap;html=1;strokeColor=inherit;" parent="QOcwcPCw30z2JYGVoREg-122" vertex="1">
          <mxGeometry x="93" width="94" height="31" as="geometry">
            <mxRectangle width="94" height="31" as="alternateBounds" />
          </mxGeometry>
        </mxCell>
        <mxCell id="QOcwcPCw30z2JYGVoREg-125" value="RANK" style="connectable=0;recursiveResize=0;whiteSpace=wrap;html=1;strokeColor=inherit;" parent="QOcwcPCw30z2JYGVoREg-122" vertex="1">
          <mxGeometry x="187" width="93" height="31" as="geometry">
            <mxRectangle width="93" height="31" as="alternateBounds" />
          </mxGeometry>
        </mxCell>
        <mxCell id="QOcwcPCw30z2JYGVoREg-126" style="connectable=0;recursiveResize=0;whiteSpace=wrap;html=1;strokeColor=inherit;" parent="QOcwcPCw30z2JYGVoREg-122" vertex="1">
          <mxGeometry x="280" width="93" height="31" as="geometry">
            <mxRectangle width="93" height="31" as="alternateBounds" />
          </mxGeometry>
        </mxCell>
        <mxCell id="QOcwcPCw30z2JYGVoREg-127" value="AAA" style="connectable=0;recursiveResize=0;whiteSpace=wrap;html=1;strokeColor=inherit;" parent="QOcwcPCw30z2JYGVoREg-122" vertex="1">
          <mxGeometry x="373" width="93" height="31" as="geometry">
            <mxRectangle width="93" height="31" as="alternateBounds" />
          </mxGeometry>
        </mxCell>
        <mxCell id="yrNbx5NtQSebw33AjM-i-1" value="2" style="childLayout=tableLayout;recursiveResize=0;strokeColor=#98bf21;fillColor=#A7C942;shadow=1;" parent="1" vertex="1">
          <mxGeometry x="-634" y="-253" width="186" height="162" as="geometry" />
        </mxCell>
        <mxCell id="yrNbx5NtQSebw33AjM-i-2" style="shape=tableRow;horizontal=0;startSize=0;swimlaneHead=0;swimlaneBody=0;top=0;left=0;bottom=0;right=0;dropTarget=0;collapsible=0;recursiveResize=0;expand=0;fontStyle=0;strokeColor=inherit;fillColor=#ffffff;" parent="yrNbx5NtQSebw33AjM-i-1" vertex="1">
          <mxGeometry width="186" height="33" as="geometry" />
        </mxCell>
        <mxCell id="yrNbx5NtQSebw33AjM-i-3" value="process_id" style="connectable=0;recursiveResize=0;strokeColor=inherit;fillColor=#A7C942;align=center;fontStyle=1;fontColor=#FFFFFF;html=1;" parent="yrNbx5NtQSebw33AjM-i-2" vertex="1">
          <mxGeometry width="93" height="33" as="geometry">
            <mxRectangle width="93" height="33" as="alternateBounds" />
          </mxGeometry>
        </mxCell>
        <mxCell id="yrNbx5NtQSebw33AjM-i-50" value="another info ..." style="connectable=0;recursiveResize=0;strokeColor=inherit;fillColor=#A7C942;align=center;fontStyle=1;fontColor=#FFFFFF;html=1;" parent="yrNbx5NtQSebw33AjM-i-2" vertex="1">
          <mxGeometry x="93" width="93" height="33" as="geometry">
            <mxRectangle width="93" height="33" as="alternateBounds" />
          </mxGeometry>
        </mxCell>
        <mxCell id="yrNbx5NtQSebw33AjM-i-8" value="" style="shape=tableRow;horizontal=0;startSize=0;swimlaneHead=0;swimlaneBody=0;top=0;left=0;bottom=0;right=0;dropTarget=0;collapsible=0;recursiveResize=0;expand=0;fontStyle=0;strokeColor=inherit;fillColor=#ffffff;" parent="yrNbx5NtQSebw33AjM-i-1" vertex="1">
          <mxGeometry y="33" width="186" height="32" as="geometry" />
        </mxCell>
        <mxCell id="yrNbx5NtQSebw33AjM-i-9" value="P_0001" style="connectable=0;recursiveResize=0;strokeColor=inherit;fillColor=inherit;align=center;whiteSpace=wrap;html=1;" parent="yrNbx5NtQSebw33AjM-i-8" vertex="1">
          <mxGeometry width="93" height="32" as="geometry">
            <mxRectangle width="93" height="32" as="alternateBounds" />
          </mxGeometry>
        </mxCell>
        <mxCell id="yrNbx5NtQSebw33AjM-i-51" style="connectable=0;recursiveResize=0;strokeColor=inherit;fillColor=inherit;align=center;whiteSpace=wrap;html=1;" parent="yrNbx5NtQSebw33AjM-i-8" vertex="1">
          <mxGeometry x="93" width="93" height="32" as="geometry">
            <mxRectangle width="93" height="32" as="alternateBounds" />
          </mxGeometry>
        </mxCell>
        <mxCell id="yrNbx5NtQSebw33AjM-i-14" value="" style="shape=tableRow;horizontal=0;startSize=0;swimlaneHead=0;swimlaneBody=0;top=0;left=0;bottom=0;right=0;dropTarget=0;collapsible=0;recursiveResize=0;expand=0;fontStyle=1;strokeColor=inherit;fillColor=#EAF2D3;" parent="yrNbx5NtQSebw33AjM-i-1" vertex="1">
          <mxGeometry y="65" width="186" height="31" as="geometry" />
        </mxCell>
        <mxCell id="yrNbx5NtQSebw33AjM-i-15" value="P_0002" style="connectable=0;recursiveResize=0;strokeColor=inherit;fillColor=inherit;whiteSpace=wrap;html=1;" parent="yrNbx5NtQSebw33AjM-i-14" vertex="1">
          <mxGeometry width="93" height="31" as="geometry">
            <mxRectangle width="93" height="31" as="alternateBounds" />
          </mxGeometry>
        </mxCell>
        <mxCell id="yrNbx5NtQSebw33AjM-i-52" style="connectable=0;recursiveResize=0;strokeColor=inherit;fillColor=inherit;whiteSpace=wrap;html=1;" parent="yrNbx5NtQSebw33AjM-i-14" vertex="1">
          <mxGeometry x="93" width="93" height="31" as="geometry">
            <mxRectangle width="93" height="31" as="alternateBounds" />
          </mxGeometry>
        </mxCell>
        <mxCell id="yrNbx5NtQSebw33AjM-i-20" value="" style="shape=tableRow;horizontal=0;startSize=0;swimlaneHead=0;swimlaneBody=0;top=0;left=0;bottom=0;right=0;dropTarget=0;collapsible=0;recursiveResize=0;expand=0;fontStyle=0;strokeColor=inherit;fillColor=#ffffff;" parent="yrNbx5NtQSebw33AjM-i-1" vertex="1">
          <mxGeometry y="96" width="186" height="33" as="geometry" />
        </mxCell>
        <mxCell id="yrNbx5NtQSebw33AjM-i-21" value="P_0003" style="connectable=0;recursiveResize=0;strokeColor=inherit;fillColor=inherit;fontStyle=0;align=center;whiteSpace=wrap;html=1;" parent="yrNbx5NtQSebw33AjM-i-20" vertex="1">
          <mxGeometry width="93" height="33" as="geometry">
            <mxRectangle width="93" height="33" as="alternateBounds" />
          </mxGeometry>
        </mxCell>
        <mxCell id="yrNbx5NtQSebw33AjM-i-53" style="connectable=0;recursiveResize=0;strokeColor=inherit;fillColor=inherit;fontStyle=0;align=center;whiteSpace=wrap;html=1;" parent="yrNbx5NtQSebw33AjM-i-20" vertex="1">
          <mxGeometry x="93" width="93" height="33" as="geometry">
            <mxRectangle width="93" height="33" as="alternateBounds" />
          </mxGeometry>
        </mxCell>
        <mxCell id="yrNbx5NtQSebw33AjM-i-65" style="shape=tableRow;horizontal=0;startSize=0;swimlaneHead=0;swimlaneBody=0;top=0;left=0;bottom=0;right=0;dropTarget=0;collapsible=0;recursiveResize=0;expand=0;fontStyle=0;strokeColor=inherit;fillColor=#ffffff;" parent="yrNbx5NtQSebw33AjM-i-1" vertex="1">
          <mxGeometry y="129" width="186" height="33" as="geometry" />
        </mxCell>
        <mxCell id="yrNbx5NtQSebw33AjM-i-66" value="P_0004" style="connectable=0;recursiveResize=0;strokeColor=inherit;fillColor=inherit;fontStyle=0;align=center;whiteSpace=wrap;html=1;" parent="yrNbx5NtQSebw33AjM-i-65" vertex="1">
          <mxGeometry width="93" height="33" as="geometry">
            <mxRectangle width="93" height="33" as="alternateBounds" />
          </mxGeometry>
        </mxCell>
        <mxCell id="yrNbx5NtQSebw33AjM-i-67" style="connectable=0;recursiveResize=0;strokeColor=inherit;fillColor=inherit;fontStyle=0;align=center;whiteSpace=wrap;html=1;" parent="yrNbx5NtQSebw33AjM-i-65" vertex="1">
          <mxGeometry x="93" width="93" height="33" as="geometry">
            <mxRectangle width="93" height="33" as="alternateBounds" />
          </mxGeometry>
        </mxCell>
        <mxCell id="yrNbx5NtQSebw33AjM-i-68" value="Â" style="childLayout=tableLayout;recursiveResize=0;strokeColor=#98bf21;fillColor=#A7C942;shadow=1;" parent="1" vertex="1">
          <mxGeometry x="-1006" y="-31" width="558" height="162" as="geometry" />
        </mxCell>
        <mxCell id="yrNbx5NtQSebw33AjM-i-69" style="shape=tableRow;horizontal=0;startSize=0;swimlaneHead=0;swimlaneBody=0;top=0;left=0;bottom=0;right=0;dropTarget=0;collapsible=0;recursiveResize=0;expand=0;fontStyle=0;strokeColor=inherit;fillColor=#ffffff;" parent="yrNbx5NtQSebw33AjM-i-68" vertex="1">
          <mxGeometry width="558" height="33" as="geometry" />
        </mxCell>
        <mxCell id="yrNbx5NtQSebw33AjM-i-70" value="process_id" style="connectable=0;recursiveResize=0;strokeColor=inherit;fillColor=#A7C942;align=center;fontStyle=1;fontColor=#FFFFFF;html=1;" parent="yrNbx5NtQSebw33AjM-i-69" vertex="1">
          <mxGeometry width="93" height="33" as="geometry">
            <mxRectangle width="93" height="33" as="alternateBounds" />
          </mxGeometry>
        </mxCell>
        <mxCell id="yrNbx5NtQSebw33AjM-i-71" value="flow_type" style="connectable=0;recursiveResize=0;strokeColor=inherit;fillColor=#A7C942;align=center;fontStyle=1;fontColor=#FFFFFF;html=1;" parent="yrNbx5NtQSebw33AjM-i-69" vertex="1">
          <mxGeometry x="93" width="93" height="33" as="geometry">
            <mxRectangle width="93" height="33" as="alternateBounds" />
          </mxGeometry>
        </mxCell>
        <mxCell id="yrNbx5NtQSebw33AjM-i-85" value="user_process" style="connectable=0;recursiveResize=0;strokeColor=inherit;fillColor=#A7C942;align=center;fontStyle=1;fontColor=#FFFFFF;html=1;" parent="yrNbx5NtQSebw33AjM-i-69" vertex="1">
          <mxGeometry x="186" width="93" height="33" as="geometry">
            <mxRectangle width="93" height="33" as="alternateBounds" />
          </mxGeometry>
        </mxCell>
        <mxCell id="yrNbx5NtQSebw33AjM-i-105" value="status" style="connectable=0;recursiveResize=0;strokeColor=inherit;fillColor=#A7C942;align=center;fontStyle=1;fontColor=#FFFFFF;html=1;" parent="yrNbx5NtQSebw33AjM-i-69" vertex="1">
          <mxGeometry x="279" width="93" height="33" as="geometry">
            <mxRectangle width="93" height="33" as="alternateBounds" />
          </mxGeometry>
        </mxCell>
        <mxCell id="yrNbx5NtQSebw33AjM-i-90" value="final_score" style="connectable=0;recursiveResize=0;strokeColor=inherit;fillColor=#A7C942;align=center;fontStyle=1;fontColor=#FFFFFF;html=1;" parent="yrNbx5NtQSebw33AjM-i-69" vertex="1">
          <mxGeometry x="372" width="93" height="33" as="geometry">
            <mxRectangle width="93" height="33" as="alternateBounds" />
          </mxGeometry>
        </mxCell>
        <mxCell id="yrNbx5NtQSebw33AjM-i-95" value="final_rank" style="connectable=0;recursiveResize=0;strokeColor=inherit;fillColor=#A7C942;align=center;fontStyle=1;fontColor=#FFFFFF;html=1;" parent="yrNbx5NtQSebw33AjM-i-69" vertex="1">
          <mxGeometry x="465" width="93" height="33" as="geometry">
            <mxRectangle width="93" height="33" as="alternateBounds" />
          </mxGeometry>
        </mxCell>
        <mxCell id="yrNbx5NtQSebw33AjM-i-72" value="" style="shape=tableRow;horizontal=0;startSize=0;swimlaneHead=0;swimlaneBody=0;top=0;left=0;bottom=0;right=0;dropTarget=0;collapsible=0;recursiveResize=0;expand=0;fontStyle=0;strokeColor=inherit;fillColor=#ffffff;" parent="yrNbx5NtQSebw33AjM-i-68" vertex="1">
          <mxGeometry y="33" width="558" height="32" as="geometry" />
        </mxCell>
        <mxCell id="yrNbx5NtQSebw33AjM-i-73" value="P_0001" style="connectable=0;recursiveResize=0;strokeColor=inherit;fillColor=inherit;align=center;whiteSpace=wrap;html=1;" parent="yrNbx5NtQSebw33AjM-i-72" vertex="1">
          <mxGeometry width="93" height="32" as="geometry">
            <mxRectangle width="93" height="32" as="alternateBounds" />
          </mxGeometry>
        </mxCell>
        <mxCell id="yrNbx5NtQSebw33AjM-i-74" value="manual" style="connectable=0;recursiveResize=0;strokeColor=inherit;fillColor=inherit;align=center;whiteSpace=wrap;html=1;" parent="yrNbx5NtQSebw33AjM-i-72" vertex="1">
          <mxGeometry x="93" width="93" height="32" as="geometry">
            <mxRectangle width="93" height="32" as="alternateBounds" />
          </mxGeometry>
        </mxCell>
        <mxCell id="yrNbx5NtQSebw33AjM-i-86" value="anmv2" style="connectable=0;recursiveResize=0;strokeColor=inherit;fillColor=inherit;align=center;whiteSpace=wrap;html=1;" parent="yrNbx5NtQSebw33AjM-i-72" vertex="1">
          <mxGeometry x="186" width="93" height="32" as="geometry">
            <mxRectangle width="93" height="32" as="alternateBounds" />
          </mxGeometry>
        </mxCell>
        <mxCell id="yrNbx5NtQSebw33AjM-i-106" value="Finished" style="connectable=0;recursiveResize=0;strokeColor=inherit;fillColor=inherit;align=center;whiteSpace=wrap;html=1;" parent="yrNbx5NtQSebw33AjM-i-72" vertex="1">
          <mxGeometry x="279" width="93" height="32" as="geometry">
            <mxRectangle width="93" height="32" as="alternateBounds" />
          </mxGeometry>
        </mxCell>
        <mxCell id="yrNbx5NtQSebw33AjM-i-91" value="6.9" style="connectable=0;recursiveResize=0;strokeColor=inherit;fillColor=inherit;align=center;whiteSpace=wrap;html=1;" parent="yrNbx5NtQSebw33AjM-i-72" vertex="1">
          <mxGeometry x="372" width="93" height="32" as="geometry">
            <mxRectangle width="93" height="32" as="alternateBounds" />
          </mxGeometry>
        </mxCell>
        <mxCell id="yrNbx5NtQSebw33AjM-i-96" value="B" style="connectable=0;recursiveResize=0;strokeColor=inherit;fillColor=inherit;align=center;whiteSpace=wrap;html=1;" parent="yrNbx5NtQSebw33AjM-i-72" vertex="1">
          <mxGeometry x="465" width="93" height="32" as="geometry">
            <mxRectangle width="93" height="32" as="alternateBounds" />
          </mxGeometry>
        </mxCell>
        <mxCell id="yrNbx5NtQSebw33AjM-i-75" value="" style="shape=tableRow;horizontal=0;startSize=0;swimlaneHead=0;swimlaneBody=0;top=0;left=0;bottom=0;right=0;dropTarget=0;collapsible=0;recursiveResize=0;expand=0;fontStyle=1;strokeColor=inherit;fillColor=#EAF2D3;" parent="yrNbx5NtQSebw33AjM-i-68" vertex="1">
          <mxGeometry y="65" width="558" height="31" as="geometry" />
        </mxCell>
        <mxCell id="yrNbx5NtQSebw33AjM-i-76" value="P_0002" style="connectable=0;recursiveResize=0;strokeColor=inherit;fillColor=inherit;whiteSpace=wrap;html=1;" parent="yrNbx5NtQSebw33AjM-i-75" vertex="1">
          <mxGeometry width="93" height="31" as="geometry">
            <mxRectangle width="93" height="31" as="alternateBounds" />
          </mxGeometry>
        </mxCell>
        <mxCell id="yrNbx5NtQSebw33AjM-i-77" value="auto" style="connectable=0;recursiveResize=0;strokeColor=inherit;fillColor=inherit;whiteSpace=wrap;html=1;" parent="yrNbx5NtQSebw33AjM-i-75" vertex="1">
          <mxGeometry x="93" width="93" height="31" as="geometry">
            <mxRectangle width="93" height="31" as="alternateBounds" />
          </mxGeometry>
        </mxCell>
        <mxCell id="yrNbx5NtQSebw33AjM-i-87" value="DIGI" style="connectable=0;recursiveResize=0;strokeColor=inherit;fillColor=inherit;whiteSpace=wrap;html=1;" parent="yrNbx5NtQSebw33AjM-i-75" vertex="1">
          <mxGeometry x="186" width="93" height="31" as="geometry">
            <mxRectangle width="93" height="31" as="alternateBounds" />
          </mxGeometry>
        </mxCell>
        <mxCell id="yrNbx5NtQSebw33AjM-i-107" value="Processing" style="connectable=0;recursiveResize=0;strokeColor=inherit;fillColor=inherit;whiteSpace=wrap;html=1;" parent="yrNbx5NtQSebw33AjM-i-75" vertex="1">
          <mxGeometry x="279" width="93" height="31" as="geometry">
            <mxRectangle width="93" height="31" as="alternateBounds" />
          </mxGeometry>
        </mxCell>
        <mxCell id="yrNbx5NtQSebw33AjM-i-92" value="(null)" style="connectable=0;recursiveResize=0;strokeColor=inherit;fillColor=inherit;whiteSpace=wrap;html=1;" parent="yrNbx5NtQSebw33AjM-i-75" vertex="1">
          <mxGeometry x="372" width="93" height="31" as="geometry">
            <mxRectangle width="93" height="31" as="alternateBounds" />
          </mxGeometry>
        </mxCell>
        <mxCell id="yrNbx5NtQSebw33AjM-i-97" value="(null)" style="connectable=0;recursiveResize=0;strokeColor=inherit;fillColor=inherit;whiteSpace=wrap;html=1;" parent="yrNbx5NtQSebw33AjM-i-75" vertex="1">
          <mxGeometry x="465" width="93" height="31" as="geometry">
            <mxRectangle width="93" height="31" as="alternateBounds" />
          </mxGeometry>
        </mxCell>
        <mxCell id="yrNbx5NtQSebw33AjM-i-78" value="" style="shape=tableRow;horizontal=0;startSize=0;swimlaneHead=0;swimlaneBody=0;top=0;left=0;bottom=0;right=0;dropTarget=0;collapsible=0;recursiveResize=0;expand=0;fontStyle=0;strokeColor=inherit;fillColor=#ffffff;" parent="yrNbx5NtQSebw33AjM-i-68" vertex="1">
          <mxGeometry y="96" width="558" height="33" as="geometry" />
        </mxCell>
        <mxCell id="yrNbx5NtQSebw33AjM-i-79" value="P_0003" style="connectable=0;recursiveResize=0;strokeColor=inherit;fillColor=inherit;fontStyle=0;align=center;whiteSpace=wrap;html=1;" parent="yrNbx5NtQSebw33AjM-i-78" vertex="1">
          <mxGeometry width="93" height="33" as="geometry">
            <mxRectangle width="93" height="33" as="alternateBounds" />
          </mxGeometry>
        </mxCell>
        <mxCell id="yrNbx5NtQSebw33AjM-i-80" value="auto" style="connectable=0;recursiveResize=0;strokeColor=inherit;fillColor=inherit;fontStyle=0;align=center;whiteSpace=wrap;html=1;" parent="yrNbx5NtQSebw33AjM-i-78" vertex="1">
          <mxGeometry x="93" width="93" height="33" as="geometry">
            <mxRectangle width="93" height="33" as="alternateBounds" />
          </mxGeometry>
        </mxCell>
        <mxCell id="yrNbx5NtQSebw33AjM-i-88" value="DIGI" style="connectable=0;recursiveResize=0;strokeColor=inherit;fillColor=inherit;fontStyle=0;align=center;whiteSpace=wrap;html=1;" parent="yrNbx5NtQSebw33AjM-i-78" vertex="1">
          <mxGeometry x="186" width="93" height="33" as="geometry">
            <mxRectangle width="93" height="33" as="alternateBounds" />
          </mxGeometry>
        </mxCell>
        <mxCell id="yrNbx5NtQSebw33AjM-i-108" value="Finished" style="connectable=0;recursiveResize=0;strokeColor=inherit;fillColor=inherit;fontStyle=0;align=center;whiteSpace=wrap;html=1;" parent="yrNbx5NtQSebw33AjM-i-78" vertex="1">
          <mxGeometry x="279" width="93" height="33" as="geometry">
            <mxRectangle width="93" height="33" as="alternateBounds" />
          </mxGeometry>
        </mxCell>
        <mxCell id="yrNbx5NtQSebw33AjM-i-93" value="9.6" style="connectable=0;recursiveResize=0;strokeColor=inherit;fillColor=inherit;fontStyle=0;align=center;whiteSpace=wrap;html=1;" parent="yrNbx5NtQSebw33AjM-i-78" vertex="1">
          <mxGeometry x="372" width="93" height="33" as="geometry">
            <mxRectangle width="93" height="33" as="alternateBounds" />
          </mxGeometry>
        </mxCell>
        <mxCell id="yrNbx5NtQSebw33AjM-i-98" value="AA" style="connectable=0;recursiveResize=0;strokeColor=inherit;fillColor=inherit;fontStyle=0;align=center;whiteSpace=wrap;html=1;" parent="yrNbx5NtQSebw33AjM-i-78" vertex="1">
          <mxGeometry x="465" width="93" height="33" as="geometry">
            <mxRectangle width="93" height="33" as="alternateBounds" />
          </mxGeometry>
        </mxCell>
        <mxCell id="yrNbx5NtQSebw33AjM-i-81" style="shape=tableRow;horizontal=0;startSize=0;swimlaneHead=0;swimlaneBody=0;top=0;left=0;bottom=0;right=0;dropTarget=0;collapsible=0;recursiveResize=0;expand=0;fontStyle=0;strokeColor=inherit;fillColor=#ffffff;" parent="yrNbx5NtQSebw33AjM-i-68" vertex="1">
          <mxGeometry y="129" width="558" height="33" as="geometry" />
        </mxCell>
        <mxCell id="yrNbx5NtQSebw33AjM-i-82" value="P_0004" style="connectable=0;recursiveResize=0;strokeColor=inherit;fillColor=#d5e8d4;fontStyle=0;align=center;whiteSpace=wrap;html=1;" parent="yrNbx5NtQSebw33AjM-i-81" vertex="1">
          <mxGeometry width="93" height="33" as="geometry">
            <mxRectangle width="93" height="33" as="alternateBounds" />
          </mxGeometry>
        </mxCell>
        <mxCell id="yrNbx5NtQSebw33AjM-i-83" value="manual" style="connectable=0;recursiveResize=0;strokeColor=inherit;fillColor=#d5e8d4;fontStyle=0;align=center;whiteSpace=wrap;html=1;" parent="yrNbx5NtQSebw33AjM-i-81" vertex="1">
          <mxGeometry x="93" width="93" height="33" as="geometry">
            <mxRectangle width="93" height="33" as="alternateBounds" />
          </mxGeometry>
        </mxCell>
        <mxCell id="yrNbx5NtQSebw33AjM-i-89" value="anhp8" style="connectable=0;recursiveResize=0;strokeColor=#82b366;fillColor=#d5e8d4;fontStyle=0;align=center;whiteSpace=wrap;html=1;" parent="yrNbx5NtQSebw33AjM-i-81" vertex="1">
          <mxGeometry x="186" width="93" height="33" as="geometry">
            <mxRectangle width="93" height="33" as="alternateBounds" />
          </mxGeometry>
        </mxCell>
        <mxCell id="yrNbx5NtQSebw33AjM-i-109" value="Model_Created" style="connectable=0;recursiveResize=0;strokeColor=#82b366;fillColor=#d5e8d4;fontStyle=0;align=center;whiteSpace=wrap;html=1;" parent="yrNbx5NtQSebw33AjM-i-81" vertex="1">
          <mxGeometry x="279" width="93" height="33" as="geometry">
            <mxRectangle width="93" height="33" as="alternateBounds" />
          </mxGeometry>
        </mxCell>
        <mxCell id="yrNbx5NtQSebw33AjM-i-94" value="(null)" style="connectable=0;recursiveResize=0;strokeColor=#82b366;fillColor=#d5e8d4;fontStyle=0;align=center;whiteSpace=wrap;html=1;" parent="yrNbx5NtQSebw33AjM-i-81" vertex="1">
          <mxGeometry x="372" width="93" height="33" as="geometry">
            <mxRectangle width="93" height="33" as="alternateBounds" />
          </mxGeometry>
        </mxCell>
        <mxCell id="yrNbx5NtQSebw33AjM-i-99" value="(null)" style="connectable=0;recursiveResize=0;strokeColor=inherit;fillColor=#D5E8D4;fontStyle=0;align=center;whiteSpace=wrap;html=1;" parent="yrNbx5NtQSebw33AjM-i-81" vertex="1">
          <mxGeometry x="465" width="93" height="33" as="geometry">
            <mxRectangle width="93" height="33" as="alternateBounds" />
          </mxGeometry>
        </mxCell>
        <mxCell id="yrNbx5NtQSebw33AjM-i-117" value="2" style="childLayout=tableLayout;recursiveResize=0;strokeColor=#98bf21;fillColor=#A7C942;shadow=1;" parent="1" vertex="1">
          <mxGeometry x="594" y="-250" width="651" height="158" as="geometry" />
        </mxCell>
        <mxCell id="yrNbx5NtQSebw33AjM-i-118" style="shape=tableRow;horizontal=0;startSize=0;swimlaneHead=0;swimlaneBody=0;top=0;left=0;bottom=0;right=0;dropTarget=0;collapsible=0;recursiveResize=0;expand=0;fontStyle=0;strokeColor=inherit;fillColor=#ffffff;" parent="yrNbx5NtQSebw33AjM-i-117" vertex="1">
          <mxGeometry width="651" height="33" as="geometry" />
        </mxCell>
        <mxCell id="yrNbx5NtQSebw33AjM-i-119" value="creteria_id" style="connectable=0;recursiveResize=0;strokeColor=inherit;fillColor=#A7C942;align=center;fontStyle=1;fontColor=#FFFFFF;html=1;" parent="yrNbx5NtQSebw33AjM-i-118" vertex="1">
          <mxGeometry width="93" height="33" as="geometry">
            <mxRectangle width="93" height="33" as="alternateBounds" />
          </mxGeometry>
        </mxCell>
        <mxCell id="yrNbx5NtQSebw33AjM-i-120" value="creteria_code" style="connectable=0;recursiveResize=0;strokeColor=inherit;fillColor=#A7C942;align=center;fontStyle=1;fontColor=#FFFFFF;html=1;" parent="yrNbx5NtQSebw33AjM-i-118" vertex="1">
          <mxGeometry x="93" width="93" height="33" as="geometry">
            <mxRectangle width="93" height="33" as="alternateBounds" />
          </mxGeometry>
        </mxCell>
        <mxCell id="yrNbx5NtQSebw33AjM-i-187" value="type" style="connectable=0;recursiveResize=0;strokeColor=inherit;fillColor=#A7C942;align=center;fontStyle=1;fontColor=#FFFFFF;html=1;" parent="yrNbx5NtQSebw33AjM-i-118" vertex="1">
          <mxGeometry x="186" width="67" height="33" as="geometry">
            <mxRectangle width="67" height="33" as="alternateBounds" />
          </mxGeometry>
        </mxCell>
        <mxCell id="yrNbx5NtQSebw33AjM-i-182" value="label" style="connectable=0;recursiveResize=0;strokeColor=inherit;fillColor=#A7C942;align=center;fontStyle=1;fontColor=#FFFFFF;html=1;" parent="yrNbx5NtQSebw33AjM-i-118" vertex="1">
          <mxGeometry x="253" width="119" height="33" as="geometry">
            <mxRectangle width="119" height="33" as="alternateBounds" />
          </mxGeometry>
        </mxCell>
        <mxCell id="yrNbx5NtQSebw33AjM-i-177" value="description" style="connectable=0;recursiveResize=0;strokeColor=inherit;fillColor=#A7C942;align=center;fontStyle=1;fontColor=#FFFFFF;html=1;" parent="yrNbx5NtQSebw33AjM-i-118" vertex="1">
          <mxGeometry x="372" width="103" height="33" as="geometry">
            <mxRectangle width="103" height="33" as="alternateBounds" />
          </mxGeometry>
        </mxCell>
        <mxCell id="yrNbx5NtQSebw33AjM-i-172" value="value" style="connectable=0;recursiveResize=0;strokeColor=inherit;fillColor=#A7C942;align=center;fontStyle=1;fontColor=#FFFFFF;html=1;" parent="yrNbx5NtQSebw33AjM-i-118" vertex="1">
          <mxGeometry x="475" width="112" height="33" as="geometry">
            <mxRectangle width="112" height="33" as="alternateBounds" />
          </mxGeometry>
        </mxCell>
        <mxCell id="yrNbx5NtQSebw33AjM-i-167" value="is_active" style="connectable=0;recursiveResize=0;strokeColor=inherit;fillColor=#A7C942;align=center;fontStyle=1;fontColor=#FFFFFF;html=1;" parent="yrNbx5NtQSebw33AjM-i-118" vertex="1">
          <mxGeometry x="587" width="64" height="33" as="geometry">
            <mxRectangle width="64" height="33" as="alternateBounds" />
          </mxGeometry>
        </mxCell>
        <mxCell id="yrNbx5NtQSebw33AjM-i-121" value="" style="shape=tableRow;horizontal=0;startSize=0;swimlaneHead=0;swimlaneBody=0;top=0;left=0;bottom=0;right=0;dropTarget=0;collapsible=0;recursiveResize=0;expand=0;fontStyle=0;strokeColor=inherit;fillColor=#ffffff;" parent="yrNbx5NtQSebw33AjM-i-117" vertex="1">
          <mxGeometry y="33" width="651" height="32" as="geometry" />
        </mxCell>
        <mxCell id="yrNbx5NtQSebw33AjM-i-122" value="1" style="connectable=0;recursiveResize=0;strokeColor=inherit;fillColor=inherit;align=center;whiteSpace=wrap;html=1;" parent="yrNbx5NtQSebw33AjM-i-121" vertex="1">
          <mxGeometry width="93" height="32" as="geometry">
            <mxRectangle width="93" height="32" as="alternateBounds" />
          </mxGeometry>
        </mxCell>
        <mxCell id="yrNbx5NtQSebw33AjM-i-123" value="Q0001" style="connectable=0;recursiveResize=0;strokeColor=inherit;fillColor=inherit;align=center;whiteSpace=wrap;html=1;" parent="yrNbx5NtQSebw33AjM-i-121" vertex="1">
          <mxGeometry x="93" width="93" height="32" as="geometry">
            <mxRectangle width="93" height="32" as="alternateBounds" />
          </mxGeometry>
        </mxCell>
        <mxCell id="yrNbx5NtQSebw33AjM-i-188" value="simple" style="connectable=0;recursiveResize=0;strokeColor=inherit;fillColor=inherit;align=center;whiteSpace=wrap;html=1;" parent="yrNbx5NtQSebw33AjM-i-121" vertex="1">
          <mxGeometry x="186" width="67" height="32" as="geometry">
            <mxRectangle width="67" height="32" as="alternateBounds" />
          </mxGeometry>
        </mxCell>
        <mxCell id="yrNbx5NtQSebw33AjM-i-183" value="TB casa 3 tháng" style="connectable=0;recursiveResize=0;strokeColor=inherit;fillColor=inherit;align=center;whiteSpace=wrap;html=1;" parent="yrNbx5NtQSebw33AjM-i-121" vertex="1">
          <mxGeometry x="253" width="119" height="32" as="geometry">
            <mxRectangle width="119" height="32" as="alternateBounds" />
          </mxGeometry>
        </mxCell>
        <mxCell id="yrNbx5NtQSebw33AjM-i-178" value="...." style="connectable=0;recursiveResize=0;strokeColor=inherit;fillColor=inherit;align=center;whiteSpace=wrap;html=1;" parent="yrNbx5NtQSebw33AjM-i-121" vertex="1">
          <mxGeometry x="372" width="103" height="32" as="geometry">
            <mxRectangle width="103" height="32" as="alternateBounds" />
          </mxGeometry>
        </mxCell>
        <mxCell id="yrNbx5NtQSebw33AjM-i-173" value="null" style="connectable=0;recursiveResize=0;strokeColor=inherit;fillColor=inherit;align=center;whiteSpace=wrap;html=1;" parent="yrNbx5NtQSebw33AjM-i-121" vertex="1">
          <mxGeometry x="475" width="112" height="32" as="geometry">
            <mxRectangle width="112" height="32" as="alternateBounds" />
          </mxGeometry>
        </mxCell>
        <mxCell id="yrNbx5NtQSebw33AjM-i-168" value="0" style="connectable=0;recursiveResize=0;strokeColor=inherit;fillColor=inherit;align=center;whiteSpace=wrap;html=1;" parent="yrNbx5NtQSebw33AjM-i-121" vertex="1">
          <mxGeometry x="587" width="64" height="32" as="geometry">
            <mxRectangle width="64" height="32" as="alternateBounds" />
          </mxGeometry>
        </mxCell>
        <mxCell id="yrNbx5NtQSebw33AjM-i-124" value="" style="shape=tableRow;horizontal=0;startSize=0;swimlaneHead=0;swimlaneBody=0;top=0;left=0;bottom=0;right=0;dropTarget=0;collapsible=0;recursiveResize=0;expand=0;fontStyle=1;strokeColor=inherit;fillColor=#EAF2D3;" parent="yrNbx5NtQSebw33AjM-i-117" vertex="1">
          <mxGeometry y="65" width="651" height="31" as="geometry" />
        </mxCell>
        <mxCell id="yrNbx5NtQSebw33AjM-i-125" value="2" style="connectable=0;recursiveResize=0;strokeColor=inherit;fillColor=inherit;whiteSpace=wrap;html=1;" parent="yrNbx5NtQSebw33AjM-i-124" vertex="1">
          <mxGeometry width="93" height="31" as="geometry">
            <mxRectangle width="93" height="31" as="alternateBounds" />
          </mxGeometry>
        </mxCell>
        <mxCell id="yrNbx5NtQSebw33AjM-i-126" value="Q0002" style="connectable=0;recursiveResize=0;strokeColor=inherit;fillColor=inherit;whiteSpace=wrap;html=1;" parent="yrNbx5NtQSebw33AjM-i-124" vertex="1">
          <mxGeometry x="93" width="93" height="31" as="geometry">
            <mxRectangle width="93" height="31" as="alternateBounds" />
          </mxGeometry>
        </mxCell>
        <mxCell id="yrNbx5NtQSebw33AjM-i-189" value="simple" style="connectable=0;recursiveResize=0;strokeColor=inherit;fillColor=inherit;whiteSpace=wrap;html=1;" parent="yrNbx5NtQSebw33AjM-i-124" vertex="1">
          <mxGeometry x="186" width="67" height="31" as="geometry">
            <mxRectangle width="67" height="31" as="alternateBounds" />
          </mxGeometry>
        </mxCell>
        <mxCell id="yrNbx5NtQSebw33AjM-i-184" value="Có con hay chưa" style="connectable=0;recursiveResize=0;strokeColor=inherit;fillColor=inherit;whiteSpace=wrap;html=1;" parent="yrNbx5NtQSebw33AjM-i-124" vertex="1">
          <mxGeometry x="253" width="119" height="31" as="geometry">
            <mxRectangle width="119" height="31" as="alternateBounds" />
          </mxGeometry>
        </mxCell>
        <mxCell id="yrNbx5NtQSebw33AjM-i-179" value="...." style="connectable=0;recursiveResize=0;strokeColor=inherit;fillColor=inherit;whiteSpace=wrap;html=1;" parent="yrNbx5NtQSebw33AjM-i-124" vertex="1">
          <mxGeometry x="372" width="103" height="31" as="geometry">
            <mxRectangle width="103" height="31" as="alternateBounds" />
          </mxGeometry>
        </mxCell>
        <mxCell id="yrNbx5NtQSebw33AjM-i-174" value="[Có, Không]" style="connectable=0;recursiveResize=0;strokeColor=inherit;fillColor=inherit;whiteSpace=wrap;html=1;" parent="yrNbx5NtQSebw33AjM-i-124" vertex="1">
          <mxGeometry x="475" width="112" height="31" as="geometry">
            <mxRectangle width="112" height="31" as="alternateBounds" />
          </mxGeometry>
        </mxCell>
        <mxCell id="yrNbx5NtQSebw33AjM-i-169" value="1" style="connectable=0;recursiveResize=0;strokeColor=inherit;fillColor=inherit;whiteSpace=wrap;html=1;" parent="yrNbx5NtQSebw33AjM-i-124" vertex="1">
          <mxGeometry x="587" width="64" height="31" as="geometry">
            <mxRectangle width="64" height="31" as="alternateBounds" />
          </mxGeometry>
        </mxCell>
        <mxCell id="yrNbx5NtQSebw33AjM-i-193" style="shape=tableRow;horizontal=0;startSize=0;swimlaneHead=0;swimlaneBody=0;top=0;left=0;bottom=0;right=0;dropTarget=0;collapsible=0;recursiveResize=0;expand=0;fontStyle=1;strokeColor=inherit;fillColor=#EAF2D3;" parent="yrNbx5NtQSebw33AjM-i-117" vertex="1">
          <mxGeometry y="96" width="651" height="31" as="geometry" />
        </mxCell>
        <mxCell id="yrNbx5NtQSebw33AjM-i-194" value="3" style="connectable=0;recursiveResize=0;strokeColor=inherit;fillColor=inherit;whiteSpace=wrap;html=1;" parent="yrNbx5NtQSebw33AjM-i-193" vertex="1">
          <mxGeometry width="93" height="31" as="geometry">
            <mxRectangle width="93" height="31" as="alternateBounds" />
          </mxGeometry>
        </mxCell>
        <mxCell id="yrNbx5NtQSebw33AjM-i-195" value="&lt;div&gt;&lt;span style=&quot;background-color: initial;&quot;&gt;S0030&lt;/span&gt;&lt;/div&gt;" style="connectable=0;recursiveResize=0;strokeColor=inherit;fillColor=inherit;whiteSpace=wrap;html=1;" parent="yrNbx5NtQSebw33AjM-i-193" vertex="1">
          <mxGeometry x="93" width="93" height="31" as="geometry">
            <mxRectangle width="93" height="31" as="alternateBounds" />
          </mxGeometry>
        </mxCell>
        <mxCell id="yrNbx5NtQSebw33AjM-i-196" value="complex" style="connectable=0;recursiveResize=0;strokeColor=inherit;fillColor=inherit;whiteSpace=wrap;html=1;" parent="yrNbx5NtQSebw33AjM-i-193" vertex="1">
          <mxGeometry x="186" width="67" height="31" as="geometry">
            <mxRectangle width="67" height="31" as="alternateBounds" />
          </mxGeometry>
        </mxCell>
        <mxCell id="yrNbx5NtQSebw33AjM-i-197" value="Khả năng tiêu dùng" style="connectable=0;recursiveResize=0;strokeColor=inherit;fillColor=inherit;whiteSpace=wrap;html=1;" parent="yrNbx5NtQSebw33AjM-i-193" vertex="1">
          <mxGeometry x="253" width="119" height="31" as="geometry">
            <mxRectangle width="119" height="31" as="alternateBounds" />
          </mxGeometry>
        </mxCell>
        <mxCell id="yrNbx5NtQSebw33AjM-i-198" value="..." style="connectable=0;recursiveResize=0;strokeColor=inherit;fillColor=inherit;whiteSpace=wrap;html=1;" parent="yrNbx5NtQSebw33AjM-i-193" vertex="1">
          <mxGeometry x="372" width="103" height="31" as="geometry">
            <mxRectangle width="103" height="31" as="alternateBounds" />
          </mxGeometry>
        </mxCell>
        <mxCell id="yrNbx5NtQSebw33AjM-i-199" value="null" style="connectable=0;recursiveResize=0;strokeColor=inherit;fillColor=inherit;whiteSpace=wrap;html=1;" parent="yrNbx5NtQSebw33AjM-i-193" vertex="1">
          <mxGeometry x="475" width="112" height="31" as="geometry">
            <mxRectangle width="112" height="31" as="alternateBounds" />
          </mxGeometry>
        </mxCell>
        <mxCell id="yrNbx5NtQSebw33AjM-i-200" value="1" style="connectable=0;recursiveResize=0;strokeColor=inherit;fillColor=inherit;whiteSpace=wrap;html=1;" parent="yrNbx5NtQSebw33AjM-i-193" vertex="1">
          <mxGeometry x="587" width="64" height="31" as="geometry">
            <mxRectangle width="64" height="31" as="alternateBounds" />
          </mxGeometry>
        </mxCell>
        <mxCell id="yrNbx5NtQSebw33AjM-i-201" style="shape=tableRow;horizontal=0;startSize=0;swimlaneHead=0;swimlaneBody=0;top=0;left=0;bottom=0;right=0;dropTarget=0;collapsible=0;recursiveResize=0;expand=0;fontStyle=1;strokeColor=inherit;fillColor=#EAF2D3;" parent="yrNbx5NtQSebw33AjM-i-117" vertex="1">
          <mxGeometry y="127" width="651" height="31" as="geometry" />
        </mxCell>
        <mxCell id="yrNbx5NtQSebw33AjM-i-202" value="4" style="connectable=0;recursiveResize=0;strokeColor=inherit;fillColor=inherit;whiteSpace=wrap;html=1;" parent="yrNbx5NtQSebw33AjM-i-201" vertex="1">
          <mxGeometry width="93" height="31" as="geometry">
            <mxRectangle width="93" height="31" as="alternateBounds" />
          </mxGeometry>
        </mxCell>
        <mxCell id="yrNbx5NtQSebw33AjM-i-203" value="R0203" style="connectable=0;recursiveResize=0;strokeColor=inherit;fillColor=inherit;whiteSpace=wrap;html=1;" parent="yrNbx5NtQSebw33AjM-i-201" vertex="1">
          <mxGeometry x="93" width="93" height="31" as="geometry">
            <mxRectangle width="93" height="31" as="alternateBounds" />
          </mxGeometry>
        </mxCell>
        <mxCell id="yrNbx5NtQSebw33AjM-i-204" value="complex" style="connectable=0;recursiveResize=0;strokeColor=inherit;fillColor=inherit;whiteSpace=wrap;html=1;" parent="yrNbx5NtQSebw33AjM-i-201" vertex="1">
          <mxGeometry x="186" width="67" height="31" as="geometry">
            <mxRectangle width="67" height="31" as="alternateBounds" />
          </mxGeometry>
        </mxCell>
        <mxCell id="yrNbx5NtQSebw33AjM-i-205" value="Nghĩa vụ trả nợ" style="connectable=0;recursiveResize=0;strokeColor=inherit;fillColor=inherit;whiteSpace=wrap;html=1;" parent="yrNbx5NtQSebw33AjM-i-201" vertex="1">
          <mxGeometry x="253" width="119" height="31" as="geometry">
            <mxRectangle width="119" height="31" as="alternateBounds" />
          </mxGeometry>
        </mxCell>
        <mxCell id="yrNbx5NtQSebw33AjM-i-206" value="..." style="connectable=0;recursiveResize=0;strokeColor=inherit;fillColor=inherit;whiteSpace=wrap;html=1;" parent="yrNbx5NtQSebw33AjM-i-201" vertex="1">
          <mxGeometry x="372" width="103" height="31" as="geometry">
            <mxRectangle width="103" height="31" as="alternateBounds" />
          </mxGeometry>
        </mxCell>
        <mxCell id="yrNbx5NtQSebw33AjM-i-207" value="null" style="connectable=0;recursiveResize=0;strokeColor=inherit;fillColor=inherit;whiteSpace=wrap;html=1;" parent="yrNbx5NtQSebw33AjM-i-201" vertex="1">
          <mxGeometry x="475" width="112" height="31" as="geometry">
            <mxRectangle width="112" height="31" as="alternateBounds" />
          </mxGeometry>
        </mxCell>
        <mxCell id="yrNbx5NtQSebw33AjM-i-208" value="1" style="connectable=0;recursiveResize=0;strokeColor=inherit;fillColor=inherit;whiteSpace=wrap;html=1;" parent="yrNbx5NtQSebw33AjM-i-201" vertex="1">
          <mxGeometry x="587" width="64" height="31" as="geometry">
            <mxRectangle width="64" height="31" as="alternateBounds" />
          </mxGeometry>
        </mxCell>
        <mxCell id="yrNbx5NtQSebw33AjM-i-217" value="2" style="childLayout=tableLayout;recursiveResize=0;strokeColor=#98bf21;fillColor=#A7C942;shadow=1;" parent="1" vertex="1">
          <mxGeometry x="596" y="-36" width="253" height="158" as="geometry" />
        </mxCell>
        <mxCell id="yrNbx5NtQSebw33AjM-i-218" style="shape=tableRow;horizontal=0;startSize=0;swimlaneHead=0;swimlaneBody=0;top=0;left=0;bottom=0;right=0;dropTarget=0;collapsible=0;recursiveResize=0;expand=0;fontStyle=0;strokeColor=inherit;fillColor=#ffffff;" parent="yrNbx5NtQSebw33AjM-i-217" vertex="1">
          <mxGeometry width="253" height="33" as="geometry" />
        </mxCell>
        <mxCell id="yrNbx5NtQSebw33AjM-i-219" value="creteria_id" style="connectable=0;recursiveResize=0;strokeColor=inherit;fillColor=#A7C942;align=center;fontStyle=1;fontColor=#FFFFFF;html=1;" parent="yrNbx5NtQSebw33AjM-i-218" vertex="1">
          <mxGeometry width="93" height="33" as="geometry">
            <mxRectangle width="93" height="33" as="alternateBounds" />
          </mxGeometry>
        </mxCell>
        <mxCell id="yrNbx5NtQSebw33AjM-i-220" value="creteria_code" style="connectable=0;recursiveResize=0;strokeColor=inherit;fillColor=#A7C942;align=center;fontStyle=1;fontColor=#FFFFFF;html=1;" parent="yrNbx5NtQSebw33AjM-i-218" vertex="1">
          <mxGeometry x="93" width="93" height="33" as="geometry">
            <mxRectangle width="93" height="33" as="alternateBounds" />
          </mxGeometry>
        </mxCell>
        <mxCell id="yrNbx5NtQSebw33AjM-i-221" value="is_active" style="connectable=0;recursiveResize=0;strokeColor=inherit;fillColor=#A7C942;align=center;fontStyle=1;fontColor=#FFFFFF;html=1;" parent="yrNbx5NtQSebw33AjM-i-218" vertex="1">
          <mxGeometry x="186" width="67" height="33" as="geometry">
            <mxRectangle width="67" height="33" as="alternateBounds" />
          </mxGeometry>
        </mxCell>
        <mxCell id="yrNbx5NtQSebw33AjM-i-226" value="" style="shape=tableRow;horizontal=0;startSize=0;swimlaneHead=0;swimlaneBody=0;top=0;left=0;bottom=0;right=0;dropTarget=0;collapsible=0;recursiveResize=0;expand=0;fontStyle=0;strokeColor=inherit;fillColor=#ffffff;" parent="yrNbx5NtQSebw33AjM-i-217" vertex="1">
          <mxGeometry y="33" width="253" height="32" as="geometry" />
        </mxCell>
        <mxCell id="yrNbx5NtQSebw33AjM-i-227" value="3" style="connectable=0;recursiveResize=0;strokeColor=inherit;fillColor=inherit;align=center;whiteSpace=wrap;html=1;" parent="yrNbx5NtQSebw33AjM-i-226" vertex="1">
          <mxGeometry width="93" height="32" as="geometry">
            <mxRectangle width="93" height="32" as="alternateBounds" />
          </mxGeometry>
        </mxCell>
        <mxCell id="yrNbx5NtQSebw33AjM-i-228" value="1" style="connectable=0;recursiveResize=0;strokeColor=inherit;fillColor=inherit;align=center;whiteSpace=wrap;html=1;" parent="yrNbx5NtQSebw33AjM-i-226" vertex="1">
          <mxGeometry x="93" width="93" height="32" as="geometry">
            <mxRectangle width="93" height="32" as="alternateBounds" />
          </mxGeometry>
        </mxCell>
        <mxCell id="yrNbx5NtQSebw33AjM-i-229" value="1" style="connectable=0;recursiveResize=0;strokeColor=inherit;fillColor=inherit;align=center;whiteSpace=wrap;html=1;" parent="yrNbx5NtQSebw33AjM-i-226" vertex="1">
          <mxGeometry x="186" width="67" height="32" as="geometry">
            <mxRectangle width="67" height="32" as="alternateBounds" />
          </mxGeometry>
        </mxCell>
        <mxCell id="yrNbx5NtQSebw33AjM-i-234" value="" style="shape=tableRow;horizontal=0;startSize=0;swimlaneHead=0;swimlaneBody=0;top=0;left=0;bottom=0;right=0;dropTarget=0;collapsible=0;recursiveResize=0;expand=0;fontStyle=1;strokeColor=inherit;fillColor=#EAF2D3;" parent="yrNbx5NtQSebw33AjM-i-217" vertex="1">
          <mxGeometry y="65" width="253" height="31" as="geometry" />
        </mxCell>
        <mxCell id="yrNbx5NtQSebw33AjM-i-235" value="3" style="connectable=0;recursiveResize=0;strokeColor=inherit;fillColor=inherit;whiteSpace=wrap;html=1;" parent="yrNbx5NtQSebw33AjM-i-234" vertex="1">
          <mxGeometry width="93" height="31" as="geometry">
            <mxRectangle width="93" height="31" as="alternateBounds" />
          </mxGeometry>
        </mxCell>
        <mxCell id="yrNbx5NtQSebw33AjM-i-236" value="2" style="connectable=0;recursiveResize=0;strokeColor=inherit;fillColor=inherit;whiteSpace=wrap;html=1;" parent="yrNbx5NtQSebw33AjM-i-234" vertex="1">
          <mxGeometry x="93" width="93" height="31" as="geometry">
            <mxRectangle width="93" height="31" as="alternateBounds" />
          </mxGeometry>
        </mxCell>
        <mxCell id="yrNbx5NtQSebw33AjM-i-237" value="1" style="connectable=0;recursiveResize=0;strokeColor=inherit;fillColor=inherit;whiteSpace=wrap;html=1;" parent="yrNbx5NtQSebw33AjM-i-234" vertex="1">
          <mxGeometry x="186" width="67" height="31" as="geometry">
            <mxRectangle width="67" height="31" as="alternateBounds" />
          </mxGeometry>
        </mxCell>
        <mxCell id="yrNbx5NtQSebw33AjM-i-242" style="shape=tableRow;horizontal=0;startSize=0;swimlaneHead=0;swimlaneBody=0;top=0;left=0;bottom=0;right=0;dropTarget=0;collapsible=0;recursiveResize=0;expand=0;fontStyle=1;strokeColor=inherit;fillColor=#EAF2D3;" parent="yrNbx5NtQSebw33AjM-i-217" vertex="1">
          <mxGeometry y="96" width="253" height="31" as="geometry" />
        </mxCell>
        <mxCell id="yrNbx5NtQSebw33AjM-i-243" value="4" style="connectable=0;recursiveResize=0;strokeColor=inherit;fillColor=inherit;whiteSpace=wrap;html=1;" parent="yrNbx5NtQSebw33AjM-i-242" vertex="1">
          <mxGeometry width="93" height="31" as="geometry">
            <mxRectangle width="93" height="31" as="alternateBounds" />
          </mxGeometry>
        </mxCell>
        <mxCell id="yrNbx5NtQSebw33AjM-i-244" value="3" style="connectable=0;recursiveResize=0;strokeColor=inherit;fillColor=inherit;whiteSpace=wrap;html=1;" parent="yrNbx5NtQSebw33AjM-i-242" vertex="1">
          <mxGeometry x="93" width="93" height="31" as="geometry">
            <mxRectangle width="93" height="31" as="alternateBounds" />
          </mxGeometry>
        </mxCell>
        <mxCell id="yrNbx5NtQSebw33AjM-i-245" value="1" style="connectable=0;recursiveResize=0;strokeColor=inherit;fillColor=inherit;whiteSpace=wrap;html=1;" parent="yrNbx5NtQSebw33AjM-i-242" vertex="1">
          <mxGeometry x="186" width="67" height="31" as="geometry">
            <mxRectangle width="67" height="31" as="alternateBounds" />
          </mxGeometry>
        </mxCell>
        <mxCell id="yrNbx5NtQSebw33AjM-i-250" style="shape=tableRow;horizontal=0;startSize=0;swimlaneHead=0;swimlaneBody=0;top=0;left=0;bottom=0;right=0;dropTarget=0;collapsible=0;recursiveResize=0;expand=0;fontStyle=1;strokeColor=inherit;fillColor=#EAF2D3;" parent="yrNbx5NtQSebw33AjM-i-217" vertex="1">
          <mxGeometry y="127" width="253" height="31" as="geometry" />
        </mxCell>
        <mxCell id="yrNbx5NtQSebw33AjM-i-251" value="4" style="connectable=0;recursiveResize=0;strokeColor=inherit;fillColor=inherit;whiteSpace=wrap;html=1;" parent="yrNbx5NtQSebw33AjM-i-250" vertex="1">
          <mxGeometry width="93" height="31" as="geometry">
            <mxRectangle width="93" height="31" as="alternateBounds" />
          </mxGeometry>
        </mxCell>
        <mxCell id="yrNbx5NtQSebw33AjM-i-252" value="2" style="connectable=0;recursiveResize=0;strokeColor=inherit;fillColor=inherit;whiteSpace=wrap;html=1;" parent="yrNbx5NtQSebw33AjM-i-250" vertex="1">
          <mxGeometry x="93" width="93" height="31" as="geometry">
            <mxRectangle width="93" height="31" as="alternateBounds" />
          </mxGeometry>
        </mxCell>
        <mxCell id="yrNbx5NtQSebw33AjM-i-253" value="1" style="connectable=0;recursiveResize=0;strokeColor=inherit;fillColor=inherit;whiteSpace=wrap;html=1;" parent="yrNbx5NtQSebw33AjM-i-250" vertex="1">
          <mxGeometry x="186" width="67" height="31" as="geometry">
            <mxRectangle width="67" height="31" as="alternateBounds" />
          </mxGeometry>
        </mxCell>
      </root>
    </mxGraphModel>
  </diagram>
  <diagram id="JbfNBVdsV1_KKC3QerAF" name="Design_DB_v2">
    <mxGraphModel dx="1522" dy="1164" grid="0" gridSize="10" guides="1" tooltips="1" connect="1" arrows="1" fold="1" page="0" pageScale="1" pageWidth="827" pageHeight="1169" math="0" shadow="0">
      <root>
        <mxCell id="0" />
        <mxCell id="1" parent="0" />
        <mxCell id="z0I7IPg1x3mQbU_RCsyf-4" value="&lt;p style=&quot;margin: 0px; margin-top: 4px; text-align: center; text-decoration: underline;&quot;&gt;&lt;strong&gt;PROFILE_INFO_DETAIL&lt;/strong&gt;&lt;/p&gt;&lt;hr&gt;&lt;p style=&quot;margin: 0px; margin-left: 8px;&quot;&gt;&lt;b&gt;&lt;font color=&quot;#ff0a0a&quot;&gt;input_id&lt;/font&gt;&lt;/b&gt;:&amp;nbsp; id thông tin details&lt;/p&gt;&lt;p style=&quot;margin: 0px; margin-left: 8px;&quot;&gt;&lt;b&gt;&lt;font color=&quot;#009900&quot;&gt;profile_id&lt;/font&gt;&lt;/b&gt;:&amp;nbsp; id của hồ sơ&lt;/p&gt;&lt;p style=&quot;margin: 0px; margin-left: 8px;&quot;&gt;&lt;b&gt;identity_type&lt;/b&gt;:&amp;nbsp; loại giấy tờ&lt;/p&gt;&lt;p style=&quot;margin: 0px; margin-left: 8px;&quot;&gt;&lt;b&gt;cic_in_12m&lt;/b&gt;:&amp;nbsp; yes/no&lt;/p&gt;&lt;p style=&quot;margin: 0px; margin-left: 8px;&quot;&gt;&lt;b&gt;term&lt;/b&gt;:&amp;nbsp; kỳ hạn&lt;/p&gt;&lt;p style=&quot;margin: 0px; margin-left: 8px;&quot;&gt;&amp;lt;....&amp;gt;&lt;/p&gt;" style="verticalAlign=top;align=left;overflow=fill;fontSize=12;fontFamily=Helvetica;html=1;strokeColor=#003366;shadow=1;fillColor=#D4E1F5;fontColor=#003366;points=[[0,0,0,0,0],[0,0.25,0,0,0],[0,0.34,0,0,0],[0,0.75,0,0,0],[0,1,0,0,0],[0.25,0,0,0,0],[0.25,1,0,0,0],[0.5,0,0,0,0],[0.5,1,0,0,0],[0.75,0,0,0,0],[0.75,1,0,0,0],[1,0,0,0,0],[1,0.25,0,0,0],[1,0.5,0,0,0],[1,0.75,0,0,0],[1,1,0,0,0]];" parent="1" vertex="1">
          <mxGeometry x="-678" y="-278" width="172" height="160" as="geometry" />
        </mxCell>
        <mxCell id="z0I7IPg1x3mQbU_RCsyf-11" style="edgeStyle=orthogonalEdgeStyle;rounded=0;orthogonalLoop=1;jettySize=auto;html=1;exitX=1;exitY=0.25;exitDx=0;exitDy=0;entryX=0;entryY=0.36;entryDx=0;entryDy=0;endArrow=ERoneToMany;endFill=0;startArrow=ERone;startFill=0;strokeColor=#004C99;entryPerimeter=0;" parent="1" source="z0I7IPg1x3mQbU_RCsyf-2" target="z0I7IPg1x3mQbU_RCsyf-13" edge="1">
          <mxGeometry relative="1" as="geometry">
            <Array as="points">
              <mxPoint x="-129" y="-78" />
              <mxPoint x="-129" y="-100" />
            </Array>
          </mxGeometry>
        </mxCell>
        <mxCell id="z0I7IPg1x3mQbU_RCsyf-2" value="&lt;p style=&quot;margin: 0px; margin-top: 4px; text-align: center; text-decoration: underline;&quot;&gt;&lt;strong&gt;PROFILE_INFO&lt;/strong&gt;&lt;/p&gt;&lt;hr&gt;&lt;p style=&quot;margin: 0px; margin-left: 8px;&quot;&gt;&lt;b&gt;&lt;font color=&quot;#ff0a0a&quot;&gt;profile_id&lt;/font&gt;&lt;/b&gt;:&amp;nbsp; id của hồ sơ&lt;/p&gt;&lt;p style=&quot;margin: 0px; margin-left: 8px;&quot;&gt;&lt;b&gt;full_name&lt;/b&gt;:&amp;nbsp; Họ tên&lt;/p&gt;&lt;p style=&quot;margin: 0px; margin-left: 8px;&quot;&gt;&lt;b&gt;cus_type&lt;/b&gt;:&amp;nbsp; loại khách hàng&lt;/p&gt;&lt;p style=&quot;margin: 0px; margin-left: 8px;&quot;&gt;&amp;lt;....&amp;gt;&lt;/p&gt;" style="verticalAlign=top;align=left;overflow=fill;fontSize=12;fontFamily=Helvetica;html=1;strokeColor=#003366;shadow=1;fillColor=#D4E1F5;fontColor=#003366" parent="1" vertex="1">
          <mxGeometry x="-405" y="-118" width="172" height="160" as="geometry" />
        </mxCell>
        <mxCell id="z0I7IPg1x3mQbU_RCsyf-6" value="&lt;p style=&quot;margin: 0px; margin-top: 4px; text-align: center; text-decoration: underline;&quot;&gt;&lt;strong&gt;MODEL_PROCESS&lt;/strong&gt;&lt;/p&gt;&lt;hr&gt;&lt;p style=&quot;margin: 0px; margin-left: 8px;&quot;&gt;&lt;b&gt;&lt;font color=&quot;#ff0a0a&quot;&gt;model_id&lt;/font&gt;&lt;/b&gt;:&amp;nbsp; id của mô hình&lt;/p&gt;&lt;p style=&quot;margin: 0px; margin-left: 8px;&quot;&gt;&lt;b&gt;model_code&lt;/b&gt;: mã của mô hình&lt;/p&gt;&lt;p style=&quot;margin: 0px; margin-left: 8px;&quot;&gt;&lt;b&gt;&lt;font color=&quot;#009900&quot;&gt;input_id&lt;/font&gt;&lt;/b&gt;: id thông tin details&lt;/p&gt;&lt;p style=&quot;margin: 0px; margin-left: 8px;&quot;&gt;&lt;b&gt;process_id&lt;/b&gt;: id process của DE&lt;/p&gt;&lt;p style=&quot;margin: 0px; margin-left: 8px;&quot;&gt;&lt;b&gt;&lt;font color=&quot;#009900&quot;&gt;profile_id&lt;/font&gt;&lt;/b&gt;: id của hồ sơ&lt;/p&gt;&lt;p style=&quot;margin: 0px; margin-left: 8px;&quot;&gt;&lt;b&gt;status&lt;/b&gt;: trạng thái của tiến trình&lt;/p&gt;&lt;p style=&quot;margin: 0px; margin-left: 8px;&quot;&gt;&lt;b&gt;segment&lt;/b&gt;: segment_result&lt;/p&gt;&lt;p style=&quot;margin: 0px; margin-left: 8px;&quot;&gt;&lt;b&gt;income&lt;/b&gt;: income_result&lt;/p&gt;&lt;p style=&quot;margin: 0px; margin-left: 8px;&quot;&gt;&lt;b&gt;final_score&lt;/b&gt;: điểm xếp hạng&lt;/p&gt;&lt;p style=&quot;margin: 0px; margin-left: 8px;&quot;&gt;&lt;b&gt;final_rank&lt;/b&gt;: rank xếp hạng&lt;/p&gt;&lt;p style=&quot;margin: 0px 0px 0px 8px;&quot;&gt;&lt;b&gt;created_at&lt;/b&gt;: thời điểm ghi nhận&amp;nbsp;&lt;/p&gt;&lt;p style=&quot;margin: 0px 0px 0px 8px;&quot;&gt;&lt;b&gt;action_object&lt;/b&gt;: ghi nhận đối tượng tác động&lt;/p&gt;" style="verticalAlign=top;align=left;overflow=fill;fontSize=12;fontFamily=Helvetica;html=1;strokeColor=#003366;shadow=1;fillColor=#D4E1F5;fontColor=#003366;points=[[0,0,0,0,0],[0,0.16,0,0,0],[0,0.28,0,0,0],[0,0.41,0,0,0],[0,1,0,0,0],[0.25,0,0,0,0],[0.25,1,0,0,0],[0.5,0,0,0,0],[0.5,1,0,0,0],[0.75,0,0,0,0],[0.75,1,0,0,0],[1,0,0,0,0],[1,0.25,0,0,0],[1,0.5,0,0,0],[1,0.75,0,0,0],[1,1,0,0,0]];" parent="1" vertex="1">
          <mxGeometry x="-43" y="-197" width="272" height="239" as="geometry" />
        </mxCell>
        <mxCell id="z0I7IPg1x3mQbU_RCsyf-7" value="&lt;p style=&quot;margin: 0px; margin-top: 4px; text-align: center; text-decoration: underline;&quot;&gt;&lt;strong&gt;MODEL_PROCESS_STEP&lt;/strong&gt;&lt;/p&gt;&lt;hr&gt;&lt;p style=&quot;margin: 0px; margin-left: 8px;&quot;&gt;&lt;b style=&quot;background-color: initial;&quot;&gt;&lt;font color=&quot;#ff8000&quot;&gt;process_id&lt;/font&gt;&lt;/b&gt;&lt;span style=&quot;background-color: initial;&quot;&gt;: id process của DE&lt;/span&gt;&lt;/p&gt;&lt;p style=&quot;margin: 0px; margin-left: 8px;&quot;&gt;&lt;span style=&quot;background-color: initial;&quot;&gt;&lt;b&gt;is_active&lt;/b&gt;: valid/invalid record&lt;/span&gt;&lt;/p&gt;&lt;p style=&quot;margin: 0px; margin-left: 8px;&quot;&gt;&lt;b&gt;effect_type&lt;/b&gt;: loại tác động&lt;/p&gt;&lt;p style=&quot;margin: 0px; margin-left: 8px;&quot;&gt;&lt;b&gt;changed_num&lt;/b&gt;: số lần tác động&lt;/p&gt;&lt;p style=&quot;margin: 0px; margin-left: 8px;&quot;&gt;&lt;b&gt;stage&lt;/b&gt;: Mục tác động&amp;nbsp;&lt;/p&gt;&lt;p style=&quot;margin: 0px; margin-left: 8px;&quot;&gt;&lt;b&gt;step&lt;/b&gt;: Bước con trong mục tác động&lt;/p&gt;&lt;p style=&quot;margin: 0px; margin-left: 8px;&quot;&gt;&lt;b&gt;attribute&lt;/b&gt;: details tác động&lt;/p&gt;&lt;p style=&quot;margin: 0px; margin-left: 8px;&quot;&gt;&lt;b&gt;attr_code&lt;/b&gt;: mã tác động&lt;/p&gt;&lt;p style=&quot;margin: 0px; margin-left: 8px;&quot;&gt;&lt;b&gt;value&lt;/b&gt;: giá trị của tác động&lt;/p&gt;&lt;p style=&quot;margin: 0px; margin-left: 8px;&quot;&gt;&lt;b&gt;score&lt;/b&gt;: điểm quy đổi của tác động&lt;/p&gt;&lt;p style=&quot;margin: 0px; margin-left: 8px;&quot;&gt;&lt;b&gt;change_info&lt;/b&gt;: lưu thông tin details tác động/ lựa chọn&lt;/p&gt;&lt;p style=&quot;margin: 0px; margin-left: 8px;&quot;&gt;&lt;b&gt;created_at&lt;/b&gt;: thời điểm ghi nhận&amp;nbsp;&lt;/p&gt;&lt;p style=&quot;margin: 0px; margin-left: 8px;&quot;&gt;&lt;b&gt;action_object&lt;/b&gt;: ghi nhận đối tượng tác động&lt;/p&gt;" style="verticalAlign=top;align=left;overflow=fill;fontSize=12;fontFamily=Helvetica;html=1;strokeColor=#003366;shadow=1;fillColor=#D4E1F5;fontColor=#003366;points=[[0,0,0,0,0],[0,0.16,0,0,0],[0,0.23,0,0,0],[0,0.75,0,0,0],[0,1,0,0,0],[0.25,0,0,0,0],[0.25,1,0,0,0],[0.5,0,0,0,0],[0.5,1,0,0,0],[0.75,0,0,0,0],[0.75,1,0,0,0],[1,0,0,0,0],[1,0.25,0,0,0],[1,0.5,0,0,0],[1,0.75,0,0,0],[1,1,0,0,0]];" parent="1" vertex="1">
          <mxGeometry x="-43" y="-503" width="309" height="244" as="geometry" />
        </mxCell>
        <mxCell id="z0I7IPg1x3mQbU_RCsyf-8" style="rounded=0;orthogonalLoop=1;jettySize=auto;html=1;exitX=0;exitY=0.25;exitDx=0;exitDy=0;entryX=0;entryY=0.34;entryDx=0;entryDy=0;entryPerimeter=0;endArrow=ERoneToMany;endFill=0;strokeColor=#004C99;startArrow=ERone;startFill=0;edgeStyle=orthogonalEdgeStyle;" parent="1" source="z0I7IPg1x3mQbU_RCsyf-2" target="z0I7IPg1x3mQbU_RCsyf-4" edge="1">
          <mxGeometry relative="1" as="geometry">
            <Array as="points">
              <mxPoint x="-737" y="-78" />
              <mxPoint x="-737" y="-224" />
            </Array>
          </mxGeometry>
        </mxCell>
        <mxCell id="z0I7IPg1x3mQbU_RCsyf-10" style="edgeStyle=orthogonalEdgeStyle;rounded=0;orthogonalLoop=1;jettySize=auto;html=1;exitX=0;exitY=0.25;exitDx=0;exitDy=0;entryX=0;entryY=0.3;entryDx=0;entryDy=0;endArrow=ERmandOne;endFill=0;startArrow=ERmandOne;startFill=0;strokeColor=#004C99;entryPerimeter=0;exitPerimeter=0;" parent="1" source="z0I7IPg1x3mQbU_RCsyf-4" target="z0I7IPg1x3mQbU_RCsyf-13" edge="1">
          <mxGeometry relative="1" as="geometry">
            <Array as="points">
              <mxPoint x="-707" y="-238" />
              <mxPoint x="-707" y="-300" />
              <mxPoint x="-176" y="-300" />
              <mxPoint x="-176" y="-116" />
            </Array>
          </mxGeometry>
        </mxCell>
        <mxCell id="z0I7IPg1x3mQbU_RCsyf-13" value="&lt;p style=&quot;margin: 0px; margin-top: 4px; text-align: center; text-decoration: underline;&quot;&gt;&lt;strong&gt;MODEL_PROCESS&lt;/strong&gt;&lt;/p&gt;&lt;hr&gt;&lt;p style=&quot;margin: 0px; margin-left: 8px;&quot;&gt;&lt;b&gt;&lt;font color=&quot;#ff8000&quot;&gt;process_id&lt;/font&gt;&lt;/b&gt;: id process của DE&lt;b&gt;&lt;font color=&quot;#ff0a0a&quot;&gt;&lt;/font&gt;&lt;/b&gt;&lt;/p&gt;&lt;p style=&quot;margin: 0px; margin-left: 8px;&quot;&gt;&lt;b&gt;&lt;font color=&quot;#ff0a0a&quot;&gt;model_id&lt;/font&gt;&lt;/b&gt;:&amp;nbsp; id của mô hình&lt;/p&gt;&lt;p style=&quot;margin: 0px; margin-left: 8px;&quot;&gt;&lt;b&gt;model_code&lt;/b&gt;: mã của mô hình&lt;b&gt;&lt;font color=&quot;#009900&quot;&gt;&lt;/font&gt;&lt;/b&gt;&lt;/p&gt;&lt;p style=&quot;margin: 0px; margin-left: 8px;&quot;&gt;&lt;b&gt;&lt;font color=&quot;#009900&quot;&gt;input_id&lt;/font&gt;&lt;/b&gt;: id thông tin details&lt;/p&gt;&lt;p style=&quot;margin: 0px; margin-left: 8px;&quot;&gt;&lt;b&gt;&lt;font color=&quot;#009900&quot;&gt;profile_id&lt;/font&gt;&lt;/b&gt;: id của hồ sơ&lt;/p&gt;&lt;p style=&quot;margin: 0px; margin-left: 8px;&quot;&gt;&lt;b&gt;status&lt;/b&gt;: trạng thái của tiến trình&lt;/p&gt;&lt;p style=&quot;margin: 0px; margin-left: 8px;&quot;&gt;&lt;b&gt;segment&lt;/b&gt;: segment_result&lt;/p&gt;&lt;p style=&quot;margin: 0px; margin-left: 8px;&quot;&gt;&lt;b&gt;income&lt;/b&gt;: income_result&lt;/p&gt;&lt;p style=&quot;margin: 0px; margin-left: 8px;&quot;&gt;&lt;b&gt;final_score&lt;/b&gt;: điểm xếp hạng&lt;/p&gt;&lt;p style=&quot;margin: 0px; margin-left: 8px;&quot;&gt;&lt;b&gt;final_rank&lt;/b&gt;: rank xếp hạng&lt;/p&gt;&lt;p style=&quot;margin: 0px; margin-left: 8px;&quot;&gt;&lt;b&gt;is_drop&lt;/b&gt;: nếu process này bị rớt luồng&lt;/p&gt;&lt;p style=&quot;margin: 0px; margin-left: 8px;&quot;&gt;&lt;b&gt;is_choose&lt;/b&gt;: nếu process này được lựa chọn&lt;br&gt;&lt;span style=&quot;white-space: pre;&quot;&gt;&#x9;&lt;/span&gt;&lt;span style=&quot;white-space: pre;&quot;&gt;&#x9;&lt;/span&gt;&amp;nbsp; &amp;nbsp;(tại step chọn nhiều scoring)&lt;/p&gt;&lt;p style=&quot;margin: 0px 0px 0px 8px;&quot;&gt;&lt;b&gt;created_at&lt;/b&gt;: thời điểm ghi nhận&amp;nbsp;&lt;/p&gt;&lt;p style=&quot;margin: 0px 0px 0px 8px;&quot;&gt;&lt;b&gt;action_object&lt;/b&gt;: ghi nhận đối tượng tác động&lt;/p&gt;" style="verticalAlign=top;align=left;overflow=fill;fontSize=12;fontFamily=Helvetica;html=1;strokeColor=#003366;shadow=1;fillColor=#D4E1F5;fontColor=#003366;points=[[0,0,0,0,0],[0,0.15,0,0,0],[0,0.3,0,0,0],[0,0.36,0,0,0],[0,1,0,0,0],[0.25,0,0,0,0],[0.25,1,0,0,0],[0.5,0,0,0,0],[0.5,1,0,0,0],[0.75,0,0,0,0],[0.75,1,0,0,0],[1,0,0,0,0],[1,0.25,0,0,0],[1,0.5,0,0,0],[1,0.75,0,0,0],[1,1,0,0,0]];" parent="1" vertex="1">
          <mxGeometry x="-43" y="-197" width="272" height="270" as="geometry" />
        </mxCell>
        <mxCell id="z0I7IPg1x3mQbU_RCsyf-14" style="edgeStyle=orthogonalEdgeStyle;rounded=0;orthogonalLoop=1;jettySize=auto;html=1;exitX=0;exitY=0.15;exitDx=0;exitDy=0;exitPerimeter=0;entryX=0;entryY=0.16;entryDx=0;entryDy=0;entryPerimeter=0;strokeColor=#004C99;startArrow=ERone;startFill=0;endArrow=ERmany;endFill=0;" parent="1" source="z0I7IPg1x3mQbU_RCsyf-13" target="z0I7IPg1x3mQbU_RCsyf-7" edge="1">
          <mxGeometry relative="1" as="geometry">
            <Array as="points">
              <mxPoint x="-89" y="-157" />
              <mxPoint x="-89" y="-464" />
            </Array>
          </mxGeometry>
        </mxCell>
        <mxCell id="4Qupk6RtIxl11hrRT4TU-1" value="&lt;span style=&quot;text-align: left;&quot;&gt;Lưu các thông tin của hồ sơ (các thông tin 1-1 với mã hồ sơ)&lt;/span&gt;" style="rounded=1;whiteSpace=wrap;html=1;fillColor=#fff2cc;strokeColor=#d6b656;fontFamily=Courier New;fontStyle=3;spacing=5;" parent="1" vertex="1">
          <mxGeometry x="-405" y="63" width="172" height="92" as="geometry" />
        </mxCell>
        <mxCell id="4Qupk6RtIxl11hrRT4TU-2" value="&lt;span style=&quot;text-align: left;&quot;&gt;Lưu các thông tin của hồ sơ khai thác theo loại giấy tờ (các thông tin 1-n với mã hồ sơ)&lt;/span&gt;" style="rounded=1;whiteSpace=wrap;html=1;fillColor=#fff2cc;strokeColor=#d6b656;fontFamily=Courier New;fontStyle=3;spacing=5;" parent="1" vertex="1">
          <mxGeometry x="-492" y="-278" width="172" height="92" as="geometry" />
        </mxCell>
        <mxCell id="4Qupk6RtIxl11hrRT4TU-3" value="&lt;span style=&quot;text-align: left;&quot;&gt;Lưu chi tiết các step tính toán khi DE thực hiện xử lý&amp;nbsp;&lt;/span&gt;" style="rounded=1;whiteSpace=wrap;html=1;fillColor=#fff2cc;strokeColor=#d6b656;fontFamily=Courier New;fontStyle=3;spacing=5;" parent="1" vertex="1">
          <mxGeometry x="288" y="-503" width="172" height="92" as="geometry" />
        </mxCell>
        <mxCell id="4Qupk6RtIxl11hrRT4TU-4" value="&lt;span style=&quot;text-align: left;&quot;&gt;Lưu thông tin của mô hình chấm điểm sau khi hồ sơ đã xác định ra mô hình&lt;/span&gt;" style="rounded=1;whiteSpace=wrap;html=1;fillColor=#fff2cc;strokeColor=#d6b656;fontFamily=Courier New;fontStyle=3;spacing=5;" parent="1" vertex="1">
          <mxGeometry x="249" y="-197" width="172" height="92" as="geometry" />
        </mxCell>
      </root>
    </mxGraphModel>
  </diagram>
  <diagram id="fpPNBm1H6rI35v1wDyZq" name="Design_DB_v3">
    <mxGraphModel dx="2762" dy="1218" grid="0" gridSize="10" guides="1" tooltips="1" connect="1" arrows="1" fold="1" page="0" pageScale="1" pageWidth="827" pageHeight="1169" math="0" shadow="0">
      <root>
        <mxCell id="0" />
        <mxCell id="1" parent="0" />
        <mxCell id="657CFDx6Z3G2Y14YDrCX-1" value="&lt;p style=&quot;margin: 4px 0px 0px; text-align: center; text-decoration: underline; line-height: 150%;&quot;&gt;&lt;b&gt;RECEIVED_REQUEST&lt;/b&gt;&lt;/p&gt;&lt;hr&gt;&lt;p style=&quot;margin: 0px 0px 0px 8px; line-height: 150%;&quot;&gt;&lt;font color=&quot;#ff0a0a&quot;&gt;&lt;b&gt;process_id&lt;/b&gt;&lt;/font&gt;:&lt;span style=&quot;white-space: pre;&quot;&gt;&#x9;&lt;span style=&quot;white-space: pre;&quot;&gt;&#x9;&lt;/span&gt;&lt;/span&gt;id của phiên chấm điểm cho 01 hồ sơ&lt;/p&gt;&lt;p style=&quot;margin: 0px 0px 0px 8px; line-height: 150%;&quot;&gt;&lt;b&gt;input_request&lt;/b&gt;: &lt;span style=&quot;white-space: pre;&quot;&gt;&#x9;&lt;/span&gt;body đầu vào của MA gửi lên DE&lt;/p&gt;&lt;p style=&quot;margin: 0px 0px 0px 8px; line-height: 150%;&quot;&gt;&lt;b&gt;&lt;font color=&quot;#009900&quot;&gt;profile_id&lt;/font&gt;&lt;/b&gt;: &lt;span style=&quot;white-space: pre;&quot;&gt;&#x9;&lt;/span&gt;&lt;span style=&quot;white-space: pre;&quot;&gt;&#x9;&lt;/span&gt;id của hồ sơ được chấm điểm (MA truyền lên)&lt;/p&gt;&lt;p style=&quot;margin: 0px 0px 0px 8px; line-height: 150%;&quot;&gt;&lt;b&gt;is_tolerance&lt;/b&gt;: &lt;span style=&quot;white-space: pre;&quot;&gt;&#x9;&lt;/span&gt;&lt;span style=&quot;white-space: pre;&quot;&gt;&#x9;&lt;/span&gt;cho biết lần chấm có áp dụng dung sai hay không&lt;/p&gt;&lt;p style=&quot;margin: 0px 0px 0px 8px; line-height: 150%;&quot;&gt;&lt;b&gt;is_override&lt;/b&gt;:&lt;span style=&quot;white-space: pre;&quot;&gt;&#x9;&lt;/span&gt;&lt;span style=&quot;white-space: pre;&quot;&gt;&#x9;&lt;/span&gt;cho biết lần chấm có áp dụng override hay không&lt;/p&gt;&lt;p style=&quot;margin: 0px 0px 0px 8px; line-height: 150%;&quot;&gt;&lt;b&gt;order&lt;/b&gt;:&lt;span style=&quot;white-space: pre;&quot;&gt;&#x9;&lt;/span&gt;&lt;span style=&quot;white-space: pre;&quot;&gt;&#x9;&lt;/span&gt;&lt;span style=&quot;white-space: pre;&quot;&gt;&#x9;&lt;/span&gt;cho biết lần chấm thứ bao nhiêu của hồ sơ&lt;/p&gt;&lt;p style=&quot;margin: 0px 0px 0px 8px; line-height: 150%;&quot;&gt;&lt;b&gt;flow&lt;/b&gt;:&lt;span style=&quot;white-space: pre;&quot;&gt;&#x9;&lt;/span&gt;&lt;span style=&quot;white-space: pre;&quot;&gt;&#x9;&lt;/span&gt;&lt;span style=&quot;white-space: pre;&quot;&gt;&#x9;&lt;/span&gt;cho biết là luồng thường hay tự động&lt;/p&gt;&lt;p style=&quot;margin: 0px 0px 0px 8px; line-height: 150%;&quot;&gt;&lt;b&gt;is_drop&lt;/b&gt;:&lt;span style=&quot;white-space-collapse: preserve;&quot;&gt;&#x9;&lt;/span&gt;&lt;span style=&quot;white-space-collapse: preserve;&quot;&gt;&#x9;&lt;/span&gt;&lt;span style=&quot;white-space-collapse: preserve;&quot;&gt;&#x9;&lt;/span&gt;cho biết là lần chấm này có bị rớt hay không&amp;nbsp;&lt;/p&gt;&lt;p style=&quot;margin: 0px 0px 0px 8px; line-height: 150%;&quot;&gt;&lt;b&gt;create_time:&amp;nbsp;&lt;span style=&quot;white-space: pre;&quot;&gt;&#x9;&lt;/span&gt;&lt;span style=&quot;white-space: pre;&quot;&gt;&#x9;&lt;/span&gt;&lt;/b&gt;&lt;span style=&quot;background-color: initial;&quot;&gt;thời điểm ghi nhận request&lt;/span&gt;&lt;/p&gt;&lt;p style=&quot;margin: 0px 0px 0px 8px; line-height: 150%;&quot;&gt;&lt;b&gt;create_object:&amp;nbsp;&lt;span style=&quot;white-space: pre;&quot;&gt;&#x9;&lt;/span&gt;&lt;/b&gt;&lt;span style=&quot;background-color: initial;&quot;&gt;đối tượng thực hiện send request&lt;/span&gt;&lt;/p&gt;" style="verticalAlign=middle;align=left;overflow=fill;fontSize=12;fontFamily=Helvetica;html=1;strokeColor=#003366;shadow=1;fillColor=#D4E1F5;fontColor=#003366;points=[[0,0,0,0,0],[0,0.2,0,0,0],[0,0.34,0,0,0],[0,0.75,0,0,0],[0,1,0,0,0],[0.25,0,0,0,0],[0.25,1,0,0,0],[0.5,0,0,0,0],[0.5,1,0,0,0],[0.75,0,0,0,0],[0.75,1,0,0,0],[1,0,0,0,0],[1,0.25,0,0,0],[1,0.5,0,0,0],[1,0.75,0,0,0],[1,1,0,0,0]];spacingTop=0;" parent="1" vertex="1">
          <mxGeometry x="-914" y="-227" width="398" height="226" as="geometry" />
        </mxCell>
        <mxCell id="657CFDx6Z3G2Y14YDrCX-2" value="&lt;p style=&quot;margin: 4px 0px 0px; text-align: center; text-decoration: underline; line-height: 150%;&quot;&gt;&lt;b&gt;MAIN_PROCESS&lt;/b&gt;&lt;/p&gt;&lt;hr&gt;&lt;p style=&quot;margin: 0px 0px 0px 8px; line-height: 150%;&quot;&gt;&lt;b&gt;&lt;font color=&quot;#ff0000&quot;&gt;sub_process_id&lt;/font&gt;: &lt;span style=&quot;white-space: pre;&quot;&gt;&#x9;&lt;/span&gt;&lt;/b&gt;id của 01 tiến trình chấm điểm&amp;nbsp;&lt;span style=&quot;background-color: initial;&quot;&gt;cho 01 bộ&amp;nbsp;&lt;/span&gt;&lt;span style=&quot;background-color: initial;&quot;&gt;thông tin &lt;br&gt;&lt;span style=&quot;white-space: pre;&quot;&gt;&#x9;&lt;/span&gt;&lt;span style=&quot;white-space: pre;&quot;&gt;&#x9;&lt;/span&gt;&lt;span style=&quot;white-space: pre;&quot;&gt;&#x9;&lt;/span&gt;&lt;span style=&quot;white-space: pre;&quot;&gt;&#x9;&lt;/span&gt;đầu vào&lt;/span&gt;&lt;/p&gt;&lt;p style=&quot;margin: 0px 0px 0px 8px; line-height: 150%;&quot;&gt;&lt;b&gt;&lt;font color=&quot;#009900&quot;&gt;process_id&lt;/font&gt;&lt;/b&gt;: &lt;span style=&quot;white-space: pre;&quot;&gt;&#x9;&lt;/span&gt;&lt;span style=&quot;white-space: pre;&quot;&gt;&#x9;&lt;/span&gt;id của phiên chấm điểm cho 01 hồ sơ&lt;/p&gt;&lt;p style=&quot;margin: 0px 0px 0px 8px; line-height: 150%;&quot;&gt;&lt;b&gt;model_code&lt;/b&gt;: &lt;span style=&quot;white-space: pre;&quot;&gt;&#x9;&lt;/span&gt;&lt;span style=&quot;white-space: pre;&quot;&gt;&#x9;&lt;/span&gt;mã model thực hiện chấm&lt;/p&gt;&lt;p style=&quot;margin: 0px 0px 0px 8px; line-height: 150%;&quot;&gt;&lt;b&gt;status&lt;/b&gt;: &lt;span style=&quot;white-space: pre;&quot;&gt;&#x9;&lt;/span&gt;&lt;span style=&quot;white-space: pre;&quot;&gt;&#x9;&lt;/span&gt;&lt;span style=&quot;white-space: pre;&quot;&gt;&#x9;&lt;/span&gt;trạng thái của tiến trình&lt;/p&gt;&lt;p style=&quot;margin: 0px 0px 0px 8px; line-height: 150%;&quot;&gt;&lt;b&gt;segment&lt;/b&gt;: &lt;span style=&quot;white-space: pre;&quot;&gt;&#x9;&lt;/span&gt;&lt;span style=&quot;white-space: pre;&quot;&gt;&#x9;&lt;/span&gt;segment_result&lt;/p&gt;&lt;p style=&quot;margin: 0px 0px 0px 8px; line-height: 150%;&quot;&gt;&lt;b&gt;income&lt;/b&gt;: &lt;span style=&quot;white-space: pre;&quot;&gt;&#x9;&lt;/span&gt;&lt;span style=&quot;white-space: pre;&quot;&gt;&#x9;&lt;/span&gt;&lt;span style=&quot;white-space: pre;&quot;&gt;&#x9;&lt;/span&gt;income_result&lt;/p&gt;&lt;p style=&quot;margin: 0px 0px 0px 8px; line-height: 150%;&quot;&gt;&lt;b&gt;final_score&lt;/b&gt;: &lt;span style=&quot;white-space: pre;&quot;&gt;&#x9;&lt;/span&gt;&lt;span style=&quot;white-space: pre;&quot;&gt;&#x9;&lt;/span&gt;điểm xếp hạng&lt;/p&gt;&lt;p style=&quot;margin: 0px 0px 0px 8px; line-height: 150%;&quot;&gt;&lt;b&gt;final_rank&lt;/b&gt;: &lt;span style=&quot;white-space: pre;&quot;&gt;&#x9;&lt;/span&gt;&lt;span style=&quot;white-space: pre;&quot;&gt;&#x9;&lt;/span&gt;rank xếp hạng&lt;/p&gt;&lt;p style=&quot;margin: 0px 0px 0px 8px; line-height: 150%;&quot;&gt;&lt;b&gt;create_time&lt;/b&gt;: &lt;span style=&quot;white-space: pre;&quot;&gt;&#x9;&lt;/span&gt;&lt;span style=&quot;white-space: pre;&quot;&gt;&#x9;&lt;/span&gt;thời điểm ghi nhận&lt;/p&gt;&lt;p style=&quot;margin: 0px 0px 0px 8px; line-height: 150%;&quot;&gt;&lt;b&gt;updated_time&lt;/b&gt;: &lt;span style=&quot;white-space: pre;&quot;&gt;&#x9;&lt;/span&gt;thời điểm cuối cùng mà bản ghi được update&lt;/p&gt;&lt;p style=&quot;margin: 0px; margin-left: 8px;&quot;&gt;&lt;br&gt;&lt;/p&gt;" style="verticalAlign=top;align=left;overflow=fill;fontSize=12;fontFamily=Helvetica;html=1;strokeColor=#003366;shadow=1;fillColor=#D4E1F5;fontColor=#003366;points=[[0,0,0,0,0],[0,0.17,0,0,0],[0,0.32,0,0,0],[0,0.75,0,0,0],[0,1,0,0,0],[0.25,0,0,0,0],[0.25,1,0,0,0],[0.5,0,0,0,0],[0.5,1,0,0,0],[0.75,0,0,0,0],[0.75,1,0,0,0],[1,0,0,0,0],[1,0.25,0,0,0],[1,0.5,0,0,0],[1,0.75,0,0,0],[1,1,0,0,0]];" parent="1" vertex="1">
          <mxGeometry x="-442" y="61" width="397" height="257" as="geometry" />
        </mxCell>
        <mxCell id="Uhmt3I2GyuAoAQk7z5RF-1" value="&lt;p style=&quot;margin: 4px 0px 0px; text-align: center; text-decoration: underline; line-height: 150%;&quot;&gt;&lt;b&gt;INPUT_FOR_MODELING&lt;/b&gt;&lt;/p&gt;&lt;hr&gt;&lt;p style=&quot;margin: 0px 0px 0px 8px; line-height: 150%;&quot;&gt;&lt;b&gt;&lt;font color=&quot;#009900&quot;&gt;sub_process_id&lt;/font&gt;&lt;/b&gt;: &lt;span style=&quot;white-space: pre;&quot;&gt;&#x9;&lt;/span&gt;id của 01 tiến trình chấm điểm&amp;nbsp;&lt;/p&gt;&lt;p style=&quot;margin: 0px 0px 0px 8px; line-height: 150%;&quot;&gt;&lt;b&gt;source:&amp;nbsp;&lt;span style=&quot;white-space: pre;&quot;&gt;&#x9;&lt;/span&gt;&lt;span style=&quot;white-space: pre;&quot;&gt;&#x9;&lt;/span&gt;&lt;span style=&quot;white-space: pre;&quot;&gt;&#x9;&lt;/span&gt;&lt;/b&gt;&lt;span style=&quot;background-color: initial;&quot;&gt;nguồn của thông tin&amp;nbsp;&lt;/span&gt;&lt;/p&gt;&lt;p style=&quot;margin: 0px 0px 0px 8px; line-height: 150%;&quot;&gt;&lt;b&gt;attribute:&amp;nbsp;&lt;span style=&quot;white-space: pre;&quot;&gt;&#x9;&lt;/span&gt;&lt;span style=&quot;white-space: pre;&quot;&gt;&#x9;&lt;/span&gt;&lt;/b&gt;&lt;span style=&quot;background-color: initial;&quot;&gt;tên loại thông tin&amp;nbsp;&lt;/span&gt;&lt;/p&gt;&lt;p style=&quot;margin: 0px 0px 0px 8px; line-height: 150%;&quot;&gt;&lt;b&gt;value:&amp;nbsp;&lt;span style=&quot;white-space: pre;&quot;&gt;&#x9;&lt;/span&gt;&lt;span style=&quot;white-space: pre;&quot;&gt;&#x9;&lt;/span&gt;&lt;span style=&quot;white-space: pre;&quot;&gt;&#x9;&lt;/span&gt;&lt;/b&gt;&lt;span style=&quot;background-color: initial;&quot;&gt;giá trị của loại thông tin tương ứng&lt;/span&gt;&lt;/p&gt;&lt;p style=&quot;margin: 0px 0px 0px 8px; line-height: 150%;&quot;&gt;&lt;b&gt;create_time:&amp;nbsp;&lt;span style=&quot;white-space: pre;&quot;&gt;&#x9;&lt;/span&gt;&lt;span style=&quot;white-space: pre;&quot;&gt;&#x9;&lt;/span&gt;&lt;/b&gt;&lt;span style=&quot;background-color: initial;&quot;&gt;thời điểm ghi nhận của bản ghi&lt;/span&gt;&lt;/p&gt;&lt;p style=&quot;margin: 0px 0px 0px 8px; line-height: 150%;&quot;&gt;&lt;b&gt;create_object:&amp;nbsp;&lt;span style=&quot;white-space: pre;&quot;&gt;&#x9;&lt;/span&gt;&lt;/b&gt;&lt;span style=&quot;background-color: initial;&quot;&gt;đối tượng thực hiện&lt;/span&gt;&lt;/p&gt;" style="verticalAlign=top;align=left;overflow=fill;fontSize=12;fontFamily=Helvetica;html=1;strokeColor=#003366;shadow=1;fillColor=#D4E1F5;fontColor=#003366;points=[[0,0,0,0,0],[0,0.23,0,0,0],[0,0.34,0,0,0],[0,0.75,0,0,0],[0,1,0,0,0],[0.25,0,0,0,0],[0.25,1,0,0,0],[0.5,0,0,0,0],[0.5,1,0,0,0],[0.75,0,0,0,0],[0.75,1,0,0,0],[1,0,0,0,0],[1,0.25,0,0,0],[1,0.5,0,0,0],[1,0.75,0,0,0],[1,1,0,0,0]];" parent="1" vertex="1">
          <mxGeometry x="-395" y="-334" width="360" height="183" as="geometry" />
        </mxCell>
        <mxCell id="B8Ostjb5MPrPtA4IFdvO-1" value="&lt;p style=&quot;margin: 4px 0px 0px; text-align: center; text-decoration: underline; line-height: 150%;&quot;&gt;&lt;b&gt;PROCESS_STEP&lt;/b&gt;&lt;/p&gt;&lt;hr&gt;&lt;p style=&quot;margin: 0px 0px 0px 8px; line-height: 150%;&quot;&gt;&lt;b&gt;&lt;font color=&quot;#009900&quot;&gt;sub_process_id&lt;/font&gt;:&lt;span style=&quot;white-space: pre;&quot;&gt;&#x9;&lt;/span&gt;&lt;/b&gt;id của 01 tiến trình chấm điểm&amp;nbsp;&lt;span style=&quot;background-color: initial;&quot;&gt;cho 01 bộ&amp;nbsp;&lt;/span&gt;&lt;/p&gt;&lt;p style=&quot;margin: 0px 0px 0px 8px; line-height: 150%;&quot;&gt;&lt;b&gt;source&lt;/b&gt;: &lt;span style=&quot;white-space: pre;&quot;&gt;&#x9;&lt;/span&gt;&lt;span style=&quot;white-space: pre;&quot;&gt;&#x9;&lt;/span&gt;&lt;span style=&quot;white-space: pre;&quot;&gt;&#x9;&lt;/span&gt;nguồn tương ứng với thông tin mà bản ghi phản ánh&lt;/p&gt;&lt;p style=&quot;margin: 0px 0px 0px 8px; line-height: 150%;&quot;&gt;&lt;b&gt;type&lt;/b&gt;: &lt;span style=&quot;white-space: pre;&quot;&gt;&#x9;&lt;/span&gt;&lt;span style=&quot;white-space: pre;&quot;&gt;&#x9;&lt;/span&gt;&lt;span style=&quot;white-space: pre;&quot;&gt;&#x9;&lt;/span&gt;cho biết loại thông tin của step&lt;/p&gt;&lt;p style=&quot;margin: 0px 0px 0px 8px; line-height: 150%;&quot;&gt;&lt;b&gt;attribute&lt;/b&gt;: &lt;span style=&quot;white-space: pre;&quot;&gt;&#x9;&lt;/span&gt;&lt;span style=&quot;white-space: pre;&quot;&gt;&#x9;&lt;/span&gt;tên loại thông tin&lt;/p&gt;&lt;p style=&quot;margin: 0px 0px 0px 8px; line-height: 150%;&quot;&gt;&lt;b&gt;value&lt;/b&gt;: &lt;span style=&quot;white-space: pre;&quot;&gt;&#x9;&lt;/span&gt;&lt;span style=&quot;white-space: pre;&quot;&gt;&#x9;&lt;/span&gt;&lt;span style=&quot;white-space: pre;&quot;&gt;&#x9;&lt;/span&gt;giá trị của loại thông tin tương ứng&lt;/p&gt;&lt;p style=&quot;margin: 0px 0px 0px 8px; line-height: 150%;&quot;&gt;&lt;b&gt;score&lt;/b&gt;: &lt;span style=&quot;white-space: pre;&quot;&gt;&#x9;&lt;/span&gt;&lt;span style=&quot;white-space: pre;&quot;&gt;&#x9;&lt;/span&gt;&lt;span style=&quot;white-space: pre;&quot;&gt;&#x9;&lt;/span&gt;điểm tương ứng với thông tin dùng để chấm điểm &lt;br&gt;&lt;span style=&quot;white-space: pre;&quot;&gt;&#x9;&lt;/span&gt;&lt;span style=&quot;white-space: pre;&quot;&gt;&#x9;&lt;/span&gt;&lt;span style=&quot;white-space: pre;&quot;&gt;&#x9;&lt;/span&gt;&lt;span style=&quot;white-space: pre;&quot;&gt;&#x9;&lt;/span&gt;mô hình&amp;nbsp;&lt;span style=&quot;background-color: initial;&quot;&gt;(nếu có)&lt;/span&gt;&lt;/p&gt;&lt;p style=&quot;margin: 0px 0px 0px 8px; line-height: 150%;&quot;&gt;&lt;b&gt;create_time&lt;/b&gt;: &lt;span style=&quot;white-space: pre;&quot;&gt;&#x9;&lt;/span&gt;&lt;span style=&quot;white-space: pre;&quot;&gt;&#x9;&lt;/span&gt;thời gian ghi nhận bản ghi&amp;nbsp;&lt;/p&gt;" style="verticalAlign=top;align=left;overflow=fill;fontSize=12;fontFamily=Helvetica;html=1;strokeColor=#003366;shadow=1;fillColor=#D4E1F5;fontColor=#003366;points=[[0,0,0,0,0],[0,0.18,0,0,0],[0,0.34,0,0,0],[0,0.75,0,0,0],[0,1,0,0,0],[0.25,0,0,0,0],[0.25,1,0,0,0],[0.5,0,0,0,0],[0.5,1,0,0,0],[0.75,0,0,0,0],[0.75,1,0,0,0],[1,0,0,0,0],[1,0.25,0,0,0],[1,0.5,0,0,0],[1,0.75,0,0,0],[1,1,0,0,0]];" parent="1" vertex="1">
          <mxGeometry x="39" y="-57" width="400" height="239" as="geometry" />
        </mxCell>
        <mxCell id="G5QqcEl_T-ftqgfSbIxA-1" style="edgeStyle=orthogonalEdgeStyle;rounded=0;orthogonalLoop=1;jettySize=auto;html=1;exitX=0;exitY=0.32;exitDx=0;exitDy=0;exitPerimeter=0;entryX=0;entryY=0.2;entryDx=0;entryDy=0;entryPerimeter=0;startArrow=ERmany;startFill=0;endArrow=ERone;endFill=0;strokeColor=#003366;" edge="1" parent="1" source="657CFDx6Z3G2Y14YDrCX-2" target="657CFDx6Z3G2Y14YDrCX-1">
          <mxGeometry relative="1" as="geometry">
            <Array as="points">
              <mxPoint x="-961" y="143" />
              <mxPoint x="-961" y="-181" />
            </Array>
          </mxGeometry>
        </mxCell>
        <mxCell id="xcZNVAJIpoW9D2uIjAnM-1" style="edgeStyle=orthogonalEdgeStyle;rounded=0;orthogonalLoop=1;jettySize=auto;html=1;exitX=0;exitY=0.17;exitDx=0;exitDy=0;exitPerimeter=0;entryX=0;entryY=0.18;entryDx=0;entryDy=0;entryPerimeter=0;startArrow=ERone;startFill=0;endArrow=ERmany;endFill=0;strokeColor=#003366;" edge="1" parent="1" source="657CFDx6Z3G2Y14YDrCX-2" target="B8Ostjb5MPrPtA4IFdvO-1">
          <mxGeometry relative="1" as="geometry" />
        </mxCell>
        <mxCell id="xcZNVAJIpoW9D2uIjAnM-2" style="edgeStyle=orthogonalEdgeStyle;rounded=0;orthogonalLoop=1;jettySize=auto;html=1;exitX=0;exitY=0.17;exitDx=0;exitDy=0;exitPerimeter=0;entryX=0;entryY=0.23;entryDx=0;entryDy=0;entryPerimeter=0;endArrow=ERmany;endFill=0;strokeColor=#003366;" edge="1" parent="1" source="657CFDx6Z3G2Y14YDrCX-2" target="Uhmt3I2GyuAoAQk7z5RF-1">
          <mxGeometry relative="1" as="geometry">
            <Array as="points">
              <mxPoint x="-489" y="105" />
              <mxPoint x="-489" y="-292" />
            </Array>
          </mxGeometry>
        </mxCell>
      </root>
    </mxGraphModel>
  </diagram>
  <diagram id="0eJyKhPOY1moG-EOdd8e" name="Manual Flow">
    <mxGraphModel dx="2767" dy="1488" grid="0" gridSize="10" guides="1" tooltips="1" connect="1" arrows="1" fold="1" page="0" pageScale="1" pageWidth="827" pageHeight="1169" math="0" shadow="0">
      <root>
        <mxCell id="0" />
        <mxCell id="1" parent="0" />
        <mxCell id="RQRsrTTXQ6HWwmG4QHCP-2" value="Model App" style="swimlane;whiteSpace=wrap;html=1;fillColor=#f8cecc;strokeColor=#b85450;swimlaneFillColor=#FEF5F5;fontSize=20;movable=0;resizable=0;rotatable=0;deletable=0;editable=0;locked=1;connectable=0;" parent="1" vertex="1">
          <mxGeometry x="383" y="177.5" width="894" height="2300" as="geometry" />
        </mxCell>
        <mxCell id="RQRsrTTXQ6HWwmG4QHCP-11" value="2. Khởi tạo hồ sơ" style="rounded=0;whiteSpace=wrap;html=1;fontSize=18;fillColor=#fff2cc;strokeColor=#d6b656;" parent="RQRsrTTXQ6HWwmG4QHCP-2" vertex="1">
          <mxGeometry x="309.75" y="140" width="250" height="70" as="geometry" />
        </mxCell>
        <mxCell id="E3YPdvjCtiq694NVA4ly-7" style="edgeStyle=orthogonalEdgeStyle;rounded=0;orthogonalLoop=1;jettySize=auto;html=1;exitX=0;exitY=0.5;exitDx=0;exitDy=0;entryX=1;entryY=0.5;entryDx=0;entryDy=0;strokeWidth=1;strokeColor=#004C99;" parent="RQRsrTTXQ6HWwmG4QHCP-2" source="RQRsrTTXQ6HWwmG4QHCP-13" target="RQRsrTTXQ6HWwmG4QHCP-15" edge="1">
          <mxGeometry relative="1" as="geometry" />
        </mxCell>
        <mxCell id="RQRsrTTXQ6HWwmG4QHCP-13" value="3. Lấy dữ liệu bổ sung dựa vào GTTT và CIF của khác hàng (Casa/CIC/v..v)" style="rounded=0;whiteSpace=wrap;html=1;fontSize=16;fillColor=#fff2cc;strokeColor=#d6b656;" parent="RQRsrTTXQ6HWwmG4QHCP-2" vertex="1">
          <mxGeometry x="461.53" y="260" width="285.47" height="70" as="geometry" />
        </mxCell>
        <mxCell id="pMFJ98IExyhr10BE2n5P-40" style="edgeStyle=orthogonalEdgeStyle;rounded=0;orthogonalLoop=1;jettySize=auto;html=1;exitX=0.5;exitY=1;exitDx=0;exitDy=0;entryX=0.5;entryY=0;entryDx=0;entryDy=0;curved=1;strokeWidth=1;strokeColor=#004C99;" parent="RQRsrTTXQ6HWwmG4QHCP-2" source="RQRsrTTXQ6HWwmG4QHCP-15" target="E3YPdvjCtiq694NVA4ly-6" edge="1">
          <mxGeometry relative="1" as="geometry" />
        </mxCell>
        <mxCell id="RQRsrTTXQ6HWwmG4QHCP-15" value="4a. Xác định Model &amp;amp;&lt;br&gt;bộ câu hỏi tiêu chí của Model tương ứng (Model App)" style="rounded=0;whiteSpace=wrap;html=1;fontSize=17;fillColor=#fff2cc;strokeColor=#d6b656;" parent="RQRsrTTXQ6HWwmG4QHCP-2" vertex="1">
          <mxGeometry x="145" y="260" width="263" height="70" as="geometry" />
        </mxCell>
        <mxCell id="2K1D6Y8xOojCWSPqwoII-2" style="edgeStyle=orthogonalEdgeStyle;rounded=0;orthogonalLoop=1;jettySize=auto;html=1;exitX=0.5;exitY=1;exitDx=0;exitDy=0;entryX=0.5;entryY=0;entryDx=0;entryDy=0;strokeColor=#004C99;curved=1;" parent="RQRsrTTXQ6HWwmG4QHCP-2" source="E3YPdvjCtiq694NVA4ly-6" target="2K1D6Y8xOojCWSPqwoII-1" edge="1">
          <mxGeometry relative="1" as="geometry">
            <mxPoint x="540.2599999999998" y="419.4999999999998" as="targetPoint" />
          </mxGeometry>
        </mxCell>
        <mxCell id="E3YPdvjCtiq694NVA4ly-6" value="5. Nhập/ Lấy thông tin trả lời tương ứng với các câu hỏi đã define ở bước 4&lt;div&gt;( Tự lấy/Nhập liệu/ 3RD)&lt;/div&gt;" style="rounded=0;whiteSpace=wrap;html=1;fontSize=18;fillColor=#fff2cc;strokeColor=#d6b656;" parent="RQRsrTTXQ6HWwmG4QHCP-2" vertex="1">
          <mxGeometry x="210" y="403.5" width="474" height="114.5" as="geometry" />
        </mxCell>
        <mxCell id="2K1D6Y8xOojCWSPqwoII-1" value="b. Sử dụng thông tin từ&lt;span style=&quot;background-color: initial;&quot;&gt;&amp;nbsp;3RD ?&lt;/span&gt;" style="rhombus;whiteSpace=wrap;html=1;fillColor=#b0e3e6;strokeColor=#0e8088;fontSize=16;" parent="RQRsrTTXQ6HWwmG4QHCP-2" vertex="1">
          <mxGeometry x="171" y="590.5" width="217.48" height="107.5" as="geometry" />
        </mxCell>
        <mxCell id="2K1D6Y8xOojCWSPqwoII-6" value="7. Nhận thông tin Scoring 3rd" style="rounded=0;whiteSpace=wrap;html=1;fontSize=18;fillColor=#fff2cc;strokeColor=#d6b656;" parent="RQRsrTTXQ6HWwmG4QHCP-2" vertex="1">
          <mxGeometry x="585" y="675.5" width="250" height="70" as="geometry" />
        </mxCell>
        <mxCell id="pMFJ98IExyhr10BE2n5P-10" value="9. User lựa chọn kết quả Scoring" style="rounded=0;whiteSpace=wrap;html=1;fontSize=18;fillColor=#fff2cc;strokeColor=#d6b656;" parent="RQRsrTTXQ6HWwmG4QHCP-2" vertex="1">
          <mxGeometry x="253.5" y="942.5" width="387" height="70" as="geometry" />
        </mxCell>
        <mxCell id="pMFJ98IExyhr10BE2n5P-20" style="edgeStyle=orthogonalEdgeStyle;rounded=0;orthogonalLoop=1;jettySize=auto;html=1;exitX=1;exitY=0.5;exitDx=0;exitDy=0;entryX=0;entryY=0.5;entryDx=0;entryDy=0;strokeColor=#004C99;curved=1;" parent="RQRsrTTXQ6HWwmG4QHCP-2" source="pMFJ98IExyhr10BE2n5P-18" target="pMFJ98IExyhr10BE2n5P-19" edge="1">
          <mxGeometry relative="1" as="geometry" />
        </mxCell>
        <mxCell id="pMFJ98IExyhr10BE2n5P-21" value="YES" style="edgeLabel;html=1;align=center;verticalAlign=middle;resizable=0;points=[];fontStyle=1;fontSize=17;fontColor=#009900;" parent="pMFJ98IExyhr10BE2n5P-20" vertex="1" connectable="0">
          <mxGeometry x="-0.2797" y="1" relative="1" as="geometry">
            <mxPoint x="-3" y="1" as="offset" />
          </mxGeometry>
        </mxCell>
        <mxCell id="pMFJ98IExyhr10BE2n5P-18" value="e. Có bổ&lt;div&gt;sung Dung Sai&lt;/div&gt;" style="rhombus;whiteSpace=wrap;html=1;fillColor=#b0e3e6;strokeColor=#0e8088;fontSize=17;" parent="RQRsrTTXQ6HWwmG4QHCP-2" vertex="1">
          <mxGeometry x="182.99999999999997" y="1291.5" width="217.48" height="103" as="geometry" />
        </mxCell>
        <mxCell id="pMFJ98IExyhr10BE2n5P-19" value="11. User chọn các câu hỏi/ tiêu chí được áp dụng&amp;nbsp;&lt;div&gt;[Dung sai thủ công]&lt;/div&gt;" style="rounded=0;whiteSpace=wrap;html=1;fontSize=17;fillColor=#fff2cc;strokeColor=#d6b656;" parent="RQRsrTTXQ6HWwmG4QHCP-2" vertex="1">
          <mxGeometry x="524" y="1307.5" width="250" height="70" as="geometry" />
        </mxCell>
        <mxCell id="pMFJ98IExyhr10BE2n5P-26" value="" style="curved=1;endArrow=classic;html=1;rounded=0;exitX=1;exitY=0.5;exitDx=0;exitDy=0;entryX=1;entryY=0.5;entryDx=0;entryDy=0;strokeWidth=1;strokeColor=#004C99;" parent="RQRsrTTXQ6HWwmG4QHCP-2" source="RQRsrTTXQ6HWwmG4QHCP-11" target="RQRsrTTXQ6HWwmG4QHCP-13" edge="1">
          <mxGeometry width="50" height="50" relative="1" as="geometry">
            <mxPoint x="535" y="166" as="sourcePoint" />
            <mxPoint x="585" y="116" as="targetPoint" />
            <Array as="points">
              <mxPoint x="899" y="168.5" />
            </Array>
          </mxGeometry>
        </mxCell>
        <mxCell id="fcdAwIeJuJOCpPH41J3Q-11" style="edgeStyle=orthogonalEdgeStyle;rounded=0;orthogonalLoop=1;jettySize=auto;html=1;exitX=1;exitY=0.5;exitDx=0;exitDy=0;entryX=0;entryY=0.5;entryDx=0;entryDy=0;strokeColor=#004C99;" parent="RQRsrTTXQ6HWwmG4QHCP-2" source="fcdAwIeJuJOCpPH41J3Q-9" target="fcdAwIeJuJOCpPH41J3Q-10" edge="1">
          <mxGeometry relative="1" as="geometry" />
        </mxCell>
        <mxCell id="TrvXKv_rFkBpBsxXRwwZ-4" value="YES" style="edgeLabel;html=1;align=center;verticalAlign=middle;resizable=0;points=[];fontStyle=1;fontSize=17;fontColor=#009900;" parent="fcdAwIeJuJOCpPH41J3Q-11" vertex="1" connectable="0">
          <mxGeometry x="-0.5467" y="-2" relative="1" as="geometry">
            <mxPoint as="offset" />
          </mxGeometry>
        </mxCell>
        <mxCell id="fcdAwIeJuJOCpPH41J3Q-9" value="g. Có bổ&lt;div&gt;sung Override&lt;/div&gt;" style="rhombus;whiteSpace=wrap;html=1;fillColor=#b0e3e6;strokeColor=#0e8088;fontSize=17;" parent="RQRsrTTXQ6HWwmG4QHCP-2" vertex="1">
          <mxGeometry x="183" y="1656.5" width="217.48" height="103" as="geometry" />
        </mxCell>
        <mxCell id="fcdAwIeJuJOCpPH41J3Q-10" value="13. User lựa chọn nâng hạng cho các tiêu chí được áp dụng [Override thủ công]" style="rounded=0;whiteSpace=wrap;html=1;fontSize=17;fillColor=#fff2cc;strokeColor=#d6b656;" parent="RQRsrTTXQ6HWwmG4QHCP-2" vertex="1">
          <mxGeometry x="517" y="1673" width="250" height="70" as="geometry" />
        </mxCell>
        <mxCell id="VuIohzIlLXPNprKp4xO4-30" value="14. User thực hiện trả lời các câu hỏi của Mô hình tiêu chí phụ" style="rounded=0;whiteSpace=wrap;html=1;fontSize=17;fillColor=#fff2cc;strokeColor=#d6b656;" parent="RQRsrTTXQ6HWwmG4QHCP-2" vertex="1">
          <mxGeometry x="311" y="1941.5" width="272" height="70" as="geometry" />
        </mxCell>
        <mxCell id="RQRsrTTXQ6HWwmG4QHCP-7" value="Digi Lending" style="swimlane;whiteSpace=wrap;html=1;fillColor=#dae8fc;strokeColor=#6c8ebf;swimlaneFillColor=#F8FAFE;fontSize=20;movable=0;resizable=0;rotatable=0;deletable=0;editable=0;locked=1;connectable=0;" parent="1" vertex="1">
          <mxGeometry x="133" y="177.5" width="250" height="2300" as="geometry" />
        </mxCell>
        <mxCell id="RQRsrTTXQ6HWwmG4QHCP-10" style="edgeStyle=orthogonalEdgeStyle;rounded=0;orthogonalLoop=1;jettySize=auto;html=1;exitX=0.5;exitY=1;exitDx=0;exitDy=0;entryX=0.5;entryY=0;entryDx=0;entryDy=0;strokeColor=#004C99;" parent="RQRsrTTXQ6HWwmG4QHCP-7" source="RQRsrTTXQ6HWwmG4QHCP-8" target="RQRsrTTXQ6HWwmG4QHCP-9" edge="1">
          <mxGeometry relative="1" as="geometry" />
        </mxCell>
        <mxCell id="RQRsrTTXQ6HWwmG4QHCP-8" value="START" style="ellipse;whiteSpace=wrap;html=1;aspect=fixed;fillColor=#fff2cc;strokeColor=#d6b656;gradientColor=#ffd966;fontStyle=1;fontColor=#FF0303;fontSize=16;" parent="RQRsrTTXQ6HWwmG4QHCP-7" vertex="1">
          <mxGeometry x="100" y="43" width="50" height="50" as="geometry" />
        </mxCell>
        <mxCell id="RQRsrTTXQ6HWwmG4QHCP-9" value="1. Gửi yêu cầu tạo hồ sơ" style="rounded=0;whiteSpace=wrap;html=1;fontSize=18;fillColor=#fff2cc;strokeColor=#d6b656;" parent="RQRsrTTXQ6HWwmG4QHCP-7" vertex="1">
          <mxGeometry x="50" y="140" width="150" height="70" as="geometry" />
        </mxCell>
        <mxCell id="pMFJ98IExyhr10BE2n5P-37" style="edgeStyle=orthogonalEdgeStyle;rounded=0;orthogonalLoop=1;jettySize=auto;html=1;exitX=0;exitY=0.5;exitDx=0;exitDy=0;entryX=1;entryY=0.5;entryDx=0;entryDy=0;curved=1;strokeColor=#004C99;" parent="RQRsrTTXQ6HWwmG4QHCP-7" source="pMFJ98IExyhr10BE2n5P-32" target="pMFJ98IExyhr10BE2n5P-36" edge="1">
          <mxGeometry relative="1" as="geometry" />
        </mxCell>
        <mxCell id="pMFJ98IExyhr10BE2n5P-36" value="END" style="ellipse;whiteSpace=wrap;html=1;aspect=fixed;fillColor=#fff2cc;strokeColor=#d6b656;gradientColor=#ffd966;fontStyle=1;fontColor=#FF0303;fontSize=16;" parent="RQRsrTTXQ6HWwmG4QHCP-7" vertex="1">
          <mxGeometry x="40" y="2189.5" width="50" height="50" as="geometry" />
        </mxCell>
        <mxCell id="pMFJ98IExyhr10BE2n5P-32" value="15. Trả kết quả Final Score/Final Rating&amp;nbsp;" style="rounded=0;whiteSpace=wrap;html=1;fontSize=17;fillColor=#d5e8d4;strokeColor=#82b366;movable=1;resizable=1;rotatable=1;deletable=1;editable=1;locked=0;connectable=1;" parent="RQRsrTTXQ6HWwmG4QHCP-7" vertex="1">
          <mxGeometry x="138" y="2179.5" width="250" height="70" as="geometry" />
        </mxCell>
        <mxCell id="RQRsrTTXQ6HWwmG4QHCP-4" value="3RD" style="swimlane;whiteSpace=wrap;html=1;fillColor=#e1d5e7;strokeColor=#9673a6;swimlaneFillColor=#F9F7FA;fontSize=20;movable=0;resizable=0;rotatable=0;deletable=0;editable=0;locked=1;connectable=0;" parent="1" vertex="1">
          <mxGeometry x="1277" y="177.5" width="318" height="2300" as="geometry" />
        </mxCell>
        <mxCell id="2K1D6Y8xOojCWSPqwoII-3" value="6. Trả thông tin&lt;span style=&quot;background-color: initial;&quot;&gt;&amp;nbsp;3rd&lt;/span&gt;" style="rounded=0;whiteSpace=wrap;html=1;fontSize=18;fillColor=#fff2cc;strokeColor=#d6b656;movable=1;resizable=1;rotatable=1;deletable=1;editable=1;locked=0;connectable=1;" parent="RQRsrTTXQ6HWwmG4QHCP-4" vertex="1">
          <mxGeometry x="62.5" y="520.5" width="193" height="70" as="geometry" />
        </mxCell>
        <mxCell id="E3YPdvjCtiq694NVA4ly-10" style="edgeStyle=orthogonalEdgeStyle;rounded=0;orthogonalLoop=1;jettySize=auto;html=1;exitX=1;exitY=0.5;exitDx=0;exitDy=0;entryX=0;entryY=0.5;entryDx=0;entryDy=0;strokeColor=#004C99;strokeWidth=1;" parent="1" source="RQRsrTTXQ6HWwmG4QHCP-9" target="RQRsrTTXQ6HWwmG4QHCP-11" edge="1">
          <mxGeometry relative="1" as="geometry" />
        </mxCell>
        <mxCell id="2K1D6Y8xOojCWSPqwoII-4" style="rounded=0;orthogonalLoop=1;jettySize=auto;html=1;exitX=1;exitY=0.5;exitDx=0;exitDy=0;entryX=0;entryY=0.25;entryDx=0;entryDy=0;strokeWidth=1;strokeColor=#004C99;edgeStyle=orthogonalEdgeStyle;curved=1;" parent="1" source="2K1D6Y8xOojCWSPqwoII-1" target="2K1D6Y8xOojCWSPqwoII-3" edge="1">
          <mxGeometry relative="1" as="geometry" />
        </mxCell>
        <mxCell id="2K1D6Y8xOojCWSPqwoII-5" value="YES" style="edgeLabel;html=1;align=center;verticalAlign=middle;resizable=0;points=[];fontSize=17;fontColor=#009900;fontStyle=1" parent="2K1D6Y8xOojCWSPqwoII-4" vertex="1" connectable="0">
          <mxGeometry x="-0.8789" relative="1" as="geometry">
            <mxPoint x="19" y="1" as="offset" />
          </mxGeometry>
        </mxCell>
        <mxCell id="pMFJ98IExyhr10BE2n5P-27" style="rounded=0;orthogonalLoop=1;jettySize=auto;html=1;entryX=0.5;entryY=0;entryDx=0;entryDy=0;strokeWidth=1;strokeColor=#004C99;exitX=0.556;exitY=1.006;exitDx=0;exitDy=0;edgeStyle=orthogonalEdgeStyle;curved=1;exitPerimeter=0;" parent="1" source="2K1D6Y8xOojCWSPqwoII-3" target="2K1D6Y8xOojCWSPqwoII-6" edge="1">
          <mxGeometry relative="1" as="geometry">
            <mxPoint x="1382" y="872" as="sourcePoint" />
          </mxGeometry>
        </mxCell>
        <mxCell id="w3Q0gf3X84ZOtAF1zIFi-1" value="LUỒNG THƯỜNG (MANUAL)" style="text;html=1;align=left;verticalAlign=middle;whiteSpace=wrap;rounded=0;fontStyle=1;fontSize=30;fontFamily=Helvetica;labelBackgroundColor=none;labelBorderColor=none;textShadow=1;fontColor=#004C99;movable=1;resizable=1;rotatable=1;deletable=1;editable=1;locked=0;connectable=1;" parent="1" vertex="1">
          <mxGeometry x="133" y="87" width="450" height="48" as="geometry" />
        </mxCell>
        <mxCell id="zIWFY0Lq1EeVD-eXopKP-3" value="&lt;div&gt;&lt;b&gt;Flow của luồng manual:&lt;/b&gt;&lt;/div&gt;&lt;div&gt;&lt;span style=&quot;background-color: initial;&quot;&gt;1.Các System tham gia:&lt;/span&gt;&lt;/div&gt;&lt;div&gt;&amp;nbsp;- &lt;b&gt;Digi Lending&lt;/b&gt;: Đầu vào, nơi ghi nhận thông tin từ end-user (customer)&lt;/div&gt;&lt;div&gt;&amp;nbsp;- &lt;b&gt;Model&amp;nbsp; App&lt;/b&gt;: Hệ thống cho phép nhân sự tương tác với luồng chấm điểm (quá trình tương tác như lựa chọn mô hình, nhập thông tin, lựa chọn kết quả, điều chỉnh dung sai, override ..v.v). Đây cũng là hệ thống cho phép tra cứu thông tin, audit, báo cáo, vận hành của model chấm điểm xhtd ở cả luồng thường và tự động.&lt;/div&gt;&lt;div&gt;- &lt;b&gt;Decision Engine&lt;/b&gt;: Hệ thống tự động ra quyết định&lt;/div&gt;&lt;div&gt;- &lt;b&gt;3RD&lt;/b&gt;: Thu thập thông tin tương ứng từ các nguồn dữ liệu tin cậy không nằm tại MSB&lt;/div&gt;&lt;div&gt;&lt;br&gt;&lt;/div&gt;&lt;div&gt;2. Mô tả Flow:&amp;nbsp;&lt;/div&gt;&lt;div&gt;&amp;lt;updateing&amp;gt;&lt;/div&gt;&lt;div&gt;&lt;br&gt;&lt;/div&gt;" style="rounded=0;whiteSpace=wrap;html=1;fillColor=#fff2cc;strokeColor=#d6b656;align=left;gradientColor=none;spacing=10;verticalAlign=top;fontStyle=0;fontSize=14;textShadow=0;labelBorderColor=none;fontFamily=Helvetica;" parent="1" vertex="1">
          <mxGeometry x="2315" y="177.5" width="559" height="407.5" as="geometry" />
        </mxCell>
        <mxCell id="RQRsrTTXQ6HWwmG4QHCP-1" value="Decision Engine" style="swimlane;whiteSpace=wrap;html=1;fillColor=#d5e8d4;strokeColor=#82b366;swimlaneFillColor=#F7FAF6;fontSize=20;movable=0;resizable=0;rotatable=0;deletable=0;editable=0;locked=1;connectable=0;" parent="1" vertex="1">
          <mxGeometry x="1595" y="177.5" width="597" height="2300" as="geometry" />
        </mxCell>
        <mxCell id="pMFJ98IExyhr10BE2n5P-9" style="edgeStyle=orthogonalEdgeStyle;rounded=0;orthogonalLoop=1;jettySize=auto;html=1;exitX=0.5;exitY=1;exitDx=0;exitDy=0;entryX=0.5;entryY=0;entryDx=0;entryDy=0;strokeColor=#004C99;" parent="RQRsrTTXQ6HWwmG4QHCP-1" source="2K1D6Y8xOojCWSPqwoII-8" target="pMFJ98IExyhr10BE2n5P-8" edge="1">
          <mxGeometry relative="1" as="geometry" />
        </mxCell>
        <mxCell id="pMFJ98IExyhr10BE2n5P-14" style="edgeStyle=orthogonalEdgeStyle;rounded=0;orthogonalLoop=1;jettySize=auto;html=1;exitX=0.5;exitY=1;exitDx=0;exitDy=0;entryX=0.5;entryY=0;entryDx=0;entryDy=0;fontStyle=1;strokeColor=#004C99;" parent="RQRsrTTXQ6HWwmG4QHCP-1" source="pMFJ98IExyhr10BE2n5P-8" target="pMFJ98IExyhr10BE2n5P-13" edge="1">
          <mxGeometry relative="1" as="geometry" />
        </mxCell>
        <mxCell id="pMFJ98IExyhr10BE2n5P-15" value="&lt;span&gt;NO&lt;/span&gt;" style="edgeLabel;html=1;align=center;verticalAlign=middle;resizable=0;points=[];fontSize=17;fontColor=#FF0A0A;fontStyle=1" parent="pMFJ98IExyhr10BE2n5P-14" vertex="1" connectable="0">
          <mxGeometry x="-0.3346" y="-1" relative="1" as="geometry">
            <mxPoint as="offset" />
          </mxGeometry>
        </mxCell>
        <mxCell id="pMFJ98IExyhr10BE2n5P-8" value="c. Có nhiều&amp;nbsp;&lt;div&gt;kết quả Scoring và phải lựa chọn manual&lt;/div&gt;" style="rhombus;whiteSpace=wrap;html=1;fillColor=#b0e3e6;strokeColor=#0e8088;fontSize=15;" parent="RQRsrTTXQ6HWwmG4QHCP-1" vertex="1">
          <mxGeometry x="139.26" y="936.5" width="217.48" height="76" as="geometry" />
        </mxCell>
        <mxCell id="VuIohzIlLXPNprKp4xO4-15" style="edgeStyle=orthogonalEdgeStyle;rounded=0;orthogonalLoop=1;jettySize=auto;html=1;exitX=0.5;exitY=1;exitDx=0;exitDy=0;entryX=0.5;entryY=0;entryDx=0;entryDy=0;" parent="RQRsrTTXQ6HWwmG4QHCP-1" source="pMFJ98IExyhr10BE2n5P-13" target="VuIohzIlLXPNprKp4xO4-14" edge="1">
          <mxGeometry relative="1" as="geometry" />
        </mxCell>
        <mxCell id="pMFJ98IExyhr10BE2n5P-13" value="10. Tính toán Score nếu có cấu hình Dung Sai" style="rounded=0;whiteSpace=wrap;html=1;fontSize=17;fillColor=#f8cecc;strokeColor=#b85450;" parent="RQRsrTTXQ6HWwmG4QHCP-1" vertex="1">
          <mxGeometry x="123" y="1064.5" width="250" height="70" as="geometry" />
        </mxCell>
        <mxCell id="pMFJ98IExyhr10BE2n5P-31" style="edgeStyle=orthogonalEdgeStyle;rounded=0;orthogonalLoop=1;jettySize=auto;html=1;exitX=0.5;exitY=1;exitDx=0;exitDy=0;strokeColor=#004C99;" parent="RQRsrTTXQ6HWwmG4QHCP-1" source="pMFJ98IExyhr10BE2n5P-28" target="pMFJ98IExyhr10BE2n5P-30" edge="1">
          <mxGeometry relative="1" as="geometry" />
        </mxCell>
        <mxCell id="pMFJ98IExyhr10BE2n5P-28" value="14. Tính/Chốt Final Score/Final Rating&amp;nbsp;" style="rounded=0;whiteSpace=wrap;html=1;fontSize=17;fillColor=#f8cecc;strokeColor=#b85450;movable=1;resizable=1;rotatable=1;deletable=1;editable=1;locked=0;connectable=1;" parent="RQRsrTTXQ6HWwmG4QHCP-1" vertex="1">
          <mxGeometry x="123" y="1942.5" width="250" height="70" as="geometry" />
        </mxCell>
        <mxCell id="pMFJ98IExyhr10BE2n5P-30" value="i. Bị rớt luồng ?" style="rhombus;whiteSpace=wrap;html=1;fillColor=#b0e3e6;strokeColor=#0e8088;fontSize=17;" parent="RQRsrTTXQ6HWwmG4QHCP-1" vertex="1">
          <mxGeometry x="139.26" y="2075.5" width="217.48" height="76" as="geometry" />
        </mxCell>
        <mxCell id="fcdAwIeJuJOCpPH41J3Q-7" value="" style="group" parent="RQRsrTTXQ6HWwmG4QHCP-1" vertex="1" connectable="0">
          <mxGeometry x="73" y="662.5" width="350" height="228" as="geometry" />
        </mxCell>
        <mxCell id="2K1D6Y8xOojCWSPqwoII-8" value="" style="rounded=1;whiteSpace=wrap;html=1;fillColor=#d5e8d4;strokeColor=#82b366;" parent="fcdAwIeJuJOCpPH41J3Q-7" vertex="1">
          <mxGeometry width="350" height="228" as="geometry" />
        </mxCell>
        <mxCell id="pMFJ98IExyhr10BE2n5P-5" value="Ước tính thu nhập của KH (nếu có)" style="rounded=0;whiteSpace=wrap;html=1;fontSize=17;fillColor=#fff2cc;strokeColor=#d6b656;" parent="fcdAwIeJuJOCpPH41J3Q-7" vertex="1">
          <mxGeometry x="27" y="64.5" width="170" height="65" as="geometry" />
        </mxCell>
        <mxCell id="pMFJ98IExyhr10BE2n5P-6" value="Fraud&lt;div&gt;(future...)&lt;/div&gt;" style="rounded=0;whiteSpace=wrap;html=1;fontSize=17;fillColor=#fff2cc;strokeColor=#d6b656;" parent="fcdAwIeJuJOCpPH41J3Q-7" vertex="1">
          <mxGeometry x="223" y="64.5" width="93" height="65" as="geometry" />
        </mxCell>
        <mxCell id="pMFJ98IExyhr10BE2n5P-7" value="Chấm điểm xếp hạng khách hàng" style="rounded=0;whiteSpace=wrap;html=1;fontSize=17;fillColor=#fff2cc;strokeColor=#d6b656;" parent="fcdAwIeJuJOCpPH41J3Q-7" vertex="1">
          <mxGeometry x="27" y="144" width="288" height="65" as="geometry" />
        </mxCell>
        <mxCell id="3c--ZmuiRs-YTKQHgHvH-2" value="&lt;b&gt;8. DE thực hiện tính toán&lt;/b&gt;" style="text;html=1;align=left;verticalAlign=middle;whiteSpace=wrap;rounded=0;fontSize=17;" parent="fcdAwIeJuJOCpPH41J3Q-7" vertex="1">
          <mxGeometry x="27" y="15.5" width="288" height="30" as="geometry" />
        </mxCell>
        <mxCell id="VuIohzIlLXPNprKp4xO4-20" style="edgeStyle=orthogonalEdgeStyle;rounded=0;orthogonalLoop=1;jettySize=auto;html=1;exitX=0.5;exitY=1;exitDx=0;exitDy=0;entryX=0.5;entryY=0;entryDx=0;entryDy=0;strokeColor=#004C99;" parent="RQRsrTTXQ6HWwmG4QHCP-1" source="pMFJ98IExyhr10BE2n5P-22" target="VuIohzIlLXPNprKp4xO4-19" edge="1">
          <mxGeometry relative="1" as="geometry" />
        </mxCell>
        <mxCell id="pMFJ98IExyhr10BE2n5P-22" value="12. Tính toán Score nếu có cấu hình Override" style="rounded=0;whiteSpace=wrap;html=1;fontSize=17;fillColor=#f8cecc;strokeColor=#b85450;" parent="RQRsrTTXQ6HWwmG4QHCP-1" vertex="1">
          <mxGeometry x="123" y="1412.5" width="250" height="70" as="geometry" />
        </mxCell>
        <mxCell id="VuIohzIlLXPNprKp4xO4-28" style="edgeStyle=orthogonalEdgeStyle;rounded=0;orthogonalLoop=1;jettySize=auto;html=1;exitX=1;exitY=0.5;exitDx=0;exitDy=0;entryX=1;entryY=0.5;entryDx=0;entryDy=0;strokeColor=#004C99;curved=1;" parent="RQRsrTTXQ6HWwmG4QHCP-1" source="VuIohzIlLXPNprKp4xO4-13" target="pMFJ98IExyhr10BE2n5P-28" edge="1">
          <mxGeometry relative="1" as="geometry">
            <mxPoint x="385" y="1742.5" as="targetPoint" />
            <Array as="points">
              <mxPoint x="415" y="1805" />
              <mxPoint x="415" y="1978" />
            </Array>
          </mxGeometry>
        </mxCell>
        <mxCell id="VuIohzIlLXPNprKp4xO4-29" value="&lt;b&gt;&lt;font color=&quot;#ff0303&quot;&gt;NO&lt;/font&gt;&lt;/b&gt;" style="edgeLabel;html=1;align=center;verticalAlign=middle;resizable=0;points=[];fontSize=17;" parent="VuIohzIlLXPNprKp4xO4-28" vertex="1" connectable="0">
          <mxGeometry x="-0.7475" y="-5" relative="1" as="geometry">
            <mxPoint x="-9" as="offset" />
          </mxGeometry>
        </mxCell>
        <mxCell id="VuIohzIlLXPNprKp4xO4-13" value="h. Có&amp;nbsp;&lt;div&gt;Tiêu Chí Phụ&lt;/div&gt;&lt;div&gt;manual ?&lt;/div&gt;" style="rhombus;whiteSpace=wrap;html=1;fillColor=#b0e3e6;strokeColor=#0e8088;fontSize=17;movable=1;resizable=1;rotatable=1;deletable=1;editable=1;locked=0;connectable=1;" parent="RQRsrTTXQ6HWwmG4QHCP-1" vertex="1">
          <mxGeometry x="139.26" y="1753.5" width="217.48" height="103" as="geometry" />
        </mxCell>
        <mxCell id="VuIohzIlLXPNprKp4xO4-17" style="edgeStyle=orthogonalEdgeStyle;rounded=0;orthogonalLoop=1;jettySize=auto;html=1;exitX=1;exitY=0.5;exitDx=0;exitDy=0;entryX=1;entryY=0.5;entryDx=0;entryDy=0;strokeColor=#004C99;curved=1;" parent="RQRsrTTXQ6HWwmG4QHCP-1" source="VuIohzIlLXPNprKp4xO4-14" target="pMFJ98IExyhr10BE2n5P-22" edge="1">
          <mxGeometry relative="1" as="geometry">
            <Array as="points">
              <mxPoint x="419" y="1228" />
              <mxPoint x="419" y="1448" />
            </Array>
          </mxGeometry>
        </mxCell>
        <mxCell id="VuIohzIlLXPNprKp4xO4-18" value="NO" style="edgeLabel;html=1;align=center;verticalAlign=middle;resizable=0;points=[];fontStyle=1;fontSize=17;fontColor=#FF0A0A;" parent="VuIohzIlLXPNprKp4xO4-17" vertex="1" connectable="0">
          <mxGeometry x="-0.873" y="-2" relative="1" as="geometry">
            <mxPoint x="13" y="2" as="offset" />
          </mxGeometry>
        </mxCell>
        <mxCell id="VuIohzIlLXPNprKp4xO4-14" value="d. Có Dung Sai Manual ?" style="rhombus;whiteSpace=wrap;html=1;fillColor=#b0e3e6;strokeColor=#0e8088;fontSize=18;" parent="RQRsrTTXQ6HWwmG4QHCP-1" vertex="1">
          <mxGeometry x="139.26" y="1189.5" width="217.48" height="76" as="geometry" />
        </mxCell>
        <mxCell id="VuIohzIlLXPNprKp4xO4-22" style="rounded=0;orthogonalLoop=1;jettySize=auto;html=1;entryX=0.5;entryY=0;entryDx=0;entryDy=0;strokeColor=#004C99;exitX=0.5;exitY=1;exitDx=0;exitDy=0;" parent="RQRsrTTXQ6HWwmG4QHCP-1" source="VuIohzIlLXPNprKp4xO4-19" target="VuIohzIlLXPNprKp4xO4-13" edge="1">
          <mxGeometry relative="1" as="geometry">
            <mxPoint x="248" y="1492.5" as="sourcePoint" />
          </mxGeometry>
        </mxCell>
        <mxCell id="TrvXKv_rFkBpBsxXRwwZ-6" value="NO" style="edgeLabel;html=1;align=center;verticalAlign=middle;resizable=0;points=[];fontStyle=1;fontSize=17;fontColor=#FF0A0A;" parent="VuIohzIlLXPNprKp4xO4-22" vertex="1" connectable="0">
          <mxGeometry x="-0.6328" y="-1" relative="1" as="geometry">
            <mxPoint as="offset" />
          </mxGeometry>
        </mxCell>
        <mxCell id="VuIohzIlLXPNprKp4xO4-19" value="f. Có Override manual ?" style="rhombus;whiteSpace=wrap;html=1;fillColor=#b0e3e6;strokeColor=#0e8088;fontSize=18;" parent="RQRsrTTXQ6HWwmG4QHCP-1" vertex="1">
          <mxGeometry x="139.26" y="1549.5" width="217.48" height="76" as="geometry" />
        </mxCell>
        <mxCell id="TrvXKv_rFkBpBsxXRwwZ-1" value="4b. Xác định Model &amp;amp;&lt;br&gt;bộ câu hỏi tiêu chí của Model tương ứng (DE thực hiện)" style="rounded=0;whiteSpace=wrap;html=1;fontSize=17;fillColor=#fff2cc;strokeColor=#d6b656;" parent="RQRsrTTXQ6HWwmG4QHCP-1" vertex="1">
          <mxGeometry x="125.5" y="260.5" width="263" height="70" as="geometry" />
        </mxCell>
        <mxCell id="pMFJ98IExyhr10BE2n5P-41" style="edgeStyle=orthogonalEdgeStyle;rounded=0;orthogonalLoop=1;jettySize=auto;html=1;entryX=1;entryY=0.5;entryDx=0;entryDy=0;strokeWidth=1;strokeColor=#FF0A0A;exitX=1;exitY=0.5;exitDx=0;exitDy=0;" parent="RQRsrTTXQ6HWwmG4QHCP-1" source="pMFJ98IExyhr10BE2n5P-30" target="TrvXKv_rFkBpBsxXRwwZ-1" edge="1">
          <mxGeometry relative="1" as="geometry">
            <Array as="points">
              <mxPoint x="518" y="2114" />
              <mxPoint x="518" y="296" />
            </Array>
            <mxPoint x="352" y="1843.5" as="sourcePoint" />
            <mxPoint x="-1067" y="294" as="targetPoint" />
          </mxGeometry>
        </mxCell>
        <mxCell id="pMFJ98IExyhr10BE2n5P-42" value="YES" style="edgeLabel;html=1;align=center;verticalAlign=middle;resizable=0;points=[];fontStyle=1;fontSize=17;fontColor=#009900;" parent="pMFJ98IExyhr10BE2n5P-41" vertex="1" connectable="0">
          <mxGeometry x="-0.959" y="-2" relative="1" as="geometry">
            <mxPoint x="3" y="-2" as="offset" />
          </mxGeometry>
        </mxCell>
        <mxCell id="pMFJ98IExyhr10BE2n5P-2" style="edgeStyle=orthogonalEdgeStyle;rounded=0;orthogonalLoop=1;jettySize=auto;html=1;exitX=0.5;exitY=1;exitDx=0;exitDy=0;entryX=0;entryY=0.5;entryDx=0;entryDy=0;curved=1;strokeWidth=1;strokeColor=#004C99;" parent="1" source="2K1D6Y8xOojCWSPqwoII-6" target="2K1D6Y8xOojCWSPqwoII-8" edge="1">
          <mxGeometry relative="1" as="geometry" />
        </mxCell>
        <mxCell id="pMFJ98IExyhr10BE2n5P-1" style="rounded=0;orthogonalLoop=1;jettySize=auto;html=1;exitX=0.5;exitY=1;exitDx=0;exitDy=0;strokeWidth=1;strokeColor=#004C99;entryX=0.002;entryY=0.809;entryDx=0;entryDy=0;edgeStyle=orthogonalEdgeStyle;entryPerimeter=0;curved=1;" parent="1" source="2K1D6Y8xOojCWSPqwoII-1" target="2K1D6Y8xOojCWSPqwoII-8" edge="1">
          <mxGeometry relative="1" as="geometry" />
        </mxCell>
        <mxCell id="pMFJ98IExyhr10BE2n5P-3" value="NO" style="edgeLabel;html=1;align=center;verticalAlign=middle;resizable=0;points=[];fontSize=17;fontColor=#FF0A0A;fontStyle=1" parent="pMFJ98IExyhr10BE2n5P-1" vertex="1" connectable="0">
          <mxGeometry x="-0.9542" y="1" relative="1" as="geometry">
            <mxPoint x="-5" y="-3" as="offset" />
          </mxGeometry>
        </mxCell>
        <mxCell id="pMFJ98IExyhr10BE2n5P-11" style="rounded=0;orthogonalLoop=1;jettySize=auto;html=1;entryX=1;entryY=0.5;entryDx=0;entryDy=0;strokeColor=#004C99;" parent="1" source="pMFJ98IExyhr10BE2n5P-8" target="pMFJ98IExyhr10BE2n5P-10" edge="1">
          <mxGeometry relative="1" as="geometry" />
        </mxCell>
        <mxCell id="pMFJ98IExyhr10BE2n5P-12" value="YES" style="edgeLabel;html=1;align=center;verticalAlign=middle;resizable=0;points=[];fontSize=17;fontColor=#009900;fontStyle=1" parent="pMFJ98IExyhr10BE2n5P-11" vertex="1" connectable="0">
          <mxGeometry x="-0.6164" relative="1" as="geometry">
            <mxPoint x="83" y="2" as="offset" />
          </mxGeometry>
        </mxCell>
        <mxCell id="pMFJ98IExyhr10BE2n5P-16" style="edgeStyle=orthogonalEdgeStyle;rounded=0;orthogonalLoop=1;jettySize=auto;html=1;exitX=0.5;exitY=1;exitDx=0;exitDy=0;entryX=0;entryY=0.5;entryDx=0;entryDy=0;curved=1;strokeColor=#004C99;" parent="1" source="pMFJ98IExyhr10BE2n5P-10" target="pMFJ98IExyhr10BE2n5P-13" edge="1">
          <mxGeometry relative="1" as="geometry" />
        </mxCell>
        <mxCell id="pMFJ98IExyhr10BE2n5P-17" style="edgeStyle=orthogonalEdgeStyle;rounded=0;orthogonalLoop=1;jettySize=auto;html=1;exitX=0;exitY=0.5;exitDx=0;exitDy=0;entryX=0.5;entryY=0;entryDx=0;entryDy=0;curved=1;strokeColor=#004C99;" parent="1" source="VuIohzIlLXPNprKp4xO4-14" target="pMFJ98IExyhr10BE2n5P-18" edge="1">
          <mxGeometry relative="1" as="geometry">
            <mxPoint x="1521.5000915527344" y="1510.4999542236328" as="targetPoint" />
          </mxGeometry>
        </mxCell>
        <mxCell id="VuIohzIlLXPNprKp4xO4-16" value="YES" style="edgeLabel;html=1;align=center;verticalAlign=middle;resizable=0;points=[];fontStyle=1;fontSize=17;fontColor=#009900;" parent="pMFJ98IExyhr10BE2n5P-17" vertex="1" connectable="0">
          <mxGeometry x="-0.9592" y="2" relative="1" as="geometry">
            <mxPoint x="-5" y="-2" as="offset" />
          </mxGeometry>
        </mxCell>
        <mxCell id="3c--ZmuiRs-YTKQHgHvH-3" style="rounded=0;orthogonalLoop=1;jettySize=auto;html=1;exitX=0.5;exitY=1;exitDx=0;exitDy=0;strokeColor=#004C99;entryX=0;entryY=0.5;entryDx=0;entryDy=0;edgeStyle=orthogonalEdgeStyle;curved=1;" parent="1" source="fcdAwIeJuJOCpPH41J3Q-9" target="VuIohzIlLXPNprKp4xO4-13" edge="1">
          <mxGeometry relative="1" as="geometry">
            <mxPoint x="1687" y="1712" as="targetPoint" />
          </mxGeometry>
        </mxCell>
        <mxCell id="TrvXKv_rFkBpBsxXRwwZ-5" value="NO" style="edgeLabel;html=1;align=center;verticalAlign=middle;resizable=0;points=[];fontStyle=1;fontSize=17;fontColor=#FF0A0A;" parent="3c--ZmuiRs-YTKQHgHvH-3" vertex="1" connectable="0">
          <mxGeometry x="-0.9773" y="29" relative="1" as="geometry">
            <mxPoint as="offset" />
          </mxGeometry>
        </mxCell>
        <mxCell id="pMFJ98IExyhr10BE2n5P-23" style="edgeStyle=orthogonalEdgeStyle;rounded=0;orthogonalLoop=1;jettySize=auto;html=1;exitX=1;exitY=0.25;exitDx=0;exitDy=0;entryX=0.5;entryY=0;entryDx=0;entryDy=0;strokeColor=#004C99;curved=1;" parent="1" source="pMFJ98IExyhr10BE2n5P-19" target="pMFJ98IExyhr10BE2n5P-22" edge="1">
          <mxGeometry relative="1" as="geometry" />
        </mxCell>
        <mxCell id="pMFJ98IExyhr10BE2n5P-29" style="rounded=0;orthogonalLoop=1;jettySize=auto;html=1;exitX=0;exitY=0.5;exitDx=0;exitDy=0;entryX=0.5;entryY=0;entryDx=0;entryDy=0;strokeColor=#004C99;edgeStyle=orthogonalEdgeStyle;curved=1;" parent="1" source="VuIohzIlLXPNprKp4xO4-19" target="fcdAwIeJuJOCpPH41J3Q-9" edge="1">
          <mxGeometry relative="1" as="geometry" />
        </mxCell>
        <mxCell id="TrvXKv_rFkBpBsxXRwwZ-8" value="YES" style="edgeLabel;html=1;align=center;verticalAlign=middle;resizable=0;points=[];fontStyle=1;fontSize=17;fontColor=#009900;" parent="pMFJ98IExyhr10BE2n5P-29" vertex="1" connectable="0">
          <mxGeometry x="-0.9603" y="-1" relative="1" as="geometry">
            <mxPoint x="-13" y="1" as="offset" />
          </mxGeometry>
        </mxCell>
        <mxCell id="fcdAwIeJuJOCpPH41J3Q-15" style="rounded=0;orthogonalLoop=1;jettySize=auto;html=1;exitX=1;exitY=0.5;exitDx=0;exitDy=0;entryX=0;entryY=0;entryDx=0;entryDy=0;strokeColor=#004C99;edgeStyle=orthogonalEdgeStyle;curved=1;" parent="1" source="fcdAwIeJuJOCpPH41J3Q-10" target="VuIohzIlLXPNprKp4xO4-13" edge="1">
          <mxGeometry relative="1" as="geometry">
            <Array as="points">
              <mxPoint x="1789" y="1885" />
            </Array>
          </mxGeometry>
        </mxCell>
        <mxCell id="fcdAwIeJuJOCpPH41J3Q-16" value="8. DE thực hiện tính toán" style="swimlane;whiteSpace=wrap;html=1;fillColor=#d5e8d4;strokeColor=#82b366;fontSize=17;" parent="1" vertex="1">
          <mxGeometry x="2315" y="837" width="953" height="1123" as="geometry" />
        </mxCell>
        <mxCell id="fcdAwIeJuJOCpPH41J3Q-20" style="edgeStyle=orthogonalEdgeStyle;rounded=0;orthogonalLoop=1;jettySize=auto;html=1;exitX=0.5;exitY=1;exitDx=0;exitDy=0;entryX=0.5;entryY=0;entryDx=0;entryDy=0;" parent="fcdAwIeJuJOCpPH41J3Q-16" source="fcdAwIeJuJOCpPH41J3Q-18" target="fcdAwIeJuJOCpPH41J3Q-19" edge="1">
          <mxGeometry relative="1" as="geometry" />
        </mxCell>
        <mxCell id="fcdAwIeJuJOCpPH41J3Q-18" value="Xác định mô hình Segment &amp;amp;&lt;div&gt;bộ câu hỏi/ tiêu chí&lt;/div&gt;" style="rounded=0;whiteSpace=wrap;html=1;fontSize=17;fillColor=#fff2cc;strokeColor=#d6b656;" parent="fcdAwIeJuJOCpPH41J3Q-16" vertex="1">
          <mxGeometry x="56.5" y="71" width="229.5" height="65" as="geometry" />
        </mxCell>
        <mxCell id="fcdAwIeJuJOCpPH41J3Q-22" style="edgeStyle=orthogonalEdgeStyle;rounded=0;orthogonalLoop=1;jettySize=auto;html=1;exitX=0.5;exitY=1;exitDx=0;exitDy=0;" parent="fcdAwIeJuJOCpPH41J3Q-16" source="fcdAwIeJuJOCpPH41J3Q-19" target="fcdAwIeJuJOCpPH41J3Q-21" edge="1">
          <mxGeometry relative="1" as="geometry" />
        </mxCell>
        <mxCell id="fcdAwIeJuJOCpPH41J3Q-19" value="1. Lấy dữ liệu&lt;div&gt;2. Chấm Model Segment&lt;/div&gt;" style="rounded=0;whiteSpace=wrap;html=1;fontSize=17;fillColor=#fff2cc;strokeColor=#d6b656;align=left;" parent="fcdAwIeJuJOCpPH41J3Q-16" vertex="1">
          <mxGeometry x="57.5" y="179" width="227.5" height="65" as="geometry" />
        </mxCell>
        <mxCell id="fcdAwIeJuJOCpPH41J3Q-24" style="edgeStyle=orthogonalEdgeStyle;rounded=0;orthogonalLoop=1;jettySize=auto;html=1;" parent="fcdAwIeJuJOCpPH41J3Q-16" source="fcdAwIeJuJOCpPH41J3Q-21" target="fcdAwIeJuJOCpPH41J3Q-23" edge="1">
          <mxGeometry relative="1" as="geometry" />
        </mxCell>
        <mxCell id="fcdAwIeJuJOCpPH41J3Q-27" value="YES" style="edgeLabel;html=1;align=center;verticalAlign=middle;resizable=0;points=[];" parent="fcdAwIeJuJOCpPH41J3Q-24" vertex="1" connectable="0">
          <mxGeometry x="-0.2247" y="3" relative="1" as="geometry">
            <mxPoint x="-17" y="3" as="offset" />
          </mxGeometry>
        </mxCell>
        <mxCell id="fcdAwIeJuJOCpPH41J3Q-29" value="NO" style="edgeStyle=orthogonalEdgeStyle;rounded=0;orthogonalLoop=1;jettySize=auto;html=1;exitX=0.5;exitY=1;exitDx=0;exitDy=0;entryX=0.5;entryY=0;entryDx=0;entryDy=0;" parent="fcdAwIeJuJOCpPH41J3Q-16" source="fcdAwIeJuJOCpPH41J3Q-21" target="fcdAwIeJuJOCpPH41J3Q-28" edge="1">
          <mxGeometry x="-0.7067" relative="1" as="geometry">
            <mxPoint as="offset" />
          </mxGeometry>
        </mxCell>
        <mxCell id="fcdAwIeJuJOCpPH41J3Q-21" value="Chấm Income ?" style="rhombus;whiteSpace=wrap;html=1;fillColor=#b0e3e6;strokeColor=#0e8088;fontSize=17;" parent="fcdAwIeJuJOCpPH41J3Q-16" vertex="1">
          <mxGeometry x="62.51000000000022" y="278" width="217.48" height="76" as="geometry" />
        </mxCell>
        <mxCell id="fcdAwIeJuJOCpPH41J3Q-26" style="edgeStyle=orthogonalEdgeStyle;rounded=0;orthogonalLoop=1;jettySize=auto;html=1;exitX=0.5;exitY=1;exitDx=0;exitDy=0;entryX=0.5;entryY=0;entryDx=0;entryDy=0;" parent="fcdAwIeJuJOCpPH41J3Q-16" source="fcdAwIeJuJOCpPH41J3Q-23" target="fcdAwIeJuJOCpPH41J3Q-25" edge="1">
          <mxGeometry relative="1" as="geometry" />
        </mxCell>
        <mxCell id="fcdAwIeJuJOCpPH41J3Q-23" value="Xác định mô hình Income &amp;amp;&lt;div&gt;bộ câu hỏi/ tiêu chí&lt;/div&gt;" style="rounded=0;whiteSpace=wrap;html=1;fontSize=17;fillColor=#fff2cc;strokeColor=#d6b656;" parent="fcdAwIeJuJOCpPH41J3Q-16" vertex="1">
          <mxGeometry x="633" y="284" width="229.5" height="65" as="geometry" />
        </mxCell>
        <mxCell id="fcdAwIeJuJOCpPH41J3Q-25" value="1. Lấy dữ liệu&lt;div&gt;2. Chấm Model Income&lt;/div&gt;" style="rounded=0;whiteSpace=wrap;html=1;fontSize=17;fillColor=#fff2cc;strokeColor=#d6b656;align=left;" parent="fcdAwIeJuJOCpPH41J3Q-16" vertex="1">
          <mxGeometry x="634" y="398.5" width="227.5" height="65" as="geometry" />
        </mxCell>
        <mxCell id="9tMgsNhjSyV-uBF9O0VV-2" style="edgeStyle=orthogonalEdgeStyle;rounded=0;orthogonalLoop=1;jettySize=auto;html=1;exitX=0.5;exitY=1;exitDx=0;exitDy=0;entryX=0.5;entryY=0;entryDx=0;entryDy=0;" parent="fcdAwIeJuJOCpPH41J3Q-16" source="fcdAwIeJuJOCpPH41J3Q-28" target="9tMgsNhjSyV-uBF9O0VV-1" edge="1">
          <mxGeometry relative="1" as="geometry" />
        </mxCell>
        <mxCell id="fcdAwIeJuJOCpPH41J3Q-28" value="Xác định mô hình Rating &amp;amp;&lt;div&gt;bộ câu hỏi / tiêu chí&lt;/div&gt;" style="rounded=0;whiteSpace=wrap;html=1;fontSize=17;fillColor=#fff2cc;strokeColor=#d6b656;" parent="fcdAwIeJuJOCpPH41J3Q-16" vertex="1">
          <mxGeometry x="56.5" y="530" width="229.5" height="65" as="geometry" />
        </mxCell>
        <mxCell id="fcdAwIeJuJOCpPH41J3Q-30" style="edgeStyle=orthogonalEdgeStyle;rounded=0;orthogonalLoop=1;jettySize=auto;html=1;exitX=0.5;exitY=1;exitDx=0;exitDy=0;entryX=0.5;entryY=0;entryDx=0;entryDy=0;" parent="fcdAwIeJuJOCpPH41J3Q-16" source="fcdAwIeJuJOCpPH41J3Q-25" target="VuIohzIlLXPNprKp4xO4-7" edge="1">
          <mxGeometry relative="1" as="geometry">
            <mxPoint x="539" y="511" as="targetPoint" />
          </mxGeometry>
        </mxCell>
        <mxCell id="VuIohzIlLXPNprKp4xO4-9" style="edgeStyle=orthogonalEdgeStyle;rounded=0;orthogonalLoop=1;jettySize=auto;html=1;exitX=0.5;exitY=1;exitDx=0;exitDy=0;entryX=0;entryY=0.5;entryDx=0;entryDy=0;curved=1;" parent="fcdAwIeJuJOCpPH41J3Q-16" source="9tMgsNhjSyV-uBF9O0VV-1" target="cH_isyGgExqNeTJQ7QyX-1" edge="1">
          <mxGeometry relative="1" as="geometry" />
        </mxCell>
        <mxCell id="9tMgsNhjSyV-uBF9O0VV-1" value="Collect thông tin tương ứng" style="rounded=0;whiteSpace=wrap;html=1;fontSize=17;fillColor=#fff2cc;strokeColor=#d6b656;" parent="fcdAwIeJuJOCpPH41J3Q-16" vertex="1">
          <mxGeometry x="58.5" y="632" width="229.5" height="65" as="geometry" />
        </mxCell>
        <mxCell id="IQYME02R3p7WI77s86H8-2" style="edgeStyle=orthogonalEdgeStyle;rounded=0;orthogonalLoop=1;jettySize=auto;html=1;exitX=0.5;exitY=1;exitDx=0;exitDy=0;entryX=0.5;entryY=0;entryDx=0;entryDy=0;" parent="fcdAwIeJuJOCpPH41J3Q-16" source="cH_isyGgExqNeTJQ7QyX-1" target="IQYME02R3p7WI77s86H8-1" edge="1">
          <mxGeometry relative="1" as="geometry" />
        </mxCell>
        <mxCell id="cH_isyGgExqNeTJQ7QyX-1" value="Mapping điểm / tính toán điểm single/complex&amp;nbsp;" style="rounded=0;whiteSpace=wrap;html=1;fontSize=17;fillColor=#fff2cc;strokeColor=#d6b656;" parent="fcdAwIeJuJOCpPH41J3Q-16" vertex="1">
          <mxGeometry x="257" y="747" width="229.5" height="65" as="geometry" />
        </mxCell>
        <mxCell id="VuIohzIlLXPNprKp4xO4-3" style="edgeStyle=orthogonalEdgeStyle;rounded=0;orthogonalLoop=1;jettySize=auto;html=1;exitX=0.5;exitY=1;exitDx=0;exitDy=0;" parent="fcdAwIeJuJOCpPH41J3Q-16" source="IQYME02R3p7WI77s86H8-1" target="vNfohU3KF-JplCCH0eW3-1" edge="1">
          <mxGeometry relative="1" as="geometry" />
        </mxCell>
        <mxCell id="IQYME02R3p7WI77s86H8-1" value="Gộp điểm theo các group đã được định nghĩa sẵn" style="rounded=0;whiteSpace=wrap;html=1;fontSize=17;fillColor=#fff2cc;strokeColor=#d6b656;" parent="fcdAwIeJuJOCpPH41J3Q-16" vertex="1">
          <mxGeometry x="257" y="857" width="229.5" height="65" as="geometry" />
        </mxCell>
        <mxCell id="vNfohU3KF-JplCCH0eW3-1" value="Tính ra Rating&lt;div&gt;(nhưng có thể chưa final)&lt;/div&gt;" style="rounded=0;whiteSpace=wrap;html=1;fontSize=17;fillColor=#f8cecc;strokeColor=#b85450;" parent="fcdAwIeJuJOCpPH41J3Q-16" vertex="1">
          <mxGeometry x="257" y="973" width="229.5" height="65" as="geometry" />
        </mxCell>
        <mxCell id="VuIohzIlLXPNprKp4xO4-4" style="edgeStyle=orthogonalEdgeStyle;rounded=0;orthogonalLoop=1;jettySize=auto;html=1;exitX=0;exitY=0.5;exitDx=0;exitDy=0;entryX=1;entryY=0.5;entryDx=0;entryDy=0;" parent="fcdAwIeJuJOCpPH41J3Q-16" source="VuIohzIlLXPNprKp4xO4-1" target="fcdAwIeJuJOCpPH41J3Q-28" edge="1">
          <mxGeometry relative="1" as="geometry" />
        </mxCell>
        <mxCell id="VuIohzIlLXPNprKp4xO4-6" value="YES" style="edgeLabel;html=1;align=center;verticalAlign=middle;resizable=0;points=[];" parent="VuIohzIlLXPNprKp4xO4-4" vertex="1" connectable="0">
          <mxGeometry x="-0.7811" y="2" relative="1" as="geometry">
            <mxPoint as="offset" />
          </mxGeometry>
        </mxCell>
        <mxCell id="m98NhJ2UtJICD_MQxrYo-3" style="edgeStyle=orthogonalEdgeStyle;rounded=0;orthogonalLoop=1;jettySize=auto;html=1;exitX=0.5;exitY=1;exitDx=0;exitDy=0;entryX=0.5;entryY=0;entryDx=0;entryDy=0;" parent="fcdAwIeJuJOCpPH41J3Q-16" source="VuIohzIlLXPNprKp4xO4-1" target="m98NhJ2UtJICD_MQxrYo-2" edge="1">
          <mxGeometry relative="1" as="geometry" />
        </mxCell>
        <mxCell id="m98NhJ2UtJICD_MQxrYo-4" value="NO" style="edgeLabel;html=1;align=center;verticalAlign=middle;resizable=0;points=[];" parent="m98NhJ2UtJICD_MQxrYo-3" vertex="1" connectable="0">
          <mxGeometry x="-0.4945" relative="1" as="geometry">
            <mxPoint as="offset" />
          </mxGeometry>
        </mxCell>
        <mxCell id="VuIohzIlLXPNprKp4xO4-1" value="Chấm Rating ?" style="rhombus;whiteSpace=wrap;html=1;fillColor=#b0e3e6;strokeColor=#0e8088;fontSize=17;" parent="fcdAwIeJuJOCpPH41J3Q-16" vertex="1">
          <mxGeometry x="639.01" y="626.5" width="217.48" height="76" as="geometry" />
        </mxCell>
        <mxCell id="m98NhJ2UtJICD_MQxrYo-1" style="edgeStyle=orthogonalEdgeStyle;rounded=0;orthogonalLoop=1;jettySize=auto;html=1;exitX=0.5;exitY=1;exitDx=0;exitDy=0;entryX=0.5;entryY=0;entryDx=0;entryDy=0;" parent="fcdAwIeJuJOCpPH41J3Q-16" source="VuIohzIlLXPNprKp4xO4-7" target="VuIohzIlLXPNprKp4xO4-1" edge="1">
          <mxGeometry relative="1" as="geometry" />
        </mxCell>
        <mxCell id="VuIohzIlLXPNprKp4xO4-7" value="Chốt final Income" style="rounded=0;whiteSpace=wrap;html=1;fontSize=17;fillColor=#f8cecc;strokeColor=#b85450;" parent="fcdAwIeJuJOCpPH41J3Q-16" vertex="1">
          <mxGeometry x="633" y="515" width="229.5" height="65" as="geometry" />
        </mxCell>
        <mxCell id="m98NhJ2UtJICD_MQxrYo-2" value="Other non Scoring process ..." style="rounded=0;whiteSpace=wrap;html=1;fontSize=17;fillColor=#fff2cc;strokeColor=#d6b656;" parent="fcdAwIeJuJOCpPH41J3Q-16" vertex="1">
          <mxGeometry x="633.0000000000002" y="754" width="229.5" height="65" as="geometry" />
        </mxCell>
        <mxCell id="VuIohzIlLXPNprKp4xO4-24" style="edgeStyle=orthogonalEdgeStyle;rounded=0;orthogonalLoop=1;jettySize=auto;html=1;exitX=0.5;exitY=1;exitDx=0;exitDy=0;entryX=0;entryY=0.75;entryDx=0;entryDy=0;strokeColor=#004C99;curved=1;" parent="1" source="pMFJ98IExyhr10BE2n5P-18" target="pMFJ98IExyhr10BE2n5P-22" edge="1">
          <mxGeometry relative="1" as="geometry" />
        </mxCell>
        <mxCell id="VuIohzIlLXPNprKp4xO4-25" value="&lt;b&gt;&lt;font color=&quot;#ff0303&quot;&gt;NO&lt;/font&gt;&lt;/b&gt;" style="edgeLabel;html=1;align=center;verticalAlign=middle;resizable=0;points=[];fontSize=17;" parent="VuIohzIlLXPNprKp4xO4-24" vertex="1" connectable="0">
          <mxGeometry x="-0.8942" y="8" relative="1" as="geometry">
            <mxPoint x="11" y="-39" as="offset" />
          </mxGeometry>
        </mxCell>
        <mxCell id="VuIohzIlLXPNprKp4xO4-27" style="edgeStyle=orthogonalEdgeStyle;rounded=0;orthogonalLoop=1;jettySize=auto;html=1;exitX=0.5;exitY=1;exitDx=0;exitDy=0;entryX=1;entryY=0.5;entryDx=0;entryDy=0;movable=1;resizable=1;rotatable=1;deletable=1;editable=1;locked=0;connectable=1;strokeColor=#004C99;" parent="1" source="pMFJ98IExyhr10BE2n5P-30" target="pMFJ98IExyhr10BE2n5P-32" edge="1">
          <mxGeometry relative="1" as="geometry" />
        </mxCell>
        <mxCell id="TrvXKv_rFkBpBsxXRwwZ-3" value="&lt;b&gt;&lt;font color=&quot;#ff0a0a&quot;&gt;NO&lt;/font&gt;&lt;/b&gt;" style="edgeLabel;html=1;align=center;verticalAlign=middle;resizable=0;points=[];fontSize=17;" parent="VuIohzIlLXPNprKp4xO4-27" vertex="1" connectable="0">
          <mxGeometry x="-0.9783" relative="1" as="geometry">
            <mxPoint y="10" as="offset" />
          </mxGeometry>
        </mxCell>
        <mxCell id="VuIohzIlLXPNprKp4xO4-31" style="edgeStyle=orthogonalEdgeStyle;rounded=0;orthogonalLoop=1;jettySize=auto;html=1;exitX=0.5;exitY=1;exitDx=0;exitDy=0;entryX=0.5;entryY=0;entryDx=0;entryDy=0;curved=1;strokeColor=#004C99;" parent="1" source="VuIohzIlLXPNprKp4xO4-13" target="VuIohzIlLXPNprKp4xO4-30" edge="1">
          <mxGeometry relative="1" as="geometry" />
        </mxCell>
        <mxCell id="VuIohzIlLXPNprKp4xO4-34" value="&lt;b&gt;&lt;font color=&quot;#009900&quot;&gt;YES&lt;/font&gt;&lt;/b&gt;" style="edgeLabel;html=1;align=center;verticalAlign=middle;resizable=0;points=[];fontSize=17;" parent="VuIohzIlLXPNprKp4xO4-31" vertex="1" connectable="0">
          <mxGeometry x="-0.8815" y="-20" relative="1" as="geometry">
            <mxPoint y="-1" as="offset" />
          </mxGeometry>
        </mxCell>
        <mxCell id="VuIohzIlLXPNprKp4xO4-33" style="edgeStyle=orthogonalEdgeStyle;rounded=0;orthogonalLoop=1;jettySize=auto;html=1;exitX=1;exitY=0.5;exitDx=0;exitDy=0;entryX=0;entryY=0.5;entryDx=0;entryDy=0;strokeColor=#004C99;" parent="1" source="VuIohzIlLXPNprKp4xO4-30" target="pMFJ98IExyhr10BE2n5P-28" edge="1">
          <mxGeometry relative="1" as="geometry" />
        </mxCell>
        <mxCell id="TrvXKv_rFkBpBsxXRwwZ-2" style="edgeStyle=orthogonalEdgeStyle;rounded=0;orthogonalLoop=1;jettySize=auto;html=1;exitX=0;exitY=0.5;exitDx=0;exitDy=0;entryX=1;entryY=0.5;entryDx=0;entryDy=0;strokeColor=#004C99;curved=1;" parent="1" source="TrvXKv_rFkBpBsxXRwwZ-1" target="E3YPdvjCtiq694NVA4ly-6" edge="1">
          <mxGeometry relative="1" as="geometry" />
        </mxCell>
      </root>
    </mxGraphModel>
  </diagram>
  <diagram id="mi7R-c5gmpgvNRhJb37S" name="Auto Flow">
    <mxGraphModel dx="3931" dy="1462" grid="0" gridSize="10" guides="1" tooltips="1" connect="1" arrows="1" fold="1" page="0" pageScale="1" pageWidth="827" pageHeight="1169" math="0" shadow="0">
      <root>
        <mxCell id="0" />
        <mxCell id="1" parent="0" />
        <mxCell id="Jbn4ouxR_ohwMvJy4R6s-1" value="Digi Lending" style="swimlane;whiteSpace=wrap;html=1;fillColor=#dae8fc;strokeColor=#6c8ebf;swimlaneFillColor=#F8FAFE;fontSize=20;movable=0;resizable=0;rotatable=0;deletable=0;editable=0;locked=1;connectable=0;" parent="1" vertex="1">
          <mxGeometry x="-587" y="153.5" width="308" height="1975" as="geometry" />
        </mxCell>
        <mxCell id="Jbn4ouxR_ohwMvJy4R6s-2" style="edgeStyle=orthogonalEdgeStyle;rounded=0;orthogonalLoop=1;jettySize=auto;html=1;exitX=0.5;exitY=1;exitDx=0;exitDy=0;entryX=0.5;entryY=0;entryDx=0;entryDy=0;strokeColor=#004C99;" parent="Jbn4ouxR_ohwMvJy4R6s-1" source="Jbn4ouxR_ohwMvJy4R6s-3" target="Jbn4ouxR_ohwMvJy4R6s-4" edge="1">
          <mxGeometry relative="1" as="geometry" />
        </mxCell>
        <mxCell id="Jbn4ouxR_ohwMvJy4R6s-3" value="START" style="ellipse;whiteSpace=wrap;html=1;aspect=fixed;fillColor=#fff2cc;strokeColor=#d6b656;gradientColor=#ffd966;fontStyle=1;fontColor=#FF0303;fontSize=16;" parent="Jbn4ouxR_ohwMvJy4R6s-1" vertex="1">
          <mxGeometry x="129" y="43" width="50" height="50" as="geometry" />
        </mxCell>
        <mxCell id="Jbn4ouxR_ohwMvJy4R6s-4" value="1. Gửi yêu cầu tạo hồ sơ" style="rounded=0;whiteSpace=wrap;html=1;fontSize=18;fillColor=#fff2cc;strokeColor=#d6b656;" parent="Jbn4ouxR_ohwMvJy4R6s-1" vertex="1">
          <mxGeometry x="79" y="140" width="150" height="70" as="geometry" />
        </mxCell>
        <mxCell id="Jbn4ouxR_ohwMvJy4R6s-5" value="END" style="ellipse;whiteSpace=wrap;html=1;aspect=fixed;fillColor=#fff2cc;strokeColor=#d6b656;gradientColor=#ffd966;fontStyle=1;fontColor=#FF0303;fontSize=16;" parent="Jbn4ouxR_ohwMvJy4R6s-1" vertex="1">
          <mxGeometry x="100" y="1881" width="50" height="50" as="geometry" />
        </mxCell>
        <mxCell id="Jbn4ouxR_ohwMvJy4R6s-22" value="Decision Engine" style="swimlane;whiteSpace=wrap;html=1;fillColor=#d5e8d4;strokeColor=#82b366;swimlaneFillColor=#f7faf6;fontSize=20;" parent="1" vertex="1">
          <mxGeometry x="-279" y="153.5" width="744" height="1974" as="geometry" />
        </mxCell>
        <mxCell id="Jbn4ouxR_ohwMvJy4R6s-61" style="edgeStyle=orthogonalEdgeStyle;rounded=0;orthogonalLoop=1;jettySize=auto;html=1;exitX=1;exitY=0.5;exitDx=0;exitDy=0;entryX=0;entryY=0.5;entryDx=0;entryDy=0;strokeColor=#004C99;" parent="Jbn4ouxR_ohwMvJy4R6s-22" source="Jbn4ouxR_ohwMvJy4R6s-23" target="Jbn4ouxR_ohwMvJy4R6s-25" edge="1">
          <mxGeometry relative="1" as="geometry" />
        </mxCell>
        <mxCell id="Jbn4ouxR_ohwMvJy4R6s-23" value="2. Khởi tạo hồ sơ (tự động)" style="rounded=0;whiteSpace=wrap;html=1;fontSize=18;fillColor=#fff2cc;strokeColor=#d6b656;" parent="Jbn4ouxR_ohwMvJy4R6s-22" vertex="1">
          <mxGeometry x="74" y="140.5" width="250" height="70" as="geometry" />
        </mxCell>
        <mxCell id="Jbn4ouxR_ohwMvJy4R6s-24" style="edgeStyle=orthogonalEdgeStyle;rounded=0;orthogonalLoop=1;jettySize=auto;html=1;exitX=0.5;exitY=1;exitDx=0;exitDy=0;entryX=1;entryY=0.5;entryDx=0;entryDy=0;strokeWidth=1;strokeColor=#004C99;curved=1;" parent="Jbn4ouxR_ohwMvJy4R6s-22" source="Jbn4ouxR_ohwMvJy4R6s-25" target="Jbn4ouxR_ohwMvJy4R6s-27" edge="1">
          <mxGeometry relative="1" as="geometry" />
        </mxCell>
        <mxCell id="Jbn4ouxR_ohwMvJy4R6s-25" value="3. Kiểm tra điều kiện&lt;br&gt;dữ liệu áp dụng Model&lt;div&gt;(CASA/CIC/ ...)&lt;/div&gt;" style="rounded=0;whiteSpace=wrap;html=1;fontSize=17;fillColor=#fff2cc;strokeColor=#d6b656;" parent="Jbn4ouxR_ohwMvJy4R6s-22" vertex="1">
          <mxGeometry x="420" y="140.5" width="250" height="70" as="geometry" />
        </mxCell>
        <mxCell id="Jbn4ouxR_ohwMvJy4R6s-26" style="edgeStyle=orthogonalEdgeStyle;rounded=0;orthogonalLoop=1;jettySize=auto;html=1;exitX=0.5;exitY=1;exitDx=0;exitDy=0;curved=1;strokeWidth=1;strokeColor=#004C99;" parent="Jbn4ouxR_ohwMvJy4R6s-22" source="Jbn4ouxR_ohwMvJy4R6s-27" target="Jbn4ouxR_ohwMvJy4R6s-29" edge="1">
          <mxGeometry relative="1" as="geometry" />
        </mxCell>
        <mxCell id="Jbn4ouxR_ohwMvJy4R6s-27" value="4. Xác định Model &amp;amp;&lt;br&gt;bộ câu hỏi tiêu chí của Model tương ứng" style="rounded=0;whiteSpace=wrap;html=1;fontSize=17;fillColor=#f8cecc;strokeColor=#b85450;" parent="Jbn4ouxR_ohwMvJy4R6s-22" vertex="1">
          <mxGeometry x="272" y="264.5" width="200" height="70" as="geometry" />
        </mxCell>
        <mxCell id="Jbn4ouxR_ohwMvJy4R6s-28" style="edgeStyle=orthogonalEdgeStyle;rounded=0;orthogonalLoop=1;jettySize=auto;html=1;exitX=0.5;exitY=1;exitDx=0;exitDy=0;entryX=0.5;entryY=0;entryDx=0;entryDy=0;" parent="Jbn4ouxR_ohwMvJy4R6s-22" source="Jbn4ouxR_ohwMvJy4R6s-29" target="Jbn4ouxR_ohwMvJy4R6s-30" edge="1">
          <mxGeometry relative="1" as="geometry" />
        </mxCell>
        <mxCell id="Jbn4ouxR_ohwMvJy4R6s-29" value="5. Tự động collect dữ liệu raw" style="rounded=0;whiteSpace=wrap;html=1;fontSize=18;fillColor=#fff2cc;strokeColor=#d6b656;" parent="Jbn4ouxR_ohwMvJy4R6s-22" vertex="1">
          <mxGeometry x="246.99999999999997" y="388.5" width="250" height="70" as="geometry" />
        </mxCell>
        <mxCell id="Jbn4ouxR_ohwMvJy4R6s-30" value="Sử dụng&lt;div&gt;thông tin 3RD ?&lt;/div&gt;" style="rhombus;whiteSpace=wrap;html=1;fillColor=#b0e3e6;strokeColor=#0e8088;fontSize=17;" parent="Jbn4ouxR_ohwMvJy4R6s-22" vertex="1">
          <mxGeometry x="263.24" y="516.5" width="217.48" height="76" as="geometry" />
        </mxCell>
        <mxCell id="Jbn4ouxR_ohwMvJy4R6s-38" value="13. Trả kết quả Final Score/Final Rating&amp;nbsp;" style="rounded=0;whiteSpace=wrap;html=1;fontSize=17;fillColor=#60a917;strokeColor=#2D7600;fontColor=#ffffff;" parent="Jbn4ouxR_ohwMvJy4R6s-22" vertex="1">
          <mxGeometry x="-112" y="1761.5" width="250" height="70" as="geometry" />
        </mxCell>
        <mxCell id="Jbn4ouxR_ohwMvJy4R6s-45" style="rounded=0;orthogonalLoop=1;jettySize=auto;html=1;exitX=0.5;exitY=1;exitDx=0;exitDy=0;entryX=0.5;entryY=0;entryDx=0;entryDy=0;strokeWidth=1;strokeColor=#004C99;" parent="Jbn4ouxR_ohwMvJy4R6s-22" source="Jbn4ouxR_ohwMvJy4R6s-30" target="Jbn4ouxR_ohwMvJy4R6s-8" edge="1">
          <mxGeometry relative="1" as="geometry" />
        </mxCell>
        <mxCell id="Jbn4ouxR_ohwMvJy4R6s-46" value="NO" style="edgeLabel;html=1;align=center;verticalAlign=middle;resizable=0;points=[];fontSize=17;fontColor=#FF0A0A;fontStyle=1" parent="Jbn4ouxR_ohwMvJy4R6s-45" vertex="1" connectable="0">
          <mxGeometry x="-0.9542" y="1" relative="1" as="geometry">
            <mxPoint x="-1" y="30" as="offset" />
          </mxGeometry>
        </mxCell>
        <mxCell id="Jbn4ouxR_ohwMvJy4R6s-62" value="" style="group" parent="Jbn4ouxR_ohwMvJy4R6s-22" vertex="1" connectable="0">
          <mxGeometry x="197" y="682.5" width="350" height="228" as="geometry" />
        </mxCell>
        <mxCell id="Jbn4ouxR_ohwMvJy4R6s-8" value="" style="rounded=1;whiteSpace=wrap;html=1;fillColor=#d5e8d4;strokeColor=#82b366;" parent="Jbn4ouxR_ohwMvJy4R6s-62" vertex="1">
          <mxGeometry width="350" height="228" as="geometry" />
        </mxCell>
        <mxCell id="Jbn4ouxR_ohwMvJy4R6s-21" value="&lt;b&gt;7. DE thực hiện tính toán&lt;/b&gt;" style="text;html=1;align=left;verticalAlign=middle;whiteSpace=wrap;rounded=0;fontSize=17;" parent="Jbn4ouxR_ohwMvJy4R6s-62" vertex="1">
          <mxGeometry x="30.5" y="17.25" width="288" height="30" as="geometry" />
        </mxCell>
        <mxCell id="Jbn4ouxR_ohwMvJy4R6s-9" value="Ước tính thu nhập của KH (nếu có)" style="rounded=0;whiteSpace=wrap;html=1;fontSize=17;fillColor=#fff2cc;strokeColor=#d6b656;" parent="Jbn4ouxR_ohwMvJy4R6s-62" vertex="1">
          <mxGeometry x="30.5" y="66.25" width="123" height="65" as="geometry" />
        </mxCell>
        <mxCell id="Jbn4ouxR_ohwMvJy4R6s-10" value="Fraud (nếu có)" style="rounded=0;whiteSpace=wrap;html=1;fontSize=17;fillColor=#fff2cc;strokeColor=#d6b656;" parent="Jbn4ouxR_ohwMvJy4R6s-62" vertex="1">
          <mxGeometry x="196.5" y="66.25" width="123" height="65" as="geometry" />
        </mxCell>
        <mxCell id="Jbn4ouxR_ohwMvJy4R6s-11" value="Chấm điểm xếp hạng khách hàng" style="rounded=0;whiteSpace=wrap;html=1;fontSize=17;fillColor=#fff2cc;strokeColor=#d6b656;" parent="Jbn4ouxR_ohwMvJy4R6s-62" vertex="1">
          <mxGeometry x="30.5" y="145.75" width="288" height="65" as="geometry" />
        </mxCell>
        <mxCell id="Jbn4ouxR_ohwMvJy4R6s-7" style="edgeStyle=orthogonalEdgeStyle;rounded=0;orthogonalLoop=1;jettySize=auto;html=1;exitX=0.5;exitY=1;exitDx=0;exitDy=0;entryX=0.5;entryY=0;entryDx=0;entryDy=0;strokeColor=#004C99;" parent="Jbn4ouxR_ohwMvJy4R6s-22" source="Jbn4ouxR_ohwMvJy4R6s-8" target="Jbn4ouxR_ohwMvJy4R6s-15" edge="1">
          <mxGeometry relative="1" as="geometry">
            <mxPoint x="372" y="964.5" as="targetPoint" />
          </mxGeometry>
        </mxCell>
        <mxCell id="uml3Yr8IWOEqLs8kum7F-3" style="edgeStyle=orthogonalEdgeStyle;rounded=0;orthogonalLoop=1;jettySize=auto;html=1;exitX=0.5;exitY=1;exitDx=0;exitDy=0;entryX=0.5;entryY=0;entryDx=0;entryDy=0;strokeColor=#004C99;" edge="1" parent="Jbn4ouxR_ohwMvJy4R6s-22" source="Jbn4ouxR_ohwMvJy4R6s-15" target="oyItSccmxndEaPMHuuvi-1">
          <mxGeometry relative="1" as="geometry" />
        </mxCell>
        <mxCell id="Jbn4ouxR_ohwMvJy4R6s-15" value="8. Scoring được lựa chọn" style="rounded=0;whiteSpace=wrap;html=1;fontSize=17;fillColor=#f8cecc;strokeColor=#b85450;" parent="Jbn4ouxR_ohwMvJy4R6s-22" vertex="1">
          <mxGeometry x="247" y="994.5" width="250" height="70" as="geometry" />
        </mxCell>
        <mxCell id="Jbn4ouxR_ohwMvJy4R6s-19" value="12. Tính ra Final Score/Final Rating&amp;nbsp;" style="rounded=0;whiteSpace=wrap;html=1;fontSize=17;fillColor=#f8cecc;strokeColor=#b85450;" parent="Jbn4ouxR_ohwMvJy4R6s-22" vertex="1">
          <mxGeometry x="247" y="1495.5" width="250" height="70" as="geometry" />
        </mxCell>
        <mxCell id="uml3Yr8IWOEqLs8kum7F-7" style="edgeStyle=orthogonalEdgeStyle;rounded=0;orthogonalLoop=1;jettySize=auto;html=1;exitX=0;exitY=0.5;exitDx=0;exitDy=0;entryX=0;entryY=0.5;entryDx=0;entryDy=0;strokeColor=#FF0A0A;" edge="1" parent="Jbn4ouxR_ohwMvJy4R6s-22" source="Jbn4ouxR_ohwMvJy4R6s-20" target="Jbn4ouxR_ohwMvJy4R6s-27">
          <mxGeometry relative="1" as="geometry">
            <Array as="points">
              <mxPoint x="73" y="1676" />
              <mxPoint x="73" y="300" />
            </Array>
          </mxGeometry>
        </mxCell>
        <mxCell id="uml3Yr8IWOEqLs8kum7F-8" value="YES" style="edgeLabel;html=1;align=center;verticalAlign=middle;resizable=0;points=[];fontStyle=1;fontSize=17;fontColor=#009900;" vertex="1" connectable="0" parent="uml3Yr8IWOEqLs8kum7F-7">
          <mxGeometry x="-0.9707" y="-2" relative="1" as="geometry">
            <mxPoint as="offset" />
          </mxGeometry>
        </mxCell>
        <mxCell id="Jbn4ouxR_ohwMvJy4R6s-20" value="Bị rớt luồng&lt;div&gt;(và&amp;nbsp;&lt;span style=&quot;background-color: initial;&quot;&gt;rating hợp lệ)&lt;/span&gt;&lt;/div&gt;" style="rhombus;whiteSpace=wrap;html=1;fillColor=#b0e3e6;strokeColor=#0e8088;fontSize=17;" parent="Jbn4ouxR_ohwMvJy4R6s-22" vertex="1">
          <mxGeometry x="263.26" y="1637.5" width="217.48" height="76" as="geometry" />
        </mxCell>
        <mxCell id="Jbn4ouxR_ohwMvJy4R6s-54" style="edgeStyle=orthogonalEdgeStyle;rounded=0;orthogonalLoop=1;jettySize=auto;html=1;exitX=0.5;exitY=1;exitDx=0;exitDy=0;entryX=1;entryY=0.5;entryDx=0;entryDy=0;elbow=vertical;curved=1;strokeColor=#004C99;fontStyle=1;fontSize=13;" parent="Jbn4ouxR_ohwMvJy4R6s-22" source="Jbn4ouxR_ohwMvJy4R6s-20" target="Jbn4ouxR_ohwMvJy4R6s-38" edge="1">
          <mxGeometry relative="1" as="geometry" />
        </mxCell>
        <mxCell id="uml3Yr8IWOEqLs8kum7F-9" value="NO" style="edgeLabel;html=1;align=center;verticalAlign=middle;resizable=0;points=[];fontStyle=1;fontSize=17;fontColor=#FF0303;" vertex="1" connectable="0" parent="Jbn4ouxR_ohwMvJy4R6s-54">
          <mxGeometry x="-0.8656" y="-4" relative="1" as="geometry">
            <mxPoint as="offset" />
          </mxGeometry>
        </mxCell>
        <mxCell id="Jbn4ouxR_ohwMvJy4R6s-18" style="edgeStyle=orthogonalEdgeStyle;rounded=0;orthogonalLoop=1;jettySize=auto;html=1;exitX=0.5;exitY=1;exitDx=0;exitDy=0;strokeColor=#004C99;" parent="Jbn4ouxR_ohwMvJy4R6s-22" source="Jbn4ouxR_ohwMvJy4R6s-19" target="Jbn4ouxR_ohwMvJy4R6s-20" edge="1">
          <mxGeometry relative="1" as="geometry" />
        </mxCell>
        <mxCell id="uml3Yr8IWOEqLs8kum7F-4" style="edgeStyle=orthogonalEdgeStyle;rounded=0;orthogonalLoop=1;jettySize=auto;html=1;exitX=0.5;exitY=1;exitDx=0;exitDy=0;entryX=0.5;entryY=0;entryDx=0;entryDy=0;strokeColor=#004C99;" edge="1" parent="Jbn4ouxR_ohwMvJy4R6s-22" source="oyItSccmxndEaPMHuuvi-1" target="uml3Yr8IWOEqLs8kum7F-1">
          <mxGeometry relative="1" as="geometry" />
        </mxCell>
        <mxCell id="oyItSccmxndEaPMHuuvi-1" value="9. Tính toán Score nếu có cấu hình Dung Sai" style="rounded=0;whiteSpace=wrap;html=1;fontSize=17;fillColor=#f8cecc;strokeColor=#b85450;" vertex="1" parent="Jbn4ouxR_ohwMvJy4R6s-22">
          <mxGeometry x="247" y="1121.5" width="250" height="70" as="geometry" />
        </mxCell>
        <mxCell id="uml3Yr8IWOEqLs8kum7F-5" style="edgeStyle=orthogonalEdgeStyle;rounded=0;orthogonalLoop=1;jettySize=auto;html=1;exitX=0.5;exitY=1;exitDx=0;exitDy=0;entryX=0.5;entryY=0;entryDx=0;entryDy=0;strokeColor=#004C99;" edge="1" parent="Jbn4ouxR_ohwMvJy4R6s-22" source="uml3Yr8IWOEqLs8kum7F-1" target="uml3Yr8IWOEqLs8kum7F-2">
          <mxGeometry relative="1" as="geometry" />
        </mxCell>
        <mxCell id="uml3Yr8IWOEqLs8kum7F-1" value="10. Tính toán Score nếu có cấu hình Override" style="rounded=0;whiteSpace=wrap;html=1;fontSize=17;fillColor=#f8cecc;strokeColor=#b85450;" vertex="1" parent="Jbn4ouxR_ohwMvJy4R6s-22">
          <mxGeometry x="247" y="1245.5" width="250" height="70" as="geometry" />
        </mxCell>
        <mxCell id="uml3Yr8IWOEqLs8kum7F-6" style="edgeStyle=orthogonalEdgeStyle;rounded=0;orthogonalLoop=1;jettySize=auto;html=1;exitX=0.5;exitY=1;exitDx=0;exitDy=0;entryX=0.5;entryY=0;entryDx=0;entryDy=0;strokeColor=#004C99;" edge="1" parent="Jbn4ouxR_ohwMvJy4R6s-22" source="uml3Yr8IWOEqLs8kum7F-2" target="Jbn4ouxR_ohwMvJy4R6s-19">
          <mxGeometry relative="1" as="geometry" />
        </mxCell>
        <mxCell id="uml3Yr8IWOEqLs8kum7F-2" value="11. Tính toán Score nếu có cấu hình về Tiêu Chí Phụ" style="rounded=0;whiteSpace=wrap;html=1;fontSize=17;fillColor=#f8cecc;strokeColor=#b85450;" vertex="1" parent="Jbn4ouxR_ohwMvJy4R6s-22">
          <mxGeometry x="247" y="1369.5" width="250" height="70" as="geometry" />
        </mxCell>
        <mxCell id="Jbn4ouxR_ohwMvJy4R6s-39" value="3RD" style="swimlane;whiteSpace=wrap;html=1;fillColor=#e1d5e7;strokeColor=#9673a6;swimlaneFillColor=#F9F7FA;fontSize=20;movable=1;resizable=1;rotatable=1;deletable=1;editable=1;locked=0;connectable=1;" parent="1" vertex="1">
          <mxGeometry x="465" y="153.5" width="338" height="1973" as="geometry" />
        </mxCell>
        <mxCell id="Jbn4ouxR_ohwMvJy4R6s-40" value="6. Trả thông tin&amp;nbsp;&lt;span style=&quot;background-color: initial;&quot;&gt;3rd&lt;/span&gt;" style="rounded=0;whiteSpace=wrap;html=1;fontSize=18;fillColor=#fff2cc;strokeColor=#d6b656;movable=1;resizable=1;rotatable=1;deletable=1;editable=1;locked=0;connectable=1;" parent="Jbn4ouxR_ohwMvJy4R6s-39" vertex="1">
          <mxGeometry x="56.75" y="518.5" width="224.5" height="70" as="geometry" />
        </mxCell>
        <mxCell id="Jbn4ouxR_ohwMvJy4R6s-41" value="LUỒNG TỰ ĐỘNG" style="text;html=1;align=left;verticalAlign=middle;whiteSpace=wrap;rounded=0;fontStyle=1;fontSize=30;fontFamily=Helvetica;labelBackgroundColor=none;labelBorderColor=none;textShadow=1;fontColor=#004C99;movable=0;resizable=0;rotatable=0;deletable=0;editable=0;locked=1;connectable=0;" parent="1" vertex="1">
          <mxGeometry x="-587" y="84" width="405" height="48" as="geometry" />
        </mxCell>
        <mxCell id="Jbn4ouxR_ohwMvJy4R6s-42" style="edgeStyle=orthogonalEdgeStyle;rounded=0;orthogonalLoop=1;jettySize=auto;html=1;exitX=1;exitY=0.5;exitDx=0;exitDy=0;entryX=0;entryY=0.5;entryDx=0;entryDy=0;strokeColor=#004C99;strokeWidth=1;" parent="1" source="Jbn4ouxR_ohwMvJy4R6s-4" target="Jbn4ouxR_ohwMvJy4R6s-23" edge="1">
          <mxGeometry relative="1" as="geometry" />
        </mxCell>
        <mxCell id="Jbn4ouxR_ohwMvJy4R6s-43" style="edgeStyle=orthogonalEdgeStyle;rounded=0;orthogonalLoop=1;jettySize=auto;html=1;exitX=1;exitY=0.5;exitDx=0;exitDy=0;entryX=0;entryY=0.5;entryDx=0;entryDy=0;strokeWidth=1;strokeColor=#004C99;" parent="1" source="Jbn4ouxR_ohwMvJy4R6s-30" target="Jbn4ouxR_ohwMvJy4R6s-40" edge="1">
          <mxGeometry relative="1" as="geometry" />
        </mxCell>
        <mxCell id="Jbn4ouxR_ohwMvJy4R6s-44" value="YES" style="edgeLabel;html=1;align=center;verticalAlign=middle;resizable=0;points=[];fontSize=17;fontColor=#009900;fontStyle=1" parent="Jbn4ouxR_ohwMvJy4R6s-43" vertex="1" connectable="0">
          <mxGeometry x="-0.8789" relative="1" as="geometry">
            <mxPoint x="19" as="offset" />
          </mxGeometry>
        </mxCell>
        <mxCell id="Jbn4ouxR_ohwMvJy4R6s-53" style="edgeStyle=orthogonalEdgeStyle;rounded=0;orthogonalLoop=1;jettySize=auto;html=1;exitX=0.5;exitY=1;exitDx=0;exitDy=0;entryX=1;entryY=0.5;entryDx=0;entryDy=0;curved=1;strokeWidth=1;strokeColor=#004C99;" parent="1" source="Jbn4ouxR_ohwMvJy4R6s-40" target="Jbn4ouxR_ohwMvJy4R6s-8" edge="1">
          <mxGeometry relative="1" as="geometry">
            <mxPoint x="334" y="823.5" as="targetPoint" />
          </mxGeometry>
        </mxCell>
        <mxCell id="Jbn4ouxR_ohwMvJy4R6s-55" style="edgeStyle=orthogonalEdgeStyle;rounded=0;orthogonalLoop=1;jettySize=auto;html=1;exitX=0;exitY=0.5;exitDx=0;exitDy=0;entryX=0.5;entryY=0;entryDx=0;entryDy=0;curved=1;strokeColor=#004C99;" parent="1" source="Jbn4ouxR_ohwMvJy4R6s-38" target="Jbn4ouxR_ohwMvJy4R6s-5" edge="1">
          <mxGeometry relative="1" as="geometry" />
        </mxCell>
      </root>
    </mxGraphModel>
  </diagram>
</mxfile>
